<svg class="main-svg" xmlns="http://www.w3.org/2000/svg" xmlns:xlink="http://www.w3.org/1999/xlink" width="1600" height="900" style="" viewBox="0 0 1600 900"><rect x="0" y="0" width="1600" height="900" style="fill: rgb(255, 255, 255); fill-opacity: 1;"/><defs id="defs-246b5b"><g class="clips"><clipPath id="clip246b5bxyplot" class="plotclip"><rect width="1440" height="720"/></clipPath><clipPath class="axesclip" id="clip246b5bx"><rect x="80" y="0" width="1440" height="900"/></clipPath><clipPath class="axesclip" id="clip246b5by"><rect x="0" y="100" width="1600" height="720"/></clipPath><clipPath class="axesclip" id="clip246b5bxy"><rect x="80" y="100" width="1440" height="720"/></clipPath></g><g class="gradients"/><g class="patterns"/></defs><g class="bglayer"><rect class="bg" x="80" y="100" width="1440" height="720" style="fill: rgb(255, 255, 255); fill-opacity: 1; stroke-width: 0;"/></g><g class="layer-below"><g class="imagelayer"/><g class="shapelayer"/></g><g class="cartesianlayer"><g class="subplot xy"><g class="layer-subplot"><g class="shapelayer"/><g class="imagelayer"/></g><g class="minor-gridlayer"><g class="x"/><g class="y"/></g><g class="gridlayer"><g class="x"><path class="xgrid crisp" transform="translate(244.38,0)" d="M0,100v720" style="stroke: rgb(211, 211, 211); stroke-opacity: 1; stroke-width: 1px;"/><path class="xgrid crisp" transform="translate(408.77,0)" d="M0,100v720" style="stroke: rgb(211, 211, 211); stroke-opacity: 1; stroke-width: 1px;"/><path class="xgrid crisp" transform="translate(573.15,0)" d="M0,100v720" style="stroke: rgb(211, 211, 211); stroke-opacity: 1; stroke-width: 1px;"/><path class="xgrid crisp" transform="translate(737.53,0)" d="M0,100v720" style="stroke: rgb(211, 211, 211); stroke-opacity: 1; stroke-width: 1px;"/><path class="xgrid crisp" transform="translate(901.92,0)" d="M0,100v720" style="stroke: rgb(211, 211, 211); stroke-opacity: 1; stroke-width: 1px;"/><path class="xgrid crisp" transform="translate(1066.3,0)" d="M0,100v720" style="stroke: rgb(211, 211, 211); stroke-opacity: 1; stroke-width: 1px;"/><path class="xgrid crisp" transform="translate(1230.68,0)" d="M0,100v720" style="stroke: rgb(211, 211, 211); stroke-opacity: 1; stroke-width: 1px;"/><path class="xgrid crisp" transform="translate(1395.07,0)" d="M0,100v720" style="stroke: rgb(211, 211, 211); stroke-opacity: 1; stroke-width: 1px;"/></g><g class="y"><path class="ygrid crisp" transform="translate(0,738.41)" d="M80,0h1440" style="stroke: rgb(211, 211, 211); stroke-opacity: 1; stroke-width: 1px;"/><path class="ygrid crisp" transform="translate(0,656.82)" d="M80,0h1440" style="stroke: rgb(211, 211, 211); stroke-opacity: 1; stroke-width: 1px;"/><path class="ygrid crisp" transform="translate(0,575.23)" d="M80,0h1440" style="stroke: rgb(211, 211, 211); stroke-opacity: 1; stroke-width: 1px;"/><path class="ygrid crisp" transform="translate(0,493.64)" d="M80,0h1440" style="stroke: rgb(211, 211, 211); stroke-opacity: 1; stroke-width: 1px;"/><path class="ygrid crisp" transform="translate(0,412.05)" d="M80,0h1440" style="stroke: rgb(211, 211, 211); stroke-opacity: 1; stroke-width: 1px;"/><path class="ygrid crisp" transform="translate(0,330.45)" d="M80,0h1440" style="stroke: rgb(211, 211, 211); stroke-opacity: 1; stroke-width: 1px;"/><path class="ygrid crisp" transform="translate(0,248.86)" d="M80,0h1440" style="stroke: rgb(211, 211, 211); stroke-opacity: 1; stroke-width: 1px;"/><path class="ygrid crisp" transform="translate(0,167.26999999999998)" d="M80,0h1440" style="stroke: rgb(211, 211, 211); stroke-opacity: 1; stroke-width: 1px;"/></g></g><g class="zerolinelayer"><path class="yzl zl crisp" transform="translate(0,820)" d="M80,0h1440" style="stroke: rgb(68, 68, 68); stroke-opacity: 1; stroke-width: 1px;"/></g><path class="xlines-below"/><path class="ylines-below"/><g class="overlines-below"/><g class="xaxislayer-below"/><g class="yaxislayer-below"/><g class="overaxes-below"/><g class="plot" transform="translate(80,100)" clip-path="url(#clip246b5bxyplot)"><g class="scatterlayer mlayer"><g class="trace scatter trace78b894" style="stroke-miterlimit: 2;"><g class="fills"><g><path class="js-fill" d="M1439.84,720L0,720L0,626.75L504.33,627.5L504.49,627.52L511.23,627.95L511.4,627.95L522.41,628.7L522.58,628.71L552.82,631.32L552.99,631.39L554.79,631.58L554.96,631.59L582.41,634.27L582.58,634.28L642.9,638.74L643.07,638.82L651.62,639.57L651.78,639.58L659.67,640.33L659.84,640.35L667.07,640.95L667.23,640.97L675.95,641.72L676.11,641.74L682.19,642.49L682.36,642.5L706.68,644.75L706.85,644.81L731.67,647.09L731.84,647.13L736.44,647.52L736.6,647.54L744.16,648.28L744.33,648.3L759.12,649.96L759.29,650.01L767.01,650.76L767.18,650.78L770.3,651.17L770.47,651.19L842.14,660.27L842.3,660.32L854.63,662.49L854.79,662.55L860.05,663.6L860.22,663.63L870.74,665.67L870.9,665.81L878.14,667.16L878.3,667.19L889.64,669.7L889.81,669.83L890.96,670.29L891.12,670.36L894.08,671.2L894.25,671.53L897.7,672.49L897.86,672.55L917.75,673.27L917.92,673.39L930.9,676.96L931.07,676.96L951.95,677.68L952.11,677.74L956.05,678.72L956.22,678.75L993.04,679.49L993.21,679.56L995.34,680.07L995.51,680.07L1023.12,680.79L1023.29,680.87L1031.84,681.78L1032,681.78L1036.44,682.52L1036.6,682.71L1039.23,682.85L1039.4,682.85L1063.73,683.59L1063.89,683.91L1067.01,684.31L1067.18,684.31L1074.9,685.04L1075.07,685.12L1082.3,685.82L1082.47,685.82L1111.56,686.54L1111.73,686.65L1113.04,687.16L1113.21,687.16L1148.05,687.88L1148.22,688.05L1151.18,688.31L1151.34,688.31L1187.34,689L1187.51,689.2L1195.23,689.79L1195.4,689.79L1205.26,690.51L1205.42,690.68L1219.89,691.24L1220.05,691.24L1229.75,691.98L1229.92,692.23L1236.33,692.3L1236.49,692.3L1276.11,692.95L1276.27,693.32L1277.92,693.48L1278.08,693.48L1308.66,694.16L1308.82,694.26L1309.97,694.44L1310.14,694.44L1313.92,694.83L1314.08,695.33L1337.1,696.6L1337.26,696.6L1360.44,697.22L1360.6,697.5L1366.03,698.15L1366.19,698.15L1389.86,698.88L1390.03,698.92L1416.99,699.67L1417.15,699.75L1417.64,699.92L1417.81,701.11L1418.79,701.43L1418.96,701.43L1425.21,702.18L1425.37,702.2L1426.68,703.02L1426.85,703.02L1432.77,703.54L1432.93,703.84L1439.18,704.29L1439.34,705.15L1439.84,710.28" style="fill: rgb(29, 60, 52); fill-opacity: 0.5; stroke-width: 0;"/></g><g><path class="js-fill" d="M0,393.64L497.92,394.37L498.08,394.44L502.19,395.53L502.36,395.68L506.63,396.68L506.79,396.74L513.53,398.28L513.7,398.33L516.82,399.08L516.99,399.11L523.07,400.61L523.23,400.7L525.04,401.39L525.21,401.4L528,402.02L528.16,402.03L534.9,404.15L535.07,404.18L542.96,406.9L543.12,406.92L549.86,408.78L550.03,408.91L552.82,409.61L552.99,409.86L554.14,410.49L554.3,410.49L558.41,411.47L558.58,411.51L561.21,412.16L561.37,412.2L568.27,414.17L568.44,414.29L570.74,415.8L570.9,415.83L573.7,416.68L573.86,416.77L576,417.56L576.16,417.67L578.63,418.79L578.79,418.89L589.48,421.89L589.64,421.9L593.1,422.88L593.26,422.88L594.58,423.26L594.74,423.29L598.68,424.52L598.85,424.56L608.38,426.48L608.55,426.55L611.01,427.29L611.18,427.34L613.15,427.87L613.32,427.89L616.44,428.54L616.6,428.65L626.96,431.13L627.12,431.33L629.59,432.2L629.75,432.36L634.68,433.4L634.85,433.54L641.1,435.12L641.26,435.14L644.22,436.25L644.38,436.33L655.4,439.53L655.56,439.64L662.96,442.05L663.12,442.1L669.21,444.18L669.37,444.19L678.9,447.15L679.07,447.26L682.85,448.94L683.01,449.09L688.77,451.12L688.93,451.21L721.48,461.41L721.64,461.62L758.3,474.47L758.47,474.67L763.73,476.7L763.89,476.87L784.6,483.88L784.77,483.88L793.15,487.14L793.32,487.26L795.12,488.12L795.29,488.27L799.23,490.12L799.4,490.16L805.64,494L805.81,494.01L807.62,495.31L807.78,495.42L812.22,497.06L812.38,497.06L826.68,502.2L826.85,502.24L829.64,503.54L829.81,503.85L835.89,507.03L836.05,507.44L837.7,508.28L837.86,508.34L847.4,514.1L847.56,514.39L849.21,515.56L849.37,515.58L852.16,517.36L852.33,517.44L854.63,518.7L854.79,518.94L855.78,519.72L855.95,519.76L856.77,520.37L856.93,520.69L859.56,522.39L859.73,522.54L861.53,523.52L861.7,523.99L864.82,526.44L864.99,526.56L865.81,527.14L865.97,527.43L868.6,528.74L868.77,528.82L872.55,531.38L872.71,531.6L874.19,532.48L874.36,532.77L877.64,534.76L877.81,534.77L879.12,535.56L879.29,535.61L880.93,536.26L881.1,536.67L883.4,538.2L883.56,538.26L884.88,539.46L885.04,539.76L889.97,545.24L890.14,545.59L891.29,546.31L891.45,546.53L895.56,551.11L895.73,551.13L897.04,553.3L897.21,553.31L899.18,554.76L899.34,554.76L907.07,555.4L907.23,555.56L917.59,556.17L917.75,556.45L919.07,557.83L919.23,558.05L920.71,559.75L920.88,560.38L922.52,562.5L922.68,562.74L924.16,564.17L924.33,564.5L925.48,565.48L925.64,565.68L928.44,567.93L928.6,567.94L929.42,568.44L929.59,568.83L930.9,569.36L931.07,569.36L939.12,569.96L939.29,570.3L942.74,570.56L942.9,570.56L951.62,571.18L951.78,571.36L952.93,572.67L953.1,572.86L955.89,574.86L956.05,575.53L957.86,575.67L958.03,575.67L978.58,576L978.74,576.51L992.22,577.1L992.38,577.28L994.03,580.03L994.19,580.23L1021.48,580.95L1021.64,581.47L1023.45,583.13L1023.62,583.15L1026.74,586.23L1026.9,586.23L1035.12,586.91L1035.29,587.22L1035.78,587.7L1035.95,588.3L1036.44,588.82L1036.6,589.5L1037.92,589.97L1038.08,589.97L1044.99,589.97L1045.15,590.75L1045.97,591.3L1046.14,591.3L1063.07,591.75L1063.23,592.22L1064.22,593.86L1064.38,594.89L1066.85,595.08L1067.01,595.08L1073.26,595.26L1073.42,595.84L1076.71,600.38L1076.88,600.38L1101.7,601.13L1101.86,601.52L1102.68,602.63L1102.85,602.63L1111.73,603.28L1111.89,604.01L1114.19,605.05L1114.36,605.05L1135.23,605.79L1135.4,606.34L1137.37,607.53L1137.53,607.53L1148.22,608.16L1148.38,608.37L1149.53,609.09L1149.7,609.09L1157.75,609.68L1157.92,610.3L1187.01,610.87L1187.18,611.39L1188.66,613.26L1188.82,613.46L1190.14,614.26L1190.3,614.26L1203.62,614.65L1203.78,615.23L1206.58,619.12L1206.74,619.12L1224.82,619.39L1224.99,620.06L1225.64,620.36L1225.81,620.99L1226.96,621.15L1227.12,621.15L1229.59,621.15L1229.75,621.93L1230.58,623.07L1230.74,623.07L1256.71,623.53L1256.88,623.91L1258.19,624.29L1258.36,624.29L1275.45,625L1275.62,625.06L1276.11,625.33L1276.27,626.62L1277.26,627.18L1277.42,627.18L1308,627.76L1308.16,627.97L1308.49,629.13L1308.66,629.58L1309.81,630.54L1309.97,630.54L1313.1,631.24L1313.26,631.47L1313.92,631.9L1314.08,633.67L1314.58,634.06L1314.74,634.85L1315.89,635.47L1316.05,635.47L1318.68,635.47L1318.85,636.49L1320.16,636.63L1320.33,636.63L1322.3,636.63L1322.47,637.4L1323.45,637.75L1323.62,637.75L1342.52,638.47L1342.68,638.82L1356.66,639.26L1356.82,639.86L1357.81,640.27L1357.97,640.27L1360.44,640.27L1360.6,641.24L1361.26,642.22L1361.42,642.98L1362.58,643.53L1362.74,643.53L1373.42,643.77L1373.59,644.45L1377.04,644.45L1377.21,645.38L1378.03,645.86L1378.19,645.86L1408.93,646.33L1409.1,647.03L1410.08,648.02L1410.25,648.02L1412.88,648.58L1413.04,648.85L1417.48,649.29L1417.64,649.72L1418.47,654.99L1418.63,654.99L1421.26,654.99L1421.42,656.61L1422.41,657.53L1422.58,657.53L1425.37,657.69L1425.53,658.4L1426.52,660.56L1426.68,660.56L1429.15,660.56L1429.32,661.57L1430.14,662.38L1430.3,662.38L1432.77,662.38L1432.93,663.46L1436.05,664.08L1436.22,664.41L1439.18,665.01L1439.34,668.02L1439.84,685.98L1439.84,710.28L1439.34,705.15L1439.18,704.29L1432.93,703.84L1432.77,703.54L1426.85,703.02L1426.68,703.02L1425.37,702.2L1425.21,702.18L1418.96,701.43L1418.79,701.43L1417.81,701.11L1417.64,699.92L1417.15,699.75L1416.99,699.67L1390.03,698.92L1389.86,698.88L1366.19,698.15L1366.03,698.15L1360.6,697.5L1360.44,697.22L1337.26,696.6L1337.1,696.6L1314.08,695.33L1313.92,694.83L1310.14,694.44L1309.97,694.44L1308.82,694.26L1308.66,694.16L1278.08,693.48L1277.92,693.48L1276.27,693.32L1276.11,692.95L1236.49,692.3L1236.33,692.3L1229.92,692.23L1229.75,691.98L1220.05,691.24L1219.89,691.24L1205.42,690.68L1205.26,690.51L1195.4,689.79L1195.23,689.79L1187.51,689.2L1187.34,689L1151.34,688.31L1151.18,688.31L1148.22,688.05L1148.05,687.88L1113.21,687.16L1113.04,687.16L1111.73,686.65L1111.56,686.54L1082.47,685.82L1082.3,685.82L1075.07,685.12L1074.9,685.04L1067.18,684.31L1067.01,684.31L1063.89,683.91L1063.73,683.59L1039.4,682.85L1039.23,682.85L1036.6,682.71L1036.44,682.52L1032,681.78L1031.84,681.78L1023.29,680.87L1023.12,680.79L995.51,680.07L995.34,680.07L993.21,679.56L993.04,679.49L956.22,678.75L956.05,678.72L952.11,677.74L951.95,677.68L931.07,676.96L930.9,676.96L917.92,673.39L917.75,673.27L897.86,672.55L897.7,672.49L894.25,671.53L894.08,671.2L891.12,670.36L890.96,670.29L889.81,669.83L889.64,669.7L878.3,667.19L878.14,667.16L870.9,665.81L870.74,665.67L860.22,663.63L860.05,663.6L854.79,662.55L854.63,662.49L842.3,660.32L842.14,660.27L770.47,651.19L770.3,651.17L767.18,650.78L767.01,650.76L759.29,650.01L759.12,649.96L744.33,648.3L744.16,648.28L736.6,647.54L736.44,647.52L731.84,647.13L731.67,647.09L706.85,644.81L706.68,644.75L682.36,642.5L682.19,642.49L676.11,641.74L675.95,641.72L667.23,640.97L667.07,640.95L659.84,640.35L659.67,640.33L651.78,639.58L651.62,639.57L643.07,638.82L642.9,638.74L582.58,634.28L582.41,634.27L554.96,631.59L554.79,631.58L552.99,631.39L552.82,631.32L522.58,628.71L522.41,628.7L511.4,627.95L511.23,627.95L504.49,627.52L504.33,627.5L0,626.75Z" style="fill: rgb(72, 162, 63); fill-opacity: 0.5; stroke-width: 0;"/></g></g><g class="errorbars"/><g class="lines"><path class="js-line" d="M0,626.75L504.33,627.5L504.49,627.52L511.23,627.95L511.4,627.95L522.41,628.7L522.58,628.71L552.82,631.32L552.99,631.39L554.79,631.58L554.96,631.59L582.41,634.27L582.58,634.28L642.9,638.74L643.07,638.82L651.62,639.57L651.78,639.58L659.67,640.33L659.84,640.35L667.07,640.95L667.23,640.97L675.95,641.72L676.11,641.74L682.19,642.49L682.36,642.5L706.68,644.75L706.85,644.81L731.67,647.09L731.84,647.13L736.44,647.52L736.6,647.54L744.16,648.28L744.33,648.3L759.12,649.96L759.29,650.01L767.01,650.76L767.18,650.78L770.3,651.17L770.47,651.19L842.14,660.27L842.3,660.32L854.63,662.49L854.79,662.55L860.05,663.6L860.22,663.63L870.74,665.67L870.9,665.81L878.14,667.16L878.3,667.19L889.64,669.7L889.81,669.83L890.96,670.29L891.12,670.36L894.08,671.2L894.25,671.53L897.7,672.49L897.86,672.55L917.75,673.27L917.92,673.39L930.9,676.96L931.07,676.96L951.95,677.68L952.11,677.74L956.05,678.72L956.22,678.75L993.04,679.49L993.21,679.56L995.34,680.07L995.51,680.07L1023.12,680.79L1023.29,680.87L1031.84,681.78L1032,681.78L1036.44,682.52L1036.6,682.71L1039.23,682.85L1039.4,682.85L1063.73,683.59L1063.89,683.91L1067.01,684.31L1067.18,684.31L1074.9,685.04L1075.07,685.12L1082.3,685.82L1082.47,685.82L1111.56,686.54L1111.73,686.65L1113.04,687.16L1113.21,687.16L1148.05,687.88L1148.22,688.05L1151.18,688.31L1151.34,688.31L1187.34,689L1187.51,689.2L1195.23,689.79L1195.4,689.79L1205.26,690.51L1205.42,690.68L1219.89,691.24L1220.05,691.24L1229.75,691.98L1229.92,692.23L1236.33,692.3L1236.49,692.3L1276.11,692.95L1276.27,693.32L1277.92,693.48L1278.08,693.48L1308.66,694.16L1308.82,694.26L1309.97,694.44L1310.14,694.44L1313.92,694.83L1314.08,695.33L1337.1,696.6L1337.26,696.6L1360.44,697.22L1360.6,697.5L1366.03,698.15L1366.19,698.15L1389.86,698.88L1390.03,698.92L1416.99,699.67L1417.15,699.75L1417.64,699.92L1417.81,701.11L1418.79,701.43L1418.96,701.43L1425.21,702.18L1425.37,702.2L1426.68,703.02L1426.85,703.02L1432.77,703.54L1432.93,703.84L1439.18,704.29L1439.34,705.15L1439.84,710.28" style="vector-effect: none; fill: none; stroke: rgb(29, 60, 52); stroke-opacity: 1; stroke-width: 0px; opacity: 1;"/></g><g class="points"/><g class="text"/></g><g class="trace scatter trace455dab" style="stroke-miterlimit: 2;"><g class="fills"><g><path class="js-fill" d="M0,36L1.81,105.62L1.97,105.83L7.56,140.39L7.73,141.06L8.05,143.68L8.22,144.91L9.21,146.36L9.37,147.56L10.52,153.07L10.68,154.37L11.18,154.84L11.34,155.62L12.16,156.38L12.33,158.67L12.99,159.19L13.15,160.91L13.97,163.9L14.14,164.7L17.59,175L17.75,175.28L19.89,177.4L20.05,178.09L25.15,188.13L25.32,188.17L26.63,190.4L26.79,190.53L28.6,193.64L28.77,195.3L30.08,199.26L30.25,199.41L30.58,199.46L30.74,200.63L31.89,201.89L32.05,202.05L34.19,203.33L34.36,204.1L36,206.16L36.16,206.24L36.99,206.83L37.15,207.36L38.47,208.45L38.63,208.47L41.42,211.39L41.59,211.76L44.55,214.21L44.71,214.49L45.37,215.26L45.53,215.75L47.67,218.93L47.84,218.97L49.15,219.84L49.32,220L53.92,222.97L54.08,223.24L56.22,224.97L56.38,225.02L58.68,226.32L58.85,226.87L60.99,228L61.15,228.26L62.96,229.71L63.12,229.81L64.93,231.46L65.1,231.59L68.38,233.59L68.55,233.75L69.53,234.62L69.7,234.94L72.16,236.36L72.33,236.68L73.64,237.4L73.81,237.42L75.95,238.8L76.11,238.96L80.88,242.88L81.04,243.26L82.03,243.79L82.19,244.19L83.84,245.17L84,245.18L85.48,246.13L85.64,246.31L91.73,249.52L91.89,249.56L94.19,250.15L94.36,250.36L96.49,251.3L96.66,251.85L98.79,253.6L98.96,253.61L100.44,254.55L100.6,254.66L101.75,255.7L101.92,256L104.38,257.15L104.55,257.36L106.19,258.13L106.36,258.23L108.82,259.43L108.99,259.65L111.45,260.96L111.62,261.4L114.41,262.87L114.58,262.93L116.88,264.07L117.04,264.16L121.64,266.23L121.81,266.36L122.79,266.86L122.96,267.3L124.77,268.05L124.93,268.21L127.56,269.25L127.73,269.31L129.53,270.54L129.7,270.61L131.18,271.64L131.34,271.68L156.49,282.53L156.66,282.81L161.26,285.29L161.42,285.38L167.18,287.28L167.34,287.62L171.62,289.73L171.78,289.8L173.59,290.76L173.75,290.83L176.22,291.84L176.38,292.12L179.01,293.31L179.18,293.31L182.3,294.59L182.47,294.68L183.45,295.23L183.62,295.26L185.92,296.15L186.08,296.24L193.97,298.8L194.14,298.91L202.68,302.44L202.85,302.46L213.53,305.65L213.7,305.81L220.77,308.3L220.93,308.58L222.25,309.31L222.41,309.43L228.66,311.24L228.82,311.25L231.62,312.31L231.78,312.53L234.58,313.6L234.74,313.7L236.88,314.61L237.04,314.63L239.34,315.18L239.51,315.19L241.48,316.22L241.64,316.25L244.11,317.12L244.27,317.25L251.34,319.38L251.51,319.41L255.45,320.62L255.62,321.04L258.58,322.26L258.74,322.37L260.88,323.12L261.04,323.24L264.16,324.06L264.33,324.06L274.52,327.37L274.68,327.46L279.29,329.36L279.45,329.47L285.21,331.42L285.37,331.63L286.85,332.29L287.01,332.39L288.66,332.88L288.82,332.94L293.92,334.25L294.08,334.32L301.48,336.7L301.64,336.85L354.9,353.02L355.07,353.13L358.19,354.03L358.36,354.23L360,354.88L360.16,355.02L363.29,356.35L363.45,356.41L366.08,357.26L366.25,357.26L375.78,359.77L375.95,359.83L379.07,360.75L379.23,360.81L397.64,365.75L397.81,366.07L400.6,366.85L400.77,367.01L403.89,367.88L404.05,368L409.15,369.34L409.32,369.38L443.84,379.42L444,379.43L450.08,381.25L450.25,381.31L457.81,382.97L457.97,383.07L495.95,393.96L496.11,393.96L498.9,394.79L499.07,394.94L515.34,398.64L515.51,398.77L536.55,404.64L536.71,404.78L540.33,405.93L540.49,406.23L546.08,407.77L546.25,407.78L567.12,413.92L567.29,413.93L569.42,414.89L569.59,415.01L571.4,416.16L571.56,416.27L575.84,417.48L576,417.56L579.29,418.99L579.45,419.01L582.25,419.93L582.41,419.93L602.63,425.21L602.79,425.23L620.55,429.69L620.71,429.71L622.19,430.1L622.36,430.11L638.14,434.46L638.3,434.63L641.92,435.34L642.08,435.39L646.85,436.96L647.01,437.13L654.58,439.19L654.74,439.34L657.21,439.95L657.37,440.13L658.52,440.87L658.68,440.89L680.05,447.55L680.22,447.8L682.85,448.94L683.01,449.09L688.77,451.12L688.93,451.21L721.48,461.41L721.64,461.62L758.3,474.47L758.47,474.67L763.73,476.7L763.89,476.87L784.6,483.88L784.77,483.88L793.15,487.14L793.32,487.26L795.12,488.12L795.29,488.27L799.23,490.12L799.4,490.16L805.64,494L805.81,494.01L807.62,495.31L807.78,495.42L812.22,497.06L812.38,497.06L826.68,502.2L826.85,502.24L829.64,503.54L829.81,503.85L835.89,507.03L836.05,507.44L837.7,508.28L837.86,508.34L847.4,514.1L847.56,514.39L849.21,515.56L849.37,515.58L852.16,517.36L852.33,517.44L854.63,518.7L854.79,518.94L855.78,519.72L855.95,519.76L856.77,520.37L856.93,520.69L859.56,522.39L859.73,522.54L861.53,523.52L861.7,523.99L864.82,526.44L864.99,526.56L865.81,527.14L865.97,527.43L868.6,528.74L868.77,528.82L872.55,531.38L872.71,531.6L874.19,532.48L874.36,532.77L877.64,534.76L877.81,534.77L879.12,535.56L879.29,535.61L880.93,536.26L881.1,536.67L883.4,538.2L883.56,538.26L884.88,539.46L885.04,539.76L889.97,545.24L890.14,545.59L891.29,546.31L891.45,546.53L895.56,551.11L895.73,551.13L897.04,553.3L897.21,553.31L899.18,554.76L899.34,554.76L907.07,555.4L907.23,555.56L917.59,556.17L917.75,556.45L919.07,557.83L919.23,558.05L920.71,559.75L920.88,560.38L922.52,562.5L922.68,562.74L924.16,564.17L924.33,564.5L925.48,565.48L925.64,565.68L928.44,567.93L928.6,567.94L929.42,568.44L929.59,568.83L930.9,569.36L931.07,569.36L939.12,569.96L939.29,570.3L942.74,570.56L942.9,570.56L951.62,571.18L951.78,571.36L952.93,572.67L953.1,572.86L955.89,574.86L956.05,575.53L957.86,575.67L958.03,575.67L978.58,576L978.74,576.51L992.22,577.1L992.38,577.28L994.03,580.03L994.19,580.23L1021.48,580.95L1021.64,581.47L1023.45,583.13L1023.62,583.15L1026.74,586.23L1026.9,586.23L1035.12,586.91L1035.29,587.22L1035.78,587.7L1035.95,588.3L1036.44,588.82L1036.6,589.5L1037.92,589.97L1038.08,589.97L1044.99,589.97L1045.15,590.75L1045.97,591.3L1046.14,591.3L1063.07,591.75L1063.23,592.22L1064.22,593.86L1064.38,594.89L1066.85,595.08L1067.01,595.08L1073.26,595.26L1073.42,595.84L1076.71,600.38L1076.88,600.38L1101.7,601.13L1101.86,601.52L1102.68,602.63L1102.85,602.63L1111.73,603.28L1111.89,604.01L1114.19,605.05L1114.36,605.05L1135.23,605.79L1135.4,606.34L1137.37,607.53L1137.53,607.53L1148.22,608.16L1148.38,608.37L1149.53,609.09L1149.7,609.09L1157.75,609.68L1157.92,610.3L1187.01,610.87L1187.18,611.39L1188.66,613.26L1188.82,613.46L1190.14,614.26L1190.3,614.26L1203.62,614.65L1203.78,615.23L1206.58,619.12L1206.74,619.12L1224.82,619.39L1224.99,620.06L1225.64,620.36L1225.81,620.99L1226.96,621.15L1227.12,621.15L1229.59,621.15L1229.75,621.93L1230.58,623.07L1230.74,623.07L1256.71,623.53L1256.88,623.91L1258.19,624.29L1258.36,624.29L1275.45,625L1275.62,625.06L1276.11,625.33L1276.27,626.62L1277.26,627.18L1277.42,627.18L1308,627.76L1308.16,627.97L1308.49,629.13L1308.66,629.58L1309.81,630.54L1309.97,630.54L1313.1,631.24L1313.26,631.47L1313.92,631.9L1314.08,633.67L1314.58,634.06L1314.74,634.85L1315.89,635.47L1316.05,635.47L1318.68,635.47L1318.85,636.49L1320.16,636.63L1320.33,636.63L1322.3,636.63L1322.47,637.4L1323.45,637.75L1323.62,637.75L1342.52,638.47L1342.68,638.82L1356.66,639.26L1356.82,639.86L1357.81,640.27L1357.97,640.27L1360.44,640.27L1360.6,641.24L1361.26,642.22L1361.42,642.98L1362.58,643.53L1362.74,643.53L1373.42,643.77L1373.59,644.45L1377.04,644.45L1377.21,645.38L1378.03,645.86L1378.19,645.86L1408.93,646.33L1409.1,647.03L1410.08,648.02L1410.25,648.02L1412.88,648.58L1413.04,648.85L1417.48,649.29L1417.64,649.72L1418.47,654.99L1418.63,654.99L1421.26,654.99L1421.42,656.61L1422.41,657.53L1422.58,657.53L1425.37,657.69L1425.53,658.4L1426.52,660.56L1426.68,660.56L1429.15,660.56L1429.32,661.57L1430.14,662.38L1430.3,662.38L1432.77,662.38L1432.93,663.46L1436.05,664.08L1436.22,664.41L1439.18,665.01L1439.34,668.02L1439.84,685.98L1439.84,685.98L1439.34,668.02L1439.18,665.01L1436.22,664.41L1436.05,664.08L1432.93,663.46L1432.77,662.38L1430.3,662.38L1430.14,662.38L1429.32,661.57L1429.15,660.56L1426.68,660.56L1426.52,660.56L1425.53,658.4L1425.37,657.69L1422.58,657.53L1422.41,657.53L1421.42,656.61L1421.26,654.99L1418.63,654.99L1418.47,654.99L1417.64,649.72L1417.48,649.29L1413.04,648.85L1412.88,648.58L1410.25,648.02L1410.08,648.02L1409.1,647.03L1408.93,646.33L1378.19,645.86L1378.03,645.86L1377.21,645.38L1377.04,644.45L1373.59,644.45L1373.42,643.77L1362.74,643.53L1362.58,643.53L1361.42,642.98L1361.26,642.22L1360.6,641.24L1360.44,640.27L1357.97,640.27L1357.81,640.27L1356.82,639.86L1356.66,639.26L1342.68,638.82L1342.52,638.47L1323.62,637.75L1323.45,637.75L1322.47,637.4L1322.3,636.63L1320.33,636.63L1320.16,636.63L1318.85,636.49L1318.68,635.47L1316.05,635.47L1315.89,635.47L1314.74,634.85L1314.58,634.06L1314.08,633.67L1313.92,631.9L1313.26,631.47L1313.1,631.24L1309.97,630.54L1309.81,630.54L1308.66,629.58L1308.49,629.13L1308.16,627.97L1308,627.76L1277.42,627.18L1277.26,627.18L1276.27,626.62L1276.11,625.33L1275.62,625.06L1275.45,625L1258.36,624.29L1258.19,624.29L1256.88,623.91L1256.71,623.53L1230.74,623.07L1230.58,623.07L1229.75,621.93L1229.59,621.15L1227.12,621.15L1226.96,621.15L1225.81,620.99L1225.64,620.36L1224.99,620.06L1224.82,619.39L1206.74,619.12L1206.58,619.12L1203.78,615.23L1203.62,614.65L1190.3,614.26L1190.14,614.26L1188.82,613.46L1188.66,613.26L1187.18,611.39L1187.01,610.87L1157.92,610.3L1157.75,609.68L1149.7,609.09L1149.53,609.09L1148.38,608.37L1148.22,608.16L1137.53,607.53L1137.37,607.53L1135.4,606.34L1135.23,605.79L1114.36,605.05L1114.19,605.05L1111.89,604.01L1111.73,603.28L1102.85,602.63L1102.68,602.63L1101.86,601.52L1101.7,601.13L1076.88,600.38L1076.71,600.38L1073.42,595.84L1073.26,595.26L1067.01,595.08L1066.85,595.08L1064.38,594.89L1064.22,593.86L1063.23,592.22L1063.07,591.75L1046.14,591.3L1045.97,591.3L1045.15,590.75L1044.99,589.97L1038.08,589.97L1037.92,589.97L1036.6,589.5L1036.44,588.82L1035.95,588.3L1035.78,587.7L1035.29,587.22L1035.12,586.91L1026.9,586.23L1026.74,586.23L1023.62,583.15L1023.45,583.13L1021.64,581.47L1021.48,580.95L994.19,580.23L994.03,580.03L992.38,577.28L992.22,577.1L978.74,576.51L978.58,576L958.03,575.67L957.86,575.67L956.05,575.53L955.89,574.86L953.1,572.86L952.93,572.67L951.78,571.36L951.62,571.18L942.9,570.56L942.74,570.56L939.29,570.3L939.12,569.96L931.07,569.36L930.9,569.36L929.59,568.83L929.42,568.44L928.6,567.94L928.44,567.93L925.64,565.68L925.48,565.48L924.33,564.5L924.16,564.17L922.68,562.74L922.52,562.5L920.88,560.38L920.71,559.75L919.23,558.05L919.07,557.83L917.75,556.45L917.59,556.17L907.23,555.56L907.07,555.4L899.34,554.76L899.18,554.76L897.21,553.31L897.04,553.3L895.73,551.13L895.56,551.11L891.45,546.53L891.29,546.31L890.14,545.59L889.97,545.24L885.04,539.76L884.88,539.46L883.56,538.26L883.4,538.2L881.1,536.67L880.93,536.26L879.29,535.61L879.12,535.56L877.81,534.77L877.64,534.76L874.36,532.77L874.19,532.48L872.71,531.6L872.55,531.38L868.77,528.82L868.6,528.74L865.97,527.43L865.81,527.14L864.99,526.56L864.82,526.44L861.7,523.99L861.53,523.52L859.73,522.54L859.56,522.39L856.93,520.69L856.77,520.37L855.95,519.76L855.78,519.72L854.79,518.94L854.63,518.7L852.33,517.44L852.16,517.36L849.37,515.58L849.21,515.56L847.56,514.39L847.4,514.1L837.86,508.34L837.7,508.28L836.05,507.44L835.89,507.03L829.81,503.85L829.64,503.54L826.85,502.24L826.68,502.2L812.38,497.06L812.22,497.06L807.78,495.42L807.62,495.31L805.81,494.01L805.64,494L799.4,490.16L799.23,490.12L795.29,488.27L795.12,488.12L793.32,487.26L793.15,487.14L784.77,483.88L784.6,483.88L763.89,476.87L763.73,476.7L758.47,474.67L758.3,474.47L721.64,461.62L721.48,461.41L688.93,451.21L688.77,451.12L683.01,449.09L682.85,448.94L679.07,447.26L678.9,447.15L669.37,444.19L669.21,444.18L663.12,442.1L662.96,442.05L655.56,439.64L655.4,439.53L644.38,436.33L644.22,436.25L641.26,435.14L641.1,435.12L634.85,433.54L634.68,433.4L629.75,432.36L629.59,432.2L627.12,431.33L626.96,431.13L616.6,428.65L616.44,428.54L613.32,427.89L613.15,427.87L611.18,427.34L611.01,427.29L608.55,426.55L608.38,426.48L598.85,424.56L598.68,424.52L594.74,423.29L594.58,423.26L593.26,422.88L593.1,422.88L589.64,421.9L589.48,421.89L578.79,418.89L578.63,418.79L576.16,417.67L576,417.56L573.86,416.77L573.7,416.68L570.9,415.83L570.74,415.8L568.44,414.29L568.27,414.17L561.37,412.2L561.21,412.16L558.58,411.51L558.41,411.47L554.3,410.49L554.14,410.49L552.99,409.86L552.82,409.61L550.03,408.91L549.86,408.78L543.12,406.92L542.96,406.9L535.07,404.18L534.9,404.15L528.16,402.03L528,402.02L525.21,401.4L525.04,401.39L523.23,400.7L523.07,400.61L516.99,399.11L516.82,399.08L513.7,398.33L513.53,398.28L506.79,396.74L506.63,396.68L502.36,395.68L502.19,395.53L498.08,394.44L497.92,394.37L0,393.64Z" style="fill: rgb(255, 195, 88); fill-opacity: 0.5; stroke-width: 0;"/></g></g><g class="errorbars"/><g class="lines"><path class="js-line" d="M0,393.64L497.92,394.37L498.08,394.44L502.19,395.53L502.36,395.68L506.63,396.68L506.79,396.74L513.53,398.28L513.7,398.33L516.82,399.08L516.99,399.11L523.07,400.61L523.23,400.7L525.04,401.39L525.21,401.4L528,402.02L528.16,402.03L534.9,404.15L535.07,404.18L542.96,406.9L543.12,406.92L549.86,408.78L550.03,408.91L552.82,409.61L552.99,409.86L554.14,410.49L554.3,410.49L558.41,411.47L558.58,411.51L561.21,412.16L561.37,412.2L568.27,414.17L568.44,414.29L570.74,415.8L570.9,415.83L573.7,416.68L573.86,416.77L576,417.56L576.16,417.67L578.63,418.79L578.79,418.89L589.48,421.89L589.64,421.9L593.1,422.88L593.26,422.88L594.58,423.26L594.74,423.29L598.68,424.52L598.85,424.56L608.38,426.48L608.55,426.55L611.01,427.29L611.18,427.34L613.15,427.87L613.32,427.89L616.44,428.54L616.6,428.65L626.96,431.13L627.12,431.33L629.59,432.2L629.75,432.36L634.68,433.4L634.85,433.54L641.1,435.12L641.26,435.14L644.22,436.25L644.38,436.33L655.4,439.53L655.56,439.64L662.96,442.05L663.12,442.1L669.21,444.18L669.37,444.19L678.9,447.15L679.07,447.26L682.85,448.94L683.01,449.09L688.77,451.12L688.93,451.21L721.48,461.41L721.64,461.62L758.3,474.47L758.47,474.67L763.73,476.7L763.89,476.87L784.6,483.88L784.77,483.88L793.15,487.14L793.32,487.26L795.12,488.12L795.29,488.27L799.23,490.12L799.4,490.16L805.64,494L805.81,494.01L807.62,495.31L807.78,495.42L812.22,497.06L812.38,497.06L826.68,502.2L826.85,502.24L829.64,503.54L829.81,503.85L835.89,507.03L836.05,507.44L837.7,508.28L837.86,508.34L847.4,514.1L847.56,514.39L849.21,515.56L849.37,515.58L852.16,517.36L852.33,517.44L854.63,518.7L854.79,518.94L855.78,519.72L855.95,519.76L856.77,520.37L856.93,520.69L859.56,522.39L859.73,522.54L861.53,523.52L861.7,523.99L864.82,526.44L864.99,526.56L865.81,527.14L865.97,527.43L868.6,528.74L868.77,528.82L872.55,531.38L872.71,531.6L874.19,532.48L874.36,532.77L877.64,534.76L877.81,534.77L879.12,535.56L879.29,535.61L880.93,536.26L881.1,536.67L883.4,538.2L883.56,538.26L884.88,539.46L885.04,539.76L889.97,545.24L890.14,545.59L891.29,546.31L891.45,546.53L895.56,551.11L895.73,551.13L897.04,553.3L897.21,553.31L899.18,554.76L899.34,554.76L907.07,555.4L907.23,555.56L917.59,556.17L917.75,556.45L919.07,557.83L919.23,558.05L920.71,559.75L920.88,560.38L922.52,562.5L922.68,562.74L924.16,564.17L924.33,564.5L925.48,565.48L925.64,565.68L928.44,567.93L928.6,567.94L929.42,568.44L929.59,568.83L930.9,569.36L931.07,569.36L939.12,569.96L939.29,570.3L942.74,570.56L942.9,570.56L951.62,571.18L951.78,571.36L952.93,572.67L953.1,572.86L955.89,574.86L956.05,575.53L957.86,575.67L958.03,575.67L978.58,576L978.74,576.51L992.22,577.1L992.38,577.28L994.03,580.03L994.19,580.23L1021.48,580.95L1021.64,581.47L1023.45,583.13L1023.62,583.15L1026.74,586.23L1026.9,586.23L1035.12,586.91L1035.29,587.22L1035.78,587.7L1035.95,588.3L1036.44,588.82L1036.6,589.5L1037.92,589.97L1038.08,589.97L1044.99,589.97L1045.15,590.75L1045.97,591.3L1046.14,591.3L1063.07,591.75L1063.23,592.22L1064.22,593.86L1064.38,594.89L1066.85,595.08L1067.01,595.08L1073.26,595.26L1073.42,595.84L1076.71,600.38L1076.88,600.38L1101.7,601.13L1101.86,601.52L1102.68,602.63L1102.85,602.63L1111.73,603.28L1111.89,604.01L1114.19,605.05L1114.36,605.05L1135.23,605.79L1135.4,606.34L1137.37,607.53L1137.53,607.53L1148.22,608.16L1148.38,608.37L1149.53,609.09L1149.7,609.09L1157.75,609.68L1157.92,610.3L1187.01,610.87L1187.18,611.39L1188.66,613.26L1188.82,613.46L1190.14,614.26L1190.3,614.26L1203.62,614.65L1203.78,615.23L1206.58,619.12L1206.74,619.12L1224.82,619.39L1224.99,620.06L1225.64,620.36L1225.81,620.99L1226.96,621.15L1227.12,621.15L1229.59,621.15L1229.75,621.93L1230.58,623.07L1230.74,623.07L1256.71,623.53L1256.88,623.91L1258.19,624.29L1258.36,624.29L1275.45,625L1275.62,625.06L1276.11,625.33L1276.27,626.62L1277.26,627.18L1277.42,627.18L1308,627.76L1308.16,627.97L1308.49,629.13L1308.66,629.58L1309.81,630.54L1309.97,630.54L1313.1,631.24L1313.26,631.47L1313.92,631.9L1314.08,633.67L1314.58,634.06L1314.74,634.85L1315.89,635.47L1316.05,635.47L1318.68,635.47L1318.85,636.49L1320.16,636.63L1320.33,636.63L1322.3,636.63L1322.47,637.4L1323.45,637.75L1323.62,637.75L1342.52,638.47L1342.68,638.82L1356.66,639.26L1356.82,639.86L1357.81,640.27L1357.97,640.27L1360.44,640.27L1360.6,641.24L1361.26,642.22L1361.42,642.98L1362.58,643.53L1362.74,643.53L1373.42,643.77L1373.59,644.45L1377.04,644.45L1377.21,645.38L1378.03,645.86L1378.19,645.86L1408.93,646.33L1409.1,647.03L1410.08,648.02L1410.25,648.02L1412.88,648.58L1413.04,648.85L1417.48,649.29L1417.64,649.72L1418.47,654.99L1418.63,654.99L1421.26,654.99L1421.42,656.61L1422.41,657.53L1422.58,657.53L1425.37,657.69L1425.53,658.4L1426.52,660.56L1426.68,660.56L1429.15,660.56L1429.32,661.57L1430.14,662.38L1430.3,662.38L1432.77,662.38L1432.93,663.46L1436.05,664.08L1436.22,664.41L1439.18,665.01L1439.34,668.02L1439.84,685.98" style="vector-effect: none; fill: none; stroke: rgb(72, 162, 63); stroke-opacity: 1; stroke-width: 0px; opacity: 1;"/></g><g class="points"/><g class="text"/></g><g class="trace scatter tracecb705a" style="stroke-miterlimit: 2;"><g class="fills"/><g class="errorbars"/><g class="lines"><path class="js-line" d="M0,36L1.81,105.62L1.97,105.83L7.56,140.39L7.73,141.06L8.05,143.68L8.22,144.91L9.21,146.36L9.37,147.56L10.52,153.07L10.68,154.37L11.18,154.84L11.34,155.62L12.16,156.38L12.33,158.67L12.99,159.19L13.15,160.91L13.97,163.9L14.14,164.7L17.59,175L17.75,175.28L19.89,177.4L20.05,178.09L25.15,188.13L25.32,188.17L26.63,190.4L26.79,190.53L28.6,193.64L28.77,195.3L30.08,199.26L30.25,199.41L30.58,199.46L30.74,200.63L31.89,201.89L32.05,202.05L34.19,203.33L34.36,204.1L36,206.16L36.16,206.24L36.99,206.83L37.15,207.36L38.47,208.45L38.63,208.47L41.42,211.39L41.59,211.76L44.55,214.21L44.71,214.49L45.37,215.26L45.53,215.75L47.67,218.93L47.84,218.97L49.15,219.84L49.32,220L53.92,222.97L54.08,223.24L56.22,224.97L56.38,225.02L58.68,226.32L58.85,226.87L60.99,228L61.15,228.26L62.96,229.71L63.12,229.81L64.93,231.46L65.1,231.59L68.38,233.59L68.55,233.75L69.53,234.62L69.7,234.94L72.16,236.36L72.33,236.68L73.64,237.4L73.81,237.42L75.95,238.8L76.11,238.96L80.88,242.88L81.04,243.26L82.03,243.79L82.19,244.19L83.84,245.17L84,245.18L85.48,246.13L85.64,246.31L91.73,249.52L91.89,249.56L94.19,250.15L94.36,250.36L96.49,251.3L96.66,251.85L98.79,253.6L98.96,253.61L100.44,254.55L100.6,254.66L101.75,255.7L101.92,256L104.38,257.15L104.55,257.36L106.19,258.13L106.36,258.23L108.82,259.43L108.99,259.65L111.45,260.96L111.62,261.4L114.41,262.87L114.58,262.93L116.88,264.07L117.04,264.16L121.64,266.23L121.81,266.36L122.79,266.86L122.96,267.3L124.77,268.05L124.93,268.21L127.56,269.25L127.73,269.31L129.53,270.54L129.7,270.61L131.18,271.64L131.34,271.68L156.49,282.53L156.66,282.81L161.26,285.29L161.42,285.38L167.18,287.28L167.34,287.62L171.62,289.73L171.78,289.8L173.59,290.76L173.75,290.83L176.22,291.84L176.38,292.12L179.01,293.31L179.18,293.31L182.3,294.59L182.47,294.68L183.45,295.23L183.62,295.26L185.92,296.15L186.08,296.24L193.97,298.8L194.14,298.91L202.68,302.44L202.85,302.46L213.53,305.65L213.7,305.81L220.77,308.3L220.93,308.58L222.25,309.31L222.41,309.43L228.66,311.24L228.82,311.25L231.62,312.31L231.78,312.53L234.58,313.6L234.74,313.7L236.88,314.61L237.04,314.63L239.34,315.18L239.51,315.19L241.48,316.22L241.64,316.25L244.11,317.12L244.27,317.25L251.34,319.38L251.51,319.41L255.45,320.62L255.62,321.04L258.58,322.26L258.74,322.37L260.88,323.12L261.04,323.24L264.16,324.06L264.33,324.06L274.52,327.37L274.68,327.46L279.29,329.36L279.45,329.47L285.21,331.42L285.37,331.63L286.85,332.29L287.01,332.39L288.66,332.88L288.82,332.94L293.92,334.25L294.08,334.32L301.48,336.7L301.64,336.85L354.9,353.02L355.07,353.13L358.19,354.03L358.36,354.23L360,354.88L360.16,355.02L363.29,356.35L363.45,356.41L366.08,357.26L366.25,357.26L375.78,359.77L375.95,359.83L379.07,360.75L379.23,360.81L397.64,365.75L397.81,366.07L400.6,366.85L400.77,367.01L403.89,367.88L404.05,368L409.15,369.34L409.32,369.38L443.84,379.42L444,379.43L450.08,381.25L450.25,381.31L457.81,382.97L457.97,383.07L495.95,393.96L496.11,393.96L498.9,394.79L499.07,394.94L515.34,398.64L515.51,398.77L536.55,404.64L536.71,404.78L540.33,405.93L540.49,406.23L546.08,407.77L546.25,407.78L567.12,413.92L567.29,413.93L569.42,414.89L569.59,415.01L571.4,416.16L571.56,416.27L575.84,417.48L576,417.56L579.29,418.99L579.45,419.01L582.25,419.93L582.41,419.93L602.63,425.21L602.79,425.23L620.55,429.69L620.71,429.71L622.19,430.1L622.36,430.11L638.14,434.46L638.3,434.63L641.92,435.34L642.08,435.39L646.85,436.96L647.01,437.13L654.58,439.19L654.74,439.34L657.21,439.95L657.37,440.13L658.52,440.87L658.68,440.89L680.05,447.55L680.22,447.8L682.85,448.94L683.01,449.09L688.77,451.12L688.93,451.21L721.48,461.41L721.64,461.62L758.3,474.47L758.47,474.67L763.73,476.7L763.89,476.87L784.6,483.88L784.77,483.88L793.15,487.14L793.32,487.26L795.12,488.12L795.29,488.27L799.23,490.12L799.4,490.16L805.64,494L805.81,494.01L807.62,495.31L807.78,495.42L812.22,497.06L812.38,497.06L826.68,502.2L826.85,502.24L829.64,503.54L829.81,503.85L835.89,507.03L836.05,507.44L837.7,508.28L837.86,508.34L847.4,514.1L847.56,514.39L849.21,515.56L849.37,515.58L852.16,517.36L852.33,517.44L854.63,518.7L854.79,518.94L855.78,519.72L855.95,519.76L856.77,520.37L856.93,520.69L859.56,522.39L859.73,522.54L861.53,523.52L861.7,523.99L864.82,526.44L864.99,526.56L865.81,527.14L865.97,527.43L868.6,528.74L868.77,528.82L872.55,531.38L872.71,531.6L874.19,532.48L874.36,532.77L877.64,534.76L877.81,534.77L879.12,535.56L879.29,535.61L880.93,536.26L881.1,536.67L883.4,538.2L883.56,538.26L884.88,539.46L885.04,539.76L889.97,545.24L890.14,545.59L891.29,546.31L891.45,546.53L895.56,551.11L895.73,551.13L897.04,553.3L897.21,553.31L899.18,554.76L899.34,554.76L907.07,555.4L907.23,555.56L917.59,556.17L917.75,556.45L919.07,557.83L919.23,558.05L920.71,559.75L920.88,560.38L922.52,562.5L922.68,562.74L924.16,564.17L924.33,564.5L925.48,565.48L925.64,565.68L928.44,567.93L928.6,567.94L929.42,568.44L929.59,568.83L930.9,569.36L931.07,569.36L939.12,569.96L939.29,570.3L942.74,570.56L942.9,570.56L951.62,571.18L951.78,571.36L952.93,572.67L953.1,572.86L955.89,574.86L956.05,575.53L957.86,575.67L958.03,575.67L978.58,576L978.74,576.51L992.22,577.1L992.38,577.28L994.03,580.03L994.19,580.23L1021.48,580.95L1021.64,581.47L1023.45,583.13L1023.62,583.15L1026.74,586.23L1026.9,586.23L1035.12,586.91L1035.29,587.22L1035.78,587.7L1035.95,588.3L1036.44,588.82L1036.6,589.5L1037.92,589.97L1038.08,589.97L1044.99,589.97L1045.15,590.75L1045.97,591.3L1046.14,591.3L1063.07,591.75L1063.23,592.22L1064.22,593.86L1064.38,594.89L1066.85,595.08L1067.01,595.08L1073.26,595.26L1073.42,595.84L1076.71,600.38L1076.88,600.38L1101.7,601.13L1101.86,601.52L1102.68,602.63L1102.85,602.63L1111.73,603.28L1111.89,604.01L1114.19,605.05L1114.36,605.05L1135.23,605.79L1135.4,606.34L1137.37,607.53L1137.53,607.53L1148.22,608.16L1148.38,608.37L1149.53,609.09L1149.7,609.09L1157.75,609.68L1157.92,610.3L1187.01,610.87L1187.18,611.39L1188.66,613.26L1188.82,613.46L1190.14,614.26L1190.3,614.26L1203.62,614.65L1203.78,615.23L1206.58,619.12L1206.74,619.12L1224.82,619.39L1224.99,620.06L1225.64,620.36L1225.81,620.99L1226.96,621.15L1227.12,621.15L1229.59,621.15L1229.75,621.93L1230.58,623.07L1230.74,623.07L1256.71,623.53L1256.88,623.91L1258.19,624.29L1258.36,624.29L1275.45,625L1275.62,625.06L1276.11,625.33L1276.27,626.62L1277.26,627.18L1277.42,627.18L1308,627.76L1308.16,627.97L1308.49,629.13L1308.66,629.58L1309.81,630.54L1309.97,630.54L1313.1,631.24L1313.26,631.47L1313.92,631.9L1314.08,633.67L1314.58,634.06L1314.74,634.85L1315.89,635.47L1316.05,635.47L1318.68,635.47L1318.85,636.49L1320.16,636.63L1320.33,636.63L1322.3,636.63L1322.47,637.4L1323.45,637.75L1323.62,637.75L1342.52,638.47L1342.68,638.82L1356.66,639.26L1356.82,639.86L1357.81,640.27L1357.97,640.27L1360.44,640.27L1360.6,641.24L1361.26,642.22L1361.42,642.98L1362.58,643.53L1362.74,643.53L1373.42,643.77L1373.59,644.45L1377.04,644.45L1377.21,645.38L1378.03,645.86L1378.19,645.86L1408.93,646.33L1409.1,647.03L1410.08,648.02L1410.25,648.02L1412.88,648.58L1413.04,648.85L1417.48,649.29L1417.64,649.72L1418.47,654.99L1418.63,654.99L1421.26,654.99L1421.42,656.61L1422.41,657.53L1422.58,657.53L1425.37,657.69L1425.53,658.4L1426.52,660.56L1426.68,660.56L1429.15,660.56L1429.32,661.57L1430.14,662.38L1430.3,662.38L1432.77,662.38L1432.93,663.46L1436.05,664.08L1436.22,664.41L1439.18,665.01L1439.34,668.02L1439.84,685.98" style="vector-effect: none; fill: none; stroke: rgb(255, 195, 88); stroke-opacity: 1; stroke-width: 0px; opacity: 1;"/></g><g class="points"/><g class="text"/></g></g></g><g class="overplot"/><path class="xlines-above crisp" d="M79,820.5H1521M79,99.5H1521" style="fill: none; stroke-width: 1px; stroke: rgb(0, 0, 0); stroke-opacity: 1;"/><path class="ylines-above crisp" d="M79.5,100V820M1520.5,100V820" style="fill: none; stroke-width: 1px; stroke: rgb(0, 0, 0); stroke-opacity: 1;"/><g class="overlines-above"/><g class="xaxislayer-above"><path class="xtick ticks crisp" d="M0,821v5" transform="translate(80,0)" style="stroke: rgb(68, 68, 68); stroke-opacity: 1; stroke-width: 1px;"/><path class="xtick ticks crisp" d="M0,821v5" transform="translate(244.38,0)" style="stroke: rgb(68, 68, 68); stroke-opacity: 1; stroke-width: 1px;"/><path class="xtick ticks crisp" d="M0,821v5" transform="translate(408.77,0)" style="stroke: rgb(68, 68, 68); stroke-opacity: 1; stroke-width: 1px;"/><path class="xtick ticks crisp" d="M0,821v5" transform="translate(573.15,0)" style="stroke: rgb(68, 68, 68); stroke-opacity: 1; stroke-width: 1px;"/><path class="xtick ticks crisp" d="M0,821v5" transform="translate(737.53,0)" style="stroke: rgb(68, 68, 68); stroke-opacity: 1; stroke-width: 1px;"/><path class="xtick ticks crisp" d="M0,821v5" transform="translate(901.92,0)" style="stroke: rgb(68, 68, 68); stroke-opacity: 1; stroke-width: 1px;"/><path class="xtick ticks crisp" d="M0,821v5" transform="translate(1066.3,0)" style="stroke: rgb(68, 68, 68); stroke-opacity: 1; stroke-width: 1px;"/><path class="xtick ticks crisp" d="M0,821v5" transform="translate(1230.68,0)" style="stroke: rgb(68, 68, 68); stroke-opacity: 1; stroke-width: 1px;"/><path class="xtick ticks crisp" d="M0,821v5" transform="translate(1395.07,0)" style="stroke: rgb(68, 68, 68); stroke-opacity: 1; stroke-width: 1px;"/><g class="xtick"><text text-anchor="middle" x="0" y="859.6" transform="translate(80,0)" style="font-family: 'Avenir Next LT Pro'; font-size: 28px; fill: rgb(0, 0, 0); fill-opacity: 1; white-space: pre; opacity: 1;">0</text></g><g class="xtick"><text text-anchor="middle" x="0" y="859.6" style="font-family: 'Avenir Next LT Pro'; font-size: 28px; fill: rgb(0, 0, 0); fill-opacity: 1; white-space: pre; opacity: 1;" transform="translate(244.38,0)">1000</text></g><g class="xtick"><text text-anchor="middle" x="0" y="859.6" style="font-family: 'Avenir Next LT Pro'; font-size: 28px; fill: rgb(0, 0, 0); fill-opacity: 1; white-space: pre; opacity: 1;" transform="translate(408.77,0)">2000</text></g><g class="xtick"><text text-anchor="middle" x="0" y="859.6" style="font-family: 'Avenir Next LT Pro'; font-size: 28px; fill: rgb(0, 0, 0); fill-opacity: 1; white-space: pre; opacity: 1;" transform="translate(573.15,0)">3000</text></g><g class="xtick"><text text-anchor="middle" x="0" y="859.6" style="font-family: 'Avenir Next LT Pro'; font-size: 28px; fill: rgb(0, 0, 0); fill-opacity: 1; white-space: pre; opacity: 1;" transform="translate(737.53,0)">4000</text></g><g class="xtick"><text text-anchor="middle" x="0" y="859.6" style="font-family: 'Avenir Next LT Pro'; font-size: 28px; fill: rgb(0, 0, 0); fill-opacity: 1; white-space: pre; opacity: 1;" transform="translate(901.92,0)">5000</text></g><g class="xtick"><text text-anchor="middle" x="0" y="859.6" style="font-family: 'Avenir Next LT Pro'; font-size: 28px; fill: rgb(0, 0, 0); fill-opacity: 1; white-space: pre; opacity: 1;" transform="translate(1066.3,0)">6000</text></g><g class="xtick"><text text-anchor="middle" x="0" y="859.6" style="font-family: 'Avenir Next LT Pro'; font-size: 28px; fill: rgb(0, 0, 0); fill-opacity: 1; white-space: pre; opacity: 1;" transform="translate(1230.68,0)">7000</text></g><g class="xtick"><text text-anchor="middle" x="0" y="859.6" style="font-family: 'Avenir Next LT Pro'; font-size: 28px; fill: rgb(0, 0, 0); fill-opacity: 1; white-space: pre; opacity: 1;" transform="translate(1395.07,0)">8000</text></g></g><g class="yaxislayer-above"><path class="ytick ticks crisp" d="M79,0h-5" transform="translate(0,820)" style="stroke: rgb(68, 68, 68); stroke-opacity: 1; stroke-width: 1px;"/><path class="ytick ticks crisp" d="M79,0h-5" transform="translate(0,738.41)" style="stroke: rgb(68, 68, 68); stroke-opacity: 1; stroke-width: 1px;"/><path class="ytick ticks crisp" d="M79,0h-5" transform="translate(0,656.82)" style="stroke: rgb(68, 68, 68); stroke-opacity: 1; stroke-width: 1px;"/><path class="ytick ticks crisp" d="M79,0h-5" transform="translate(0,575.23)" style="stroke: rgb(68, 68, 68); stroke-opacity: 1; stroke-width: 1px;"/><path class="ytick ticks crisp" d="M79,0h-5" transform="translate(0,493.64)" style="stroke: rgb(68, 68, 68); stroke-opacity: 1; stroke-width: 1px;"/><path class="ytick ticks crisp" d="M79,0h-5" transform="translate(0,412.05)" style="stroke: rgb(68, 68, 68); stroke-opacity: 1; stroke-width: 1px;"/><path class="ytick ticks crisp" d="M79,0h-5" transform="translate(0,330.45)" style="stroke: rgb(68, 68, 68); stroke-opacity: 1; stroke-width: 1px;"/><path class="ytick ticks crisp" d="M79,0h-5" transform="translate(0,248.86)" style="stroke: rgb(68, 68, 68); stroke-opacity: 1; stroke-width: 1px;"/><path class="ytick ticks crisp" d="M79,0h-5" transform="translate(0,167.26999999999998)" style="stroke: rgb(68, 68, 68); stroke-opacity: 1; stroke-width: 1px;"/><g class="ytick"><text text-anchor="end" x="68.4" y="9.799999999999999" transform="translate(0,820)" style="font-family: 'Avenir Next LT Pro'; font-size: 28px; fill: rgb(0, 0, 0); fill-opacity: 1; white-space: pre; opacity: 1;">0</text></g><g class="ytick"><text text-anchor="end" x="68.4" y="9.799999999999999" style="font-family: 'Avenir Next LT Pro'; font-size: 28px; fill: rgb(0, 0, 0); fill-opacity: 1; white-space: pre; opacity: 1;" transform="translate(0,738.41)">1</text></g><g class="ytick"><text text-anchor="end" x="68.4" y="9.799999999999999" style="font-family: 'Avenir Next LT Pro'; font-size: 28px; fill: rgb(0, 0, 0); fill-opacity: 1; white-space: pre; opacity: 1;" transform="translate(0,656.82)">2</text></g><g class="ytick"><text text-anchor="end" x="68.4" y="9.799999999999999" style="font-family: 'Avenir Next LT Pro'; font-size: 28px; fill: rgb(0, 0, 0); fill-opacity: 1; white-space: pre; opacity: 1;" transform="translate(0,575.23)">3</text></g><g class="ytick"><text text-anchor="end" x="68.4" y="9.799999999999999" style="font-family: 'Avenir Next LT Pro'; font-size: 28px; fill: rgb(0, 0, 0); fill-opacity: 1; white-space: pre; opacity: 1;" transform="translate(0,493.64)">4</text></g><g class="ytick"><text text-anchor="end" x="68.4" y="9.799999999999999" style="font-family: 'Avenir Next LT Pro'; font-size: 28px; fill: rgb(0, 0, 0); fill-opacity: 1; white-space: pre; opacity: 1;" transform="translate(0,412.05)">5</text></g><g class="ytick"><text text-anchor="end" x="68.4" y="9.799999999999999" style="font-family: 'Avenir Next LT Pro'; font-size: 28px; fill: rgb(0, 0, 0); fill-opacity: 1; white-space: pre; opacity: 1;" transform="translate(0,330.45)">6</text></g><g class="ytick"><text text-anchor="end" x="68.4" y="9.799999999999999" style="font-family: 'Avenir Next LT Pro'; font-size: 28px; fill: rgb(0, 0, 0); fill-opacity: 1; white-space: pre; opacity: 1;" transform="translate(0,248.86)">7</text></g><g class="ytick"><text text-anchor="end" x="68.4" y="9.799999999999999" style="font-family: 'Avenir Next LT Pro'; font-size: 28px; fill: rgb(0, 0, 0); fill-opacity: 1; white-space: pre; opacity: 1;" transform="translate(0,167.26999999999998)">8</text></g></g><g class="overaxes-above"/></g></g><g class="polarlayer"/><g class="smithlayer"/><g class="ternarylayer"/><g class="geolayer"/><g class="funnelarealayer"/><g class="pielayer"/><g class="iciclelayer"/><g class="treemaplayer"/><g class="sunburstlayer"/><g class="glimages"/><defs id="topdefs-246b5b"><g class="clips"/><clipPath id="legend246b5b"><rect width="305" height="238" x="0" y="0"/></clipPath></defs><g class="layer-above"><g class="imagelayer"/><g class="shapelayer"/></g><g class="infolayer"><g class="legend" pointer-events="all" transform="translate(94.4,114.4)"><rect class="bg" shape-rendering="crispEdges" width="305" height="238" x="0" y="0" style="stroke: rgb(68, 68, 68); stroke-opacity: 1; fill: rgb(0, 0, 0); fill-opacity: 0; stroke-width: 0px;"/><g class="scrollbox" transform="" clip-path="url(#legend246b5b)"><g class="groups"><g class="traces" transform="translate(0,42.9)" style="opacity: 1;"><text class="legendtext" text-anchor="start" x="40" y="-7.28" style="font-family: 'Avenir Next LT Pro'; font-size: 28px; fill: rgb(0, 0, 0); fill-opacity: 1; white-space: pre;"><tspan class="line" dy="0em" x="40" y="-7.28">Spisslast:</tspan><tspan class="line" dy="1.3em" x="40" y="-7.28">3 197 kWh/år | 4 kW</tspan></text><g class="layers"><g class="legendfill"><path class="js-fill" d="M5,-2h30v6h-30z" style="stroke-width: 0; fill: rgb(255, 195, 88); fill-opacity: 0.5;"/></g><g class="legendlines"><path class="js-line" d="M5,-2h30" style="fill: none; stroke: rgb(255, 195, 88); stroke-opacity: 1; stroke-width: 0px;"/></g><g class="legendsymbols"><g class="legendpoints"/></g></g><rect class="legendtoggle" x="0" y="-37.9" width="299.75" height="75.8" style="fill: rgb(0, 0, 0); fill-opacity: 0;"/></g><g class="traces" transform="translate(0,118.69999999999999)" style="opacity: 1;"><text class="legendtext" text-anchor="start" x="40" y="-7.28" style="font-family: 'Avenir Next LT Pro'; font-size: 28px; fill: rgb(0, 0, 0); fill-opacity: 1; white-space: pre;"><tspan class="line" dy="0em" x="40" y="-7.28">Levert fra brønner:</tspan><tspan class="line" dy="1.3em" x="40" y="-7.28">17 409 kWh/år | 3 kW</tspan></text><g class="layers"><g class="legendfill"><path class="js-fill" d="M5,-2h30v6h-30z" style="stroke-width: 0; fill: rgb(72, 162, 63); fill-opacity: 0.5;"/></g><g class="legendlines"><path class="js-line" d="M5,-2h30" style="fill: none; stroke: rgb(72, 162, 63); stroke-opacity: 1; stroke-width: 0px;"/></g><g class="legendsymbols"><g class="legendpoints"/></g></g><rect class="legendtoggle" x="0" y="-37.9" width="299.75" height="75.8" style="fill: rgb(0, 0, 0); fill-opacity: 0;"/></g><g class="traces" transform="translate(0,194.5)" style="opacity: 1;"><text class="legendtext" text-anchor="start" x="40" y="-7.28" style="font-family: 'Avenir Next LT Pro'; font-size: 28px; fill: rgb(0, 0, 0); fill-opacity: 1; white-space: pre;"><tspan class="line" dy="0em" x="40" y="-7.28">Strøm til varmepumpe:</tspan><tspan class="line" dy="1.3em" x="40" y="-7.28">6 964 kWh/år | 1 kW</tspan></text><g class="layers"><g class="legendfill"><path class="js-fill" d="M5,-2h30v6h-30z" style="stroke-width: 0; fill: rgb(29, 60, 52); fill-opacity: 0.5;"/></g><g class="legendlines"><path class="js-line" d="M5,-2h30" style="fill: none; stroke: rgb(29, 60, 52); stroke-opacity: 1; stroke-width: 0px;"/></g><g class="legendsymbols"><g class="legendpoints"/></g></g><rect class="legendtoggle" x="0" y="-37.9" width="299.75" height="75.8" style="fill: rgb(0, 0, 0); fill-opacity: 0;"/></g></g></g><rect class="scrollbar" rx="20" ry="3" width="0" height="0" x="0" y="0" style="fill: rgb(128, 139, 164); fill-opacity: 1;"/></g><g class="g-gtitle"/><g class="g-xtitle" transform="translate(0,-20)"><text class="xtitle" x="800" y="914" text-anchor="middle" style="font-family: 'Avenir Next LT Pro'; font-size: 28px; fill: rgb(0, 0, 0); opacity: 1; font-weight: normal; white-space: pre;">Varighet [timer]</text></g><g class="g-ytitle" transform="translate(11,0)"><text class="ytitle" transform="rotate(-90,14,460)" x="14" y="460" text-anchor="middle" style="font-family: 'Avenir Next LT Pro'; font-size: 28px; fill: rgb(0, 0, 0); opacity: 1; font-weight: normal; white-space: pre;">Effekt [kW]</text></g></g></svg>