<svg class="main-svg" xmlns="http://www.w3.org/2000/svg" xmlns:xlink="http://www.w3.org/1999/xlink" width="700" height="500" style="" viewBox="0 0 700 500"><rect x="0" y="0" width="700" height="500" style="fill: rgb(255, 255, 255); fill-opacity: 1;"/><defs id="defs-93c9a4"><g class="clips"><clipPath id="clip93c9a4xyplot" class="plotclip"><rect width="600" height="480"/></clipPath><clipPath class="axesclip" id="clip93c9a4x"><rect x="50" y="0" width="600" height="500"/></clipPath><clipPath class="axesclip" id="clip93c9a4y"><rect x="0" y="10" width="700" height="480"/></clipPath><clipPath class="axesclip" id="clip93c9a4xy"><rect x="50" y="10" width="600" height="480"/></clipPath></g><g class="gradients"/><g class="patterns"/></defs><g class="bglayer"><rect class="bg" x="50" y="10" width="600" height="480" style="fill: rgb(255, 255, 255); fill-opacity: 1; stroke-width: 0;"/></g><g class="layer-below"><g class="imagelayer"/><g class="shapelayer"/></g><g class="cartesianlayer"><g class="subplot xy"><g class="layer-subplot"><g class="shapelayer"/><g class="imagelayer"/></g><g class="minor-gridlayer"><g class="x"/><g class="y"/></g><g class="gridlayer"><g class="x"><path class="xgrid crisp" transform="translate(186.99,0)" d="M0,10v480" style="stroke: rgb(211, 211, 211); stroke-opacity: 1; stroke-width: 1px;"/><path class="xgrid crisp" transform="translate(323.97,0)" d="M0,10v480" style="stroke: rgb(211, 211, 211); stroke-opacity: 1; stroke-width: 1px;"/><path class="xgrid crisp" transform="translate(460.96,0)" d="M0,10v480" style="stroke: rgb(211, 211, 211); stroke-opacity: 1; stroke-width: 1px;"/><path class="xgrid crisp" transform="translate(597.95,0)" d="M0,10v480" style="stroke: rgb(211, 211, 211); stroke-opacity: 1; stroke-width: 1px;"/></g><g class="y"><path class="ygrid crisp" transform="translate(0,426.34)" d="M50,0h600" style="stroke: rgb(211, 211, 211); stroke-opacity: 1; stroke-width: 1px;"/><path class="ygrid crisp" transform="translate(0,362.68)" d="M50,0h600" style="stroke: rgb(211, 211, 211); stroke-opacity: 1; stroke-width: 1px;"/><path class="ygrid crisp" transform="translate(0,299.02)" d="M50,0h600" style="stroke: rgb(211, 211, 211); stroke-opacity: 1; stroke-width: 1px;"/><path class="ygrid crisp" transform="translate(0,235.36)" d="M50,0h600" style="stroke: rgb(211, 211, 211); stroke-opacity: 1; stroke-width: 1px;"/><path class="ygrid crisp" transform="translate(0,171.7)" d="M50,0h600" style="stroke: rgb(211, 211, 211); stroke-opacity: 1; stroke-width: 1px;"/><path class="ygrid crisp" transform="translate(0,108.04)" d="M50,0h600" style="stroke: rgb(211, 211, 211); stroke-opacity: 1; stroke-width: 1px;"/><path class="ygrid crisp" transform="translate(0,44.38)" d="M50,0h600" style="stroke: rgb(211, 211, 211); stroke-opacity: 1; stroke-width: 1px;"/></g></g><g class="zerolinelayer"><path class="yzl zl crisp" transform="translate(0,490)" d="M50,0h600" style="stroke: rgb(68, 68, 68); stroke-opacity: 1; stroke-width: 1px;"/></g><path class="xlines-below"/><path class="ylines-below"/><g class="overlines-below"/><g class="xaxislayer-below"/><g class="yaxislayer-below"/><g class="overaxes-below"/><g class="plot" transform="translate(50,10)" clip-path="url(#clip93c9a4xyplot)"><g class="scatterlayer mlayer"><g class="trace scatter tracef33e2c" style="stroke-miterlimit: 2;"><g class="fills"><g><path class="js-fill" d="M599.93,480L0,480L0,421.8L196.16,422.55L196.23,422.57L205,423.73L205.07,423.75L214.45,424.92L214.52,424.92L226.51,426.24L226.58,426.25L241.1,427.72L241.16,427.73L249.73,428.88L249.79,428.9L279.66,432.47L279.73,432.47L293.15,433.88L293.22,433.9L336.71,439.68L336.78,439.68L349.73,441.65L349.79,441.67L359.52,443.35L359.59,443.36L362.26,443.88L362.33,443.88L384.11,449.54L384.18,449.59L389.11,450.81L389.18,450.85L398.01,452.92L398.08,452.92L401.03,453.66L401.1,453.7L404.79,454.89L404.86,454.89L408.7,455.64L408.77,455.74L411.99,456.08L412.05,456.08L426.3,456.82L426.37,456.87L428.36,457.05L428.42,457.05L445.55,457.77L445.62,457.82L447.88,457.92L447.95,457.92L472.05,458.67L472.12,458.68L473.49,458.82L473.56,458.82L492.88,459.57L492.95,459.63L536.78,462.13L536.85,462.17L541.37,463.02L541.44,463.02L555.96,463.75L556.03,463.81L564.04,464.26L564.11,464.26L586.85,464.99L586.92,465.31L587.81,465.7L587.88,465.7L590.14,466.45L590.21,466.74L591.78,467.45L591.85,467.53L592.81,468.05L592.88,468.05L593.49,468.38L593.56,468.91L594.52,469.36L594.59,469.36L599.86,470L599.93,471.17" style="fill: rgb(29, 60, 52); fill-opacity: 0.5; stroke-width: 0;"/></g><g><path class="js-fill" d="M0,276.29L191.44,277.01L191.51,277.07L202.67,281.68L202.74,281.83L205.96,283.74L206.03,283.74L207.05,284.3L207.12,284.33L210.41,285.7L210.48,285.79L224.59,291.08L224.66,291.08L226.99,291.98L227.05,292.11L231.03,293.39L231.1,293.45L235.34,295.02L235.41,295.06L241.44,297.12L241.51,297.13L243.7,298.05L243.77,298.06L246.3,299.27L246.37,299.32L252.19,302.27L252.26,302.31L280.14,313.78L280.21,313.79L300.82,322.37L300.89,322.46L305.82,324.62L305.89,324.68L317.19,329.62L317.26,329.62L320.41,331.1L320.48,331.16L324.25,333.42L324.32,333.61L326.99,334.81L327.05,334.83L340.68,340.64L340.75,340.81L342.74,341.86L342.81,341.86L345.27,343.24L345.34,343.27L351.03,346.47L351.1,346.53L356.03,349.75L356.1,349.77L358.42,351.17L358.49,351.21L369.52,358.17L369.59,358.31L371.99,360.59L372.05,360.81L375.07,363.35L375.14,363.51L383.77,373.03L383.84,373.2L391.44,381L391.51,381.25L392.67,382.44L392.74,382.55L395.48,385.23L395.55,385.23L399.93,385.93L400,386.03L402.6,390.52L402.67,390.53L403.97,392.12L404.04,392.12L407.67,392.84L407.74,392.96L409.25,395.35L409.32,395.35L411.3,395.93L411.37,396.11L412.53,396.26L412.6,396.26L417.19,396.93L417.26,397.28L418.63,397.61L418.7,397.61L426.16,398.32L426.23,398.62L427.26,399.66L427.33,399.66L429.32,400.23L429.38,400.56L443.63,401.74L443.7,401.81L444.79,401.99L444.86,401.99L448.29,402.74L448.36,402.94L449.45,403.29L449.52,403.29L469.32,403.94L469.38,404.28L470.75,405.18L470.82,405.18L474.04,405.87L474.11,405.99L475.55,406.84L475.62,406.84L478.84,407.48L478.9,407.77L492.88,408.5L492.95,408.69L495.48,408.78L495.55,409.7L496.71,410.31L496.78,410.31L507.33,411.04L507.4,411.28L511.37,411.32L511.44,411.32L516.71,412L516.78,412.26L517.67,413.33L517.74,413.33L518.56,413.92L518.63,414.13L530.41,414.82L530.48,415.47L532.88,415.85L532.95,415.85L533.7,416.6L533.77,416.61L534.66,416.89L534.73,416.89L536.92,417.62L536.99,417.79L539.38,419.51L539.45,420.55L545.96,421.26L546.03,421.37L549.32,422.11L549.38,422.19L554.45,422.89L554.52,422.99L558.77,423.7L558.84,424.18L559.59,424.6L559.66,424.6L571.44,425.35L571.51,425.42L572.74,425.53L572.81,425.53L579.66,426.19L579.73,426.47L584.04,427.21L584.11,427.32L585.68,427.47L585.75,427.47L586.85,427.47L586.92,428.59L587.74,429.97L587.81,429.97L588.49,430.59L588.56,431.71L590,432.37L590.07,432.53L590.96,433.6L591.03,433.6L591.58,433.62L591.64,434.46L592.53,438.16L592.6,438.16L593.42,438.74L593.49,439.33L594.32,442.77L594.38,442.77L596.3,442.88L596.37,444.49L599.86,445.02L599.93,449.1L599.93,471.17L599.86,470L594.59,469.36L594.52,469.36L593.56,468.91L593.49,468.38L592.88,468.05L592.81,468.05L591.85,467.53L591.78,467.45L590.21,466.74L590.14,466.45L587.88,465.7L587.81,465.7L586.92,465.31L586.85,464.99L564.11,464.26L564.04,464.26L556.03,463.81L555.96,463.75L541.44,463.02L541.37,463.02L536.85,462.17L536.78,462.13L492.95,459.63L492.88,459.57L473.56,458.82L473.49,458.82L472.12,458.68L472.05,458.67L447.95,457.92L447.88,457.92L445.62,457.82L445.55,457.77L428.42,457.05L428.36,457.05L426.37,456.87L426.3,456.82L412.05,456.08L411.99,456.08L408.77,455.74L408.7,455.64L404.86,454.89L404.79,454.89L401.1,453.7L401.03,453.66L398.08,452.92L398.01,452.92L389.18,450.85L389.11,450.81L384.18,449.59L384.11,449.54L362.33,443.88L362.26,443.88L359.59,443.36L359.52,443.35L349.79,441.67L349.73,441.65L336.78,439.68L336.71,439.68L293.22,433.9L293.15,433.88L279.73,432.47L279.66,432.47L249.79,428.9L249.73,428.88L241.16,427.73L241.1,427.72L226.58,426.25L226.51,426.24L214.52,424.92L214.45,424.92L205.07,423.75L205,423.73L196.23,422.57L196.16,422.55L0,421.8Z" style="fill: rgb(72, 162, 63); fill-opacity: 0.5; stroke-width: 0;"/></g></g><g class="errorbars"/><g class="lines"><path class="js-line" d="M0,421.8L196.16,422.55L196.23,422.57L205,423.73L205.07,423.75L214.45,424.92L214.52,424.92L226.51,426.24L226.58,426.25L241.1,427.72L241.16,427.73L249.73,428.88L249.79,428.9L279.66,432.47L279.73,432.47L293.15,433.88L293.22,433.9L336.71,439.68L336.78,439.68L349.73,441.65L349.79,441.67L359.52,443.35L359.59,443.36L362.26,443.88L362.33,443.88L384.11,449.54L384.18,449.59L389.11,450.81L389.18,450.85L398.01,452.92L398.08,452.92L401.03,453.66L401.1,453.7L404.79,454.89L404.86,454.89L408.7,455.64L408.77,455.74L411.99,456.08L412.05,456.08L426.3,456.82L426.37,456.87L428.36,457.05L428.42,457.05L445.55,457.77L445.62,457.82L447.88,457.92L447.95,457.92L472.05,458.67L472.12,458.68L473.49,458.82L473.56,458.82L492.88,459.57L492.95,459.63L536.78,462.13L536.85,462.17L541.37,463.02L541.44,463.02L555.96,463.75L556.03,463.81L564.04,464.26L564.11,464.26L586.85,464.99L586.92,465.31L587.81,465.7L587.88,465.7L590.14,466.45L590.21,466.74L591.78,467.45L591.85,467.53L592.81,468.05L592.88,468.05L593.49,468.38L593.56,468.91L594.52,469.36L594.59,469.36L599.86,470L599.93,471.17" style="vector-effect: none; fill: none; stroke: rgb(29, 60, 52); stroke-opacity: 1; stroke-width: 0px; opacity: 1;"/></g><g class="points"/><g class="text"/></g><g class="trace scatter tracebe2e67" style="stroke-miterlimit: 2;"><g class="fills"><g><path class="js-fill" d="M0,24L0.96,105.53L1.03,106.88L1.23,107.99L1.3,110.47L2.81,125.16L2.88,125.17L4.86,139.18L4.93,140.9L6.71,147.62L6.78,147.88L11.23,161.02L11.3,161.12L18.29,176.42L18.36,176.44L20.48,179.49L20.55,179.62L24.79,184.84L24.86,184.85L32.74,191.76L32.81,191.77L34.73,192.8L34.79,192.84L42.33,199.65L42.4,199.74L43.63,200.85L43.7,200.88L45.75,202.84L45.82,202.98L48.56,204.93L48.63,205.01L50.41,206.57L50.48,206.62L52.26,208.49L52.33,208.55L56.37,211.41L56.44,211.43L57.95,212.55L58.01,212.6L59.25,213.07L59.32,213.08L61.78,214.79L61.85,214.79L67.6,218.46L67.67,218.53L71.71,221.16L71.78,221.18L73.9,222.56L73.97,222.63L75.82,223.69L75.89,223.8L77.26,224.59L77.33,224.61L78.84,225.5L78.9,225.57L81.64,226.97L81.71,227.03L82.67,227.49L82.74,227.5L99.86,236.69L99.93,236.7L101.64,237.65L101.71,237.67L109.18,241.54L109.25,241.64L113.63,243.58L113.7,243.61L118.29,245.73L118.36,245.75L121.1,247.1L121.16,247.11L124.04,248.47L124.11,248.62L184.93,274.4L185,274.42L193.42,277.85L193.49,277.85L198.29,279.77L198.36,279.77L201.64,281.18L201.71,281.19L206.03,283.74L206.1,283.91L210.41,285.7L210.48,285.79L224.59,291.08L224.66,291.08L226.99,291.98L227.05,292.11L231.03,293.39L231.1,293.45L235.34,295.02L235.41,295.06L241.44,297.12L241.51,297.13L243.7,298.05L243.77,298.06L246.3,299.27L246.37,299.32L252.19,302.27L252.26,302.31L280.14,313.78L280.21,313.79L300.82,322.37L300.89,322.46L305.82,324.62L305.89,324.68L317.19,329.62L317.26,329.62L320.41,331.1L320.48,331.16L324.25,333.42L324.32,333.61L326.99,334.81L327.05,334.83L340.68,340.64L340.75,340.81L342.74,341.86L342.81,341.86L345.27,343.24L345.34,343.27L351.03,346.47L351.1,346.53L356.03,349.75L356.1,349.77L358.42,351.17L358.49,351.21L369.52,358.17L369.59,358.31L371.99,360.59L372.05,360.81L375.07,363.35L375.14,363.51L383.77,373.03L383.84,373.2L391.44,381L391.51,381.25L392.67,382.44L392.74,382.55L395.48,385.23L395.55,385.23L399.93,385.93L400,386.03L402.6,390.52L402.67,390.53L403.97,392.12L404.04,392.12L407.67,392.84L407.74,392.96L409.25,395.35L409.32,395.35L411.3,395.93L411.37,396.11L412.53,396.26L412.6,396.26L417.19,396.93L417.26,397.28L418.63,397.61L418.7,397.61L426.16,398.32L426.23,398.62L427.26,399.66L427.33,399.66L429.32,400.23L429.38,400.56L443.63,401.74L443.7,401.81L444.79,401.99L444.86,401.99L448.29,402.74L448.36,402.94L449.45,403.29L449.52,403.29L469.32,403.94L469.38,404.28L470.75,405.18L470.82,405.18L474.04,405.87L474.11,405.99L475.55,406.84L475.62,406.84L478.84,407.48L478.9,407.77L492.88,408.5L492.95,408.69L495.48,408.78L495.55,409.7L496.71,410.31L496.78,410.31L507.33,411.04L507.4,411.28L511.37,411.32L511.44,411.32L516.71,412L516.78,412.26L517.67,413.33L517.74,413.33L518.56,413.92L518.63,414.13L530.41,414.82L530.48,415.47L532.88,415.85L532.95,415.85L533.7,416.6L533.77,416.61L534.66,416.89L534.73,416.89L536.92,417.62L536.99,417.79L539.38,419.51L539.45,420.55L545.96,421.26L546.03,421.37L549.32,422.11L549.38,422.19L554.45,422.89L554.52,422.99L558.77,423.7L558.84,424.18L559.59,424.6L559.66,424.6L571.44,425.35L571.51,425.42L572.74,425.53L572.81,425.53L579.66,426.19L579.73,426.47L584.04,427.21L584.11,427.32L585.68,427.47L585.75,427.47L586.85,427.47L586.92,428.59L587.74,429.97L587.81,429.97L588.49,430.59L588.56,431.71L590,432.37L590.07,432.53L590.96,433.6L591.03,433.6L591.58,433.62L591.64,434.46L592.53,438.16L592.6,438.16L593.42,438.74L593.49,439.33L594.32,442.77L594.38,442.77L596.3,442.88L596.37,444.49L599.86,445.02L599.93,449.1L599.93,449.1L599.86,445.02L596.37,444.49L596.3,442.88L594.38,442.77L594.32,442.77L593.49,439.33L593.42,438.74L592.6,438.16L592.53,438.16L591.64,434.46L591.58,433.62L591.03,433.6L590.96,433.6L590.07,432.53L590,432.37L588.56,431.71L588.49,430.59L587.81,429.97L587.74,429.97L586.92,428.59L586.85,427.47L585.75,427.47L585.68,427.47L584.11,427.32L584.04,427.21L579.73,426.47L579.66,426.19L572.81,425.53L572.74,425.53L571.51,425.42L571.44,425.35L559.66,424.6L559.59,424.6L558.84,424.18L558.77,423.7L554.52,422.99L554.45,422.89L549.38,422.19L549.32,422.11L546.03,421.37L545.96,421.26L539.45,420.55L539.38,419.51L536.99,417.79L536.92,417.62L534.73,416.89L534.66,416.89L533.77,416.61L533.7,416.6L532.95,415.85L532.88,415.85L530.48,415.47L530.41,414.82L518.63,414.13L518.56,413.92L517.74,413.33L517.67,413.33L516.78,412.26L516.71,412L511.44,411.32L511.37,411.32L507.4,411.28L507.33,411.04L496.78,410.31L496.71,410.31L495.55,409.7L495.48,408.78L492.95,408.69L492.88,408.5L478.9,407.77L478.84,407.48L475.62,406.84L475.55,406.84L474.11,405.99L474.04,405.87L470.82,405.18L470.75,405.18L469.38,404.28L469.32,403.94L449.52,403.29L449.45,403.29L448.36,402.94L448.29,402.74L444.86,401.99L444.79,401.99L443.7,401.81L443.63,401.74L429.38,400.56L429.32,400.23L427.33,399.66L427.26,399.66L426.23,398.62L426.16,398.32L418.7,397.61L418.63,397.61L417.26,397.28L417.19,396.93L412.6,396.26L412.53,396.26L411.37,396.11L411.3,395.93L409.32,395.35L409.25,395.35L407.74,392.96L407.67,392.84L404.04,392.12L403.97,392.12L402.67,390.53L402.6,390.52L400,386.03L399.93,385.93L395.55,385.23L395.48,385.23L392.74,382.55L392.67,382.44L391.51,381.25L391.44,381L383.84,373.2L383.77,373.03L375.14,363.51L375.07,363.35L372.05,360.81L371.99,360.59L369.59,358.31L369.52,358.17L358.49,351.21L358.42,351.17L356.1,349.77L356.03,349.75L351.1,346.53L351.03,346.47L345.34,343.27L345.27,343.24L342.81,341.86L342.74,341.86L340.75,340.81L340.68,340.64L327.05,334.83L326.99,334.81L324.32,333.61L324.25,333.42L320.48,331.16L320.41,331.1L317.26,329.62L317.19,329.62L305.89,324.68L305.82,324.62L300.89,322.46L300.82,322.37L280.21,313.79L280.14,313.78L252.26,302.31L252.19,302.27L246.37,299.32L246.3,299.27L243.77,298.06L243.7,298.05L241.51,297.13L241.44,297.12L235.41,295.06L235.34,295.02L231.1,293.45L231.03,293.39L227.05,292.11L226.99,291.98L224.66,291.08L224.59,291.08L210.48,285.79L210.41,285.7L207.12,284.33L207.05,284.3L206.03,283.74L205.96,283.74L202.74,281.83L202.67,281.68L191.51,277.07L191.44,277.01L0,276.29Z" style="fill: rgb(255, 195, 88); fill-opacity: 0.5; stroke-width: 0;"/></g></g><g class="errorbars"/><g class="lines"><path class="js-line" d="M0,276.29L191.44,277.01L191.51,277.07L202.67,281.68L202.74,281.83L205.96,283.74L206.03,283.74L207.05,284.3L207.12,284.33L210.41,285.7L210.48,285.79L224.59,291.08L224.66,291.08L226.99,291.98L227.05,292.11L231.03,293.39L231.1,293.45L235.34,295.02L235.41,295.06L241.44,297.12L241.51,297.13L243.7,298.05L243.77,298.06L246.3,299.27L246.37,299.32L252.19,302.27L252.26,302.31L280.14,313.78L280.21,313.79L300.82,322.37L300.89,322.46L305.82,324.62L305.89,324.68L317.19,329.62L317.26,329.62L320.41,331.1L320.48,331.16L324.25,333.42L324.32,333.61L326.99,334.81L327.05,334.83L340.68,340.64L340.75,340.81L342.74,341.86L342.81,341.86L345.27,343.24L345.34,343.27L351.03,346.47L351.1,346.53L356.03,349.75L356.1,349.77L358.42,351.17L358.49,351.21L369.52,358.17L369.59,358.31L371.99,360.59L372.05,360.81L375.07,363.35L375.14,363.51L383.77,373.03L383.84,373.2L391.44,381L391.51,381.25L392.67,382.44L392.74,382.55L395.48,385.23L395.55,385.23L399.93,385.93L400,386.03L402.6,390.52L402.67,390.53L403.97,392.12L404.04,392.12L407.67,392.84L407.74,392.96L409.25,395.35L409.32,395.35L411.3,395.93L411.37,396.11L412.53,396.26L412.6,396.26L417.19,396.93L417.26,397.28L418.63,397.61L418.7,397.61L426.16,398.32L426.23,398.62L427.26,399.66L427.33,399.66L429.32,400.23L429.38,400.56L443.63,401.74L443.7,401.81L444.79,401.99L444.86,401.99L448.29,402.74L448.36,402.94L449.45,403.29L449.52,403.29L469.32,403.94L469.38,404.28L470.75,405.18L470.82,405.18L474.04,405.87L474.11,405.99L475.55,406.84L475.62,406.84L478.84,407.48L478.9,407.77L492.88,408.5L492.95,408.69L495.48,408.78L495.55,409.7L496.71,410.31L496.78,410.31L507.33,411.04L507.4,411.28L511.37,411.32L511.44,411.32L516.71,412L516.78,412.26L517.67,413.33L517.74,413.33L518.56,413.92L518.63,414.13L530.41,414.82L530.48,415.47L532.88,415.85L532.95,415.85L533.7,416.6L533.77,416.61L534.66,416.89L534.73,416.89L536.92,417.62L536.99,417.79L539.38,419.51L539.45,420.55L545.96,421.26L546.03,421.37L549.32,422.11L549.38,422.19L554.45,422.89L554.52,422.99L558.77,423.7L558.84,424.18L559.59,424.6L559.66,424.6L571.44,425.35L571.51,425.42L572.74,425.53L572.81,425.53L579.66,426.19L579.73,426.47L584.04,427.21L584.11,427.32L585.68,427.47L585.75,427.47L586.85,427.47L586.92,428.59L587.74,429.97L587.81,429.97L588.49,430.59L588.56,431.71L590,432.37L590.07,432.53L590.96,433.6L591.03,433.6L591.58,433.62L591.64,434.46L592.53,438.16L592.6,438.16L593.42,438.74L593.49,439.33L594.32,442.77L594.38,442.77L596.3,442.88L596.37,444.49L599.86,445.02L599.93,449.1" style="vector-effect: none; fill: none; stroke: rgb(72, 162, 63); stroke-opacity: 1; stroke-width: 0px; opacity: 1;"/></g><g class="points"/><g class="text"/></g><g class="trace scatter trace322b10" style="stroke-miterlimit: 2;"><g class="fills"/><g class="errorbars"/><g class="lines"><path class="js-line" d="M0,24L0.96,105.53L1.03,106.88L1.23,107.99L1.3,110.47L2.81,125.16L2.88,125.17L4.86,139.18L4.93,140.9L6.71,147.62L6.78,147.88L11.23,161.02L11.3,161.12L18.29,176.42L18.36,176.44L20.48,179.49L20.55,179.62L24.79,184.84L24.86,184.85L32.74,191.76L32.81,191.77L34.73,192.8L34.79,192.84L42.33,199.65L42.4,199.74L43.63,200.85L43.7,200.88L45.75,202.84L45.82,202.98L48.56,204.93L48.63,205.01L50.41,206.57L50.48,206.62L52.26,208.49L52.33,208.55L56.37,211.41L56.44,211.43L57.95,212.55L58.01,212.6L59.25,213.07L59.32,213.08L61.78,214.79L61.85,214.79L67.6,218.46L67.67,218.53L71.71,221.16L71.78,221.18L73.9,222.56L73.97,222.63L75.82,223.69L75.89,223.8L77.26,224.59L77.33,224.61L78.84,225.5L78.9,225.57L81.64,226.97L81.71,227.03L82.67,227.49L82.74,227.5L99.86,236.69L99.93,236.7L101.64,237.65L101.71,237.67L109.18,241.54L109.25,241.64L113.63,243.58L113.7,243.61L118.29,245.73L118.36,245.75L121.1,247.1L121.16,247.11L124.04,248.47L124.11,248.62L184.93,274.4L185,274.42L193.42,277.85L193.49,277.85L198.29,279.77L198.36,279.77L201.64,281.18L201.71,281.19L206.03,283.74L206.1,283.91L210.41,285.7L210.48,285.79L224.59,291.08L224.66,291.08L226.99,291.98L227.05,292.11L231.03,293.39L231.1,293.45L235.34,295.02L235.41,295.06L241.44,297.12L241.51,297.13L243.7,298.05L243.77,298.06L246.3,299.27L246.37,299.32L252.19,302.27L252.26,302.31L280.14,313.78L280.21,313.79L300.82,322.37L300.89,322.46L305.82,324.62L305.89,324.68L317.19,329.62L317.26,329.62L320.41,331.1L320.48,331.16L324.25,333.42L324.32,333.61L326.99,334.81L327.05,334.83L340.68,340.64L340.75,340.81L342.74,341.86L342.81,341.86L345.27,343.24L345.34,343.27L351.03,346.47L351.1,346.53L356.03,349.75L356.1,349.77L358.42,351.17L358.49,351.21L369.52,358.17L369.59,358.31L371.99,360.59L372.05,360.81L375.07,363.35L375.14,363.51L383.77,373.03L383.84,373.2L391.44,381L391.51,381.25L392.67,382.44L392.74,382.55L395.48,385.23L395.55,385.23L399.93,385.93L400,386.03L402.6,390.52L402.67,390.53L403.97,392.12L404.04,392.12L407.67,392.84L407.74,392.96L409.25,395.35L409.32,395.35L411.3,395.93L411.37,396.11L412.53,396.26L412.6,396.26L417.19,396.93L417.26,397.28L418.63,397.61L418.7,397.61L426.16,398.32L426.23,398.62L427.26,399.66L427.33,399.66L429.32,400.23L429.38,400.56L443.63,401.74L443.7,401.81L444.79,401.99L444.86,401.99L448.29,402.74L448.36,402.94L449.45,403.29L449.52,403.29L469.32,403.94L469.38,404.28L470.75,405.18L470.82,405.18L474.04,405.87L474.11,405.99L475.55,406.84L475.62,406.84L478.84,407.48L478.9,407.77L492.88,408.5L492.95,408.69L495.48,408.78L495.55,409.7L496.71,410.31L496.78,410.31L507.33,411.04L507.4,411.28L511.37,411.32L511.44,411.32L516.71,412L516.78,412.26L517.67,413.33L517.74,413.33L518.56,413.92L518.63,414.13L530.41,414.82L530.48,415.47L532.88,415.85L532.95,415.85L533.7,416.6L533.77,416.61L534.66,416.89L534.73,416.89L536.92,417.62L536.99,417.79L539.38,419.51L539.45,420.55L545.96,421.26L546.03,421.37L549.32,422.11L549.38,422.19L554.45,422.89L554.52,422.99L558.77,423.7L558.84,424.18L559.59,424.6L559.66,424.6L571.44,425.35L571.51,425.42L572.74,425.53L572.81,425.53L579.66,426.19L579.73,426.47L584.04,427.21L584.11,427.32L585.68,427.47L585.75,427.47L586.85,427.47L586.92,428.59L587.74,429.97L587.81,429.97L588.49,430.59L588.56,431.71L590,432.37L590.07,432.53L590.96,433.6L591.03,433.6L591.58,433.62L591.64,434.46L592.53,438.16L592.6,438.16L593.42,438.74L593.49,439.33L594.32,442.77L594.38,442.77L596.3,442.88L596.37,444.49L599.86,445.02L599.93,449.1" style="vector-effect: none; fill: none; stroke: rgb(255, 195, 88); stroke-opacity: 1; stroke-width: 0px; opacity: 1;"/></g><g class="points"/><g class="text"/></g></g></g><g class="overplot"/><path class="xlines-above crisp" d="M49,490.5H650" style="fill: none; stroke-width: 1px; stroke: rgb(0, 0, 0); stroke-opacity: 1;"/><path class="ylines-above crisp" d="M49.5,10V490" style="fill: none; stroke-width: 1px; stroke: rgb(0, 0, 0); stroke-opacity: 1;"/><g class="overlines-above"/><g class="xaxislayer-above"><path class="xtick ticks crisp" d="M0,491v5" transform="translate(50,0)" style="stroke: rgb(68, 68, 68); stroke-opacity: 1; stroke-width: 1px;"/><path class="xtick ticks crisp" d="M0,491v5" transform="translate(186.99,0)" style="stroke: rgb(68, 68, 68); stroke-opacity: 1; stroke-width: 1px;"/><path class="xtick ticks crisp" d="M0,491v5" transform="translate(323.97,0)" style="stroke: rgb(68, 68, 68); stroke-opacity: 1; stroke-width: 1px;"/><path class="xtick ticks crisp" d="M0,491v5" transform="translate(460.96,0)" style="stroke: rgb(68, 68, 68); stroke-opacity: 1; stroke-width: 1px;"/><path class="xtick ticks crisp" d="M0,491v5" transform="translate(597.95,0)" style="stroke: rgb(68, 68, 68); stroke-opacity: 1; stroke-width: 1px;"/><g class="xtick"><text text-anchor="middle" x="0" y="520" transform="translate(50,0)" style="font-family: 'Open Sans', verdana, arial, sans-serif; font-size: 20px; fill: rgb(68, 68, 68); fill-opacity: 1; white-space: pre; opacity: 1;">0</text></g><g class="xtick"><text text-anchor="middle" x="0" y="520" style="font-family: 'Open Sans', verdana, arial, sans-serif; font-size: 20px; fill: rgb(68, 68, 68); fill-opacity: 1; white-space: pre; opacity: 1;" transform="translate(186.99,0)">2000</text></g><g class="xtick"><text text-anchor="middle" x="0" y="520" style="font-family: 'Open Sans', verdana, arial, sans-serif; font-size: 20px; fill: rgb(68, 68, 68); fill-opacity: 1; white-space: pre; opacity: 1;" transform="translate(323.97,0)">4000</text></g><g class="xtick"><text text-anchor="middle" x="0" y="520" style="font-family: 'Open Sans', verdana, arial, sans-serif; font-size: 20px; fill: rgb(68, 68, 68); fill-opacity: 1; white-space: pre; opacity: 1;" transform="translate(460.96,0)">6000</text></g><g class="xtick"><text text-anchor="middle" x="0" y="520" style="font-family: 'Open Sans', verdana, arial, sans-serif; font-size: 20px; fill: rgb(68, 68, 68); fill-opacity: 1; white-space: pre; opacity: 1;" transform="translate(597.95,0)">8000</text></g></g><g class="yaxislayer-above"><path class="ytick ticks crisp" d="M49,0h-5" transform="translate(0,490)" style="stroke: rgb(68, 68, 68); stroke-opacity: 1; stroke-width: 1px;"/><path class="ytick ticks crisp" d="M49,0h-5" transform="translate(0,426.34)" style="stroke: rgb(68, 68, 68); stroke-opacity: 1; stroke-width: 1px;"/><path class="ytick ticks crisp" d="M49,0h-5" transform="translate(0,362.68)" style="stroke: rgb(68, 68, 68); stroke-opacity: 1; stroke-width: 1px;"/><path class="ytick ticks crisp" d="M49,0h-5" transform="translate(0,299.02)" style="stroke: rgb(68, 68, 68); stroke-opacity: 1; stroke-width: 1px;"/><path class="ytick ticks crisp" d="M49,0h-5" transform="translate(0,235.36)" style="stroke: rgb(68, 68, 68); stroke-opacity: 1; stroke-width: 1px;"/><path class="ytick ticks crisp" d="M49,0h-5" transform="translate(0,171.7)" style="stroke: rgb(68, 68, 68); stroke-opacity: 1; stroke-width: 1px;"/><path class="ytick ticks crisp" d="M49,0h-5" transform="translate(0,108.04)" style="stroke: rgb(68, 68, 68); stroke-opacity: 1; stroke-width: 1px;"/><path class="ytick ticks crisp" d="M49,0h-5" transform="translate(0,44.38)" style="stroke: rgb(68, 68, 68); stroke-opacity: 1; stroke-width: 1px;"/><g class="ytick"><text text-anchor="end" x="40" y="7" transform="translate(0,490)" style="font-family: 'Open Sans', verdana, arial, sans-serif; font-size: 20px; fill: rgb(68, 68, 68); fill-opacity: 1; white-space: pre; opacity: 0;">0</text></g><g class="ytick"><text text-anchor="end" x="40" y="7" style="font-family: 'Open Sans', verdana, arial, sans-serif; font-size: 20px; fill: rgb(68, 68, 68); fill-opacity: 1; white-space: pre; opacity: 1;" transform="translate(0,426.34)">20</text></g><g class="ytick"><text text-anchor="end" x="40" y="7" style="font-family: 'Open Sans', verdana, arial, sans-serif; font-size: 20px; fill: rgb(68, 68, 68); fill-opacity: 1; white-space: pre; opacity: 1;" transform="translate(0,362.68)">40</text></g><g class="ytick"><text text-anchor="end" x="40" y="7" style="font-family: 'Open Sans', verdana, arial, sans-serif; font-size: 20px; fill: rgb(68, 68, 68); fill-opacity: 1; white-space: pre; opacity: 1;" transform="translate(0,299.02)">60</text></g><g class="ytick"><text text-anchor="end" x="40" y="7" style="font-family: 'Open Sans', verdana, arial, sans-serif; font-size: 20px; fill: rgb(68, 68, 68); fill-opacity: 1; white-space: pre; opacity: 1;" transform="translate(0,235.36)">80</text></g><g class="ytick"><text text-anchor="end" x="40" y="7" style="font-family: 'Open Sans', verdana, arial, sans-serif; font-size: 20px; fill: rgb(68, 68, 68); fill-opacity: 1; white-space: pre; opacity: 1;" transform="translate(0,171.7)">100</text></g><g class="ytick"><text text-anchor="end" x="40" y="7" style="font-family: 'Open Sans', verdana, arial, sans-serif; font-size: 20px; fill: rgb(68, 68, 68); fill-opacity: 1; white-space: pre; opacity: 1;" transform="translate(0,108.04)">120</text></g><g class="ytick"><text text-anchor="end" x="40" y="7" style="font-family: 'Open Sans', verdana, arial, sans-serif; font-size: 20px; fill: rgb(68, 68, 68); fill-opacity: 1; white-space: pre; opacity: 1;" transform="translate(0,44.38)">140</text></g></g><g class="overaxes-above"/></g></g><g class="polarlayer"/><g class="smithlayer"/><g class="ternarylayer"/><g class="geolayer"/><g class="funnelarealayer"/><g class="pielayer"/><g class="iciclelayer"/><g class="treemaplayer"/><g class="sunburstlayer"/><g class="glimages"/><defs id="topdefs-93c9a4"><g class="clips"/><clipPath id="legend93c9a4"><rect width="297" height="175" x="0" y="0"/></clipPath></defs><g class="layer-above"><g class="imagelayer"/><g class="shapelayer"/></g><g class="infolayer"><g class="legend" pointer-events="all" transform="translate(56,19.60000000000001)"><rect class="bg" shape-rendering="crispEdges" width="297" height="175" x="0" y="0" style="stroke: rgb(68, 68, 68); stroke-opacity: 1; fill: rgb(0, 0, 0); fill-opacity: 0; stroke-width: 0px;"/><g class="scrollbox" transform="" clip-path="url(#legend93c9a4)"><g class="groups"><g class="traces" transform="translate(0,32.5)" style="opacity: 1;"><text class="legendtext" text-anchor="start" x="40" y="-5.2" style="font-family: 'Open Sans', verdana, arial, sans-serif; font-size: 20px; fill: rgb(68, 68, 68); fill-opacity: 1; white-space: pre;"><tspan class="line" dy="0em" x="40" y="-5.2">Spisslast:</tspan><tspan class="line" dy="1.3em" x="40" y="-5.2">42 990 kWh/år | 79 kW</tspan></text><g class="layers"><g class="legendfill"><path class="js-fill" d="M5,-2h30v6h-30z" style="stroke-width: 0; fill: rgb(255, 195, 88); fill-opacity: 0.5;"/></g><g class="legendlines"><path class="js-line" d="M5,-2h30" style="fill: none; stroke: rgb(255, 195, 88); stroke-opacity: 1; stroke-width: 0px;"/></g><g class="legendsymbols"><g class="legendpoints"/></g></g><rect class="legendtoggle" x="0" y="-27.5" width="291.703125" height="55" style="fill: rgb(0, 0, 0); fill-opacity: 0;"/></g><g class="traces" transform="translate(0,87.5)" style="opacity: 1;"><text class="legendtext" text-anchor="start" x="40" y="-5.2" style="font-family: 'Open Sans', verdana, arial, sans-serif; font-size: 20px; fill: rgb(68, 68, 68); fill-opacity: 1; white-space: pre;"><tspan class="line" dy="0em" x="40" y="-5.2">Levert fra brønner:</tspan><tspan class="line" dy="1.3em" x="40" y="-5.2">279 357 kWh/år | 46 kW</tspan></text><g class="layers"><g class="legendfill"><path class="js-fill" d="M5,-2h30v6h-30z" style="stroke-width: 0; fill: rgb(72, 162, 63); fill-opacity: 0.5;"/></g><g class="legendlines"><path class="js-line" d="M5,-2h30" style="fill: none; stroke: rgb(72, 162, 63); stroke-opacity: 1; stroke-width: 0px;"/></g><g class="legendsymbols"><g class="legendpoints"/></g></g><rect class="legendtoggle" x="0" y="-27.5" width="291.703125" height="55" style="fill: rgb(0, 0, 0); fill-opacity: 0;"/></g><g class="traces" transform="translate(0,142.5)" style="opacity: 1;"><text class="legendtext" text-anchor="start" x="40" y="-5.2" style="font-family: 'Open Sans', verdana, arial, sans-serif; font-size: 20px; fill: rgb(68, 68, 68); fill-opacity: 1; white-space: pre;"><tspan class="line" dy="0em" x="40" y="-5.2">Strøm til varmepumpe:</tspan><tspan class="line" dy="1.3em" x="40" y="-5.2">111 743 kWh/år | 18 kW</tspan></text><g class="layers"><g class="legendfill"><path class="js-fill" d="M5,-2h30v6h-30z" style="stroke-width: 0; fill: rgb(29, 60, 52); fill-opacity: 0.5;"/></g><g class="legendlines"><path class="js-line" d="M5,-2h30" style="fill: none; stroke: rgb(29, 60, 52); stroke-opacity: 1; stroke-width: 0px;"/></g><g class="legendsymbols"><g class="legendpoints"/></g></g><rect class="legendtoggle" x="0" y="-27.5" width="291.703125" height="55" style="fill: rgb(0, 0, 0); fill-opacity: 0;"/></g></g></g><rect class="scrollbar" rx="20" ry="3" width="0" height="0" x="0" y="0" style="fill: rgb(128, 139, 164); fill-opacity: 1;"/></g><g class="g-gtitle"/><g class="g-xtitle" transform="translate(0,-64)"><text class="xtitle" x="350" y="560" text-anchor="middle" style="font-family: 'Open Sans', verdana, arial, sans-serif; font-size: 20px; fill: rgb(68, 68, 68); opacity: 1; font-weight: normal; white-space: pre;">Varighet [timer]</text></g><g class="g-ytitle" transform="translate(20,0)"><text class="ytitle" transform="rotate(-90,0,250)" x="0" y="250" text-anchor="middle" style="font-family: 'Open Sans', verdana, arial, sans-serif; font-size: 20px; fill: rgb(68, 68, 68); opacity: 1; font-weight: normal; white-space: pre;">Effekt [kW]</text></g></g></svg>