<svg class="main-svg" xmlns="http://www.w3.org/2000/svg" xmlns:xlink="http://www.w3.org/1999/xlink" width="1600" height="900" style="" viewBox="0 0 1600 900"><rect x="0" y="0" width="1600" height="900" style="fill: rgb(255, 255, 255); fill-opacity: 1;"/><defs id="defs-68592c"><g class="clips"><clipPath id="clip68592cxyplot" class="plotclip"><rect width="1440" height="720"/></clipPath><clipPath class="axesclip" id="clip68592cx"><rect x="80" y="0" width="1440" height="900"/></clipPath><clipPath class="axesclip" id="clip68592cy"><rect x="0" y="100" width="1600" height="720"/></clipPath><clipPath class="axesclip" id="clip68592cxy"><rect x="80" y="100" width="1440" height="720"/></clipPath></g><g class="gradients"/><g class="patterns"/></defs><g class="bglayer"><rect class="bg" x="80" y="100" width="1440" height="720" style="fill: rgb(255, 255, 255); fill-opacity: 1; stroke-width: 0;"/></g><g class="layer-below"><g class="imagelayer"/><g class="shapelayer"/></g><g class="cartesianlayer"><g class="subplot xy"><g class="layer-subplot"><g class="shapelayer"/><g class="imagelayer"/></g><g class="minor-gridlayer"><g class="x"/><g class="y"/></g><g class="gridlayer"><g class="x"><path class="xgrid crisp" transform="translate(244.38,0)" d="M0,100v720" style="stroke: rgb(211, 211, 211); stroke-opacity: 1; stroke-width: 1px;"/><path class="xgrid crisp" transform="translate(408.77,0)" d="M0,100v720" style="stroke: rgb(211, 211, 211); stroke-opacity: 1; stroke-width: 1px;"/><path class="xgrid crisp" transform="translate(573.15,0)" d="M0,100v720" style="stroke: rgb(211, 211, 211); stroke-opacity: 1; stroke-width: 1px;"/><path class="xgrid crisp" transform="translate(737.53,0)" d="M0,100v720" style="stroke: rgb(211, 211, 211); stroke-opacity: 1; stroke-width: 1px;"/><path class="xgrid crisp" transform="translate(901.92,0)" d="M0,100v720" style="stroke: rgb(211, 211, 211); stroke-opacity: 1; stroke-width: 1px;"/><path class="xgrid crisp" transform="translate(1066.3,0)" d="M0,100v720" style="stroke: rgb(211, 211, 211); stroke-opacity: 1; stroke-width: 1px;"/><path class="xgrid crisp" transform="translate(1230.68,0)" d="M0,100v720" style="stroke: rgb(211, 211, 211); stroke-opacity: 1; stroke-width: 1px;"/><path class="xgrid crisp" transform="translate(1395.07,0)" d="M0,100v720" style="stroke: rgb(211, 211, 211); stroke-opacity: 1; stroke-width: 1px;"/></g><g class="y"><path class="ygrid crisp" transform="translate(0,724.51)" d="M80,0h1440" style="stroke: rgb(211, 211, 211); stroke-opacity: 1; stroke-width: 1px;"/><path class="ygrid crisp" transform="translate(0,629.02)" d="M80,0h1440" style="stroke: rgb(211, 211, 211); stroke-opacity: 1; stroke-width: 1px;"/><path class="ygrid crisp" transform="translate(0,533.53)" d="M80,0h1440" style="stroke: rgb(211, 211, 211); stroke-opacity: 1; stroke-width: 1px;"/><path class="ygrid crisp" transform="translate(0,438.04)" d="M80,0h1440" style="stroke: rgb(211, 211, 211); stroke-opacity: 1; stroke-width: 1px;"/><path class="ygrid crisp" transform="translate(0,342.55)" d="M80,0h1440" style="stroke: rgb(211, 211, 211); stroke-opacity: 1; stroke-width: 1px;"/><path class="ygrid crisp" transform="translate(0,247.06)" d="M80,0h1440" style="stroke: rgb(211, 211, 211); stroke-opacity: 1; stroke-width: 1px;"/><path class="ygrid crisp" transform="translate(0,151.57)" d="M80,0h1440" style="stroke: rgb(211, 211, 211); stroke-opacity: 1; stroke-width: 1px;"/></g></g><g class="zerolinelayer"><path class="yzl zl crisp" transform="translate(0,820)" d="M80,0h1440" style="stroke: rgb(68, 68, 68); stroke-opacity: 1; stroke-width: 1px;"/></g><path class="xlines-below"/><path class="ylines-below"/><g class="overlines-below"/><g class="xaxislayer-below"/><g class="yaxislayer-below"/><g class="overaxes-below"/><g class="plot" transform="translate(80,100)" clip-path="url(#clip68592cxyplot)"><g class="scatterlayer mlayer"><g class="trace scatter trace579873" style="stroke-miterlimit: 2;"><g class="fills"><g><path class="js-fill" d="M1439.84,720L0,720L0,638.15L536.22,638.9L536.38,638.91L596.38,643.1L596.55,643.13L640.93,646.53L641.1,646.65L721.64,652.37L721.81,652.41L728.55,652.92L728.71,652.93L764.71,655.77L764.88,655.8L772.77,656.54L772.93,656.56L801.21,658.96L801.37,659L808.11,659.52L808.27,659.53L817.64,660.27L817.81,660.35L836.22,662.22L836.38,662.26L852.49,663.92L852.66,663.96L861.7,664.9L861.86,664.9L900.16,670.01L900.33,670.07L913.81,672.5L913.97,672.54L919.07,673.59L919.23,673.62L924.99,674.86L925.15,674.87L937.15,677.01L937.32,677.05L951.95,679.38L952.11,679.38L961.15,680.08L961.32,680.23L972.66,682.34L972.82,682.34L979.56,683.09L979.73,683.14L982.85,683.72L983.01,683.72L1001.26,684.4L1001.42,684.55L1023.12,685.23L1023.29,685.31L1026.58,685.57L1026.74,685.57L1063.89,686.29L1064.05,686.34L1065.86,686.57L1066.03,686.57L1113.7,687.31L1113.86,687.36L1133.26,688.03L1133.42,688.18L1143.62,688.65L1143.78,688.65L1147.56,688.78L1147.73,688.78L1189.15,689.48L1189.32,689.87L1196.05,690.14L1196.22,690.14L1240.11,690.86L1240.27,690.97L1241.75,691.43L1241.92,691.43L1272.99,692.07L1273.15,692.35L1285.32,693.03L1285.48,693.03L1293.7,693.75L1293.86,693.79L1298.96,694.52L1299.12,694.52L1326.9,695.22L1327.07,695.36L1329.7,695.41L1329.86,695.41L1341.21,696.08L1341.37,696.26L1391.18,696.94L1391.34,697.06L1408.44,697.49L1408.6,697.97L1409.75,698.56L1409.92,698.56L1415.51,699.3L1415.67,699.44L1417.97,700.11L1418.14,700.11L1419.95,700.48L1420.11,701.03L1421.92,702.07L1422.08,702.07L1424.38,702.57L1424.55,703.36L1425.86,704.05L1426.03,704.05L1434.08,704.78L1434.25,704.94L1439.67,705.01L1439.84,706.76" style="fill: rgb(29, 60, 52); fill-opacity: 0.5; stroke-width: 0;"/></g><g><path class="js-fill" d="M0,433.53L527.18,434.26L527.34,434.29L532.93,435.47L533.1,435.52L542.96,437.46L543.12,437.59L591.78,449.15L591.95,449.33L594.9,450.35L595.07,450.36L598.36,451.24L598.52,451.33L600.99,452.34L601.15,452.54L605.75,453.53L605.92,453.59L608.38,453.88L608.55,453.91L623.67,458.27L623.84,458.4L628.11,459.62L628.27,459.8L631.73,460.52L631.89,460.6L640.93,462.87L641.1,463.29L646.85,464.4L647.01,464.47L652.77,466.51L652.93,466.66L660.49,468.27L660.66,468.43L667.73,469.86L667.89,469.86L671.01,470.45L671.18,470.45L674.3,471.03L674.47,471.26L678.9,472.12L679.07,472.29L690.58,475.21L690.74,475.21L717.37,481.95L717.53,482.09L721.64,483.3L721.81,483.42L723.78,484.18L723.95,484.2L730.68,485.75L730.85,485.85L733.97,486.94L734.14,487.02L736.77,487.87L736.93,487.96L744.49,489.92L744.66,489.94L747.12,490.67L747.29,490.79L761.42,494.43L761.59,494.44L770.96,497.45L771.12,497.62L772.6,497.89L772.77,497.9L778.19,500.12L778.36,500.42L813.86,509.92L814.03,510.08L819.29,511.59L819.45,511.59L821.42,512.26L821.59,512.27L826.68,513.93L826.85,514.11L830.14,515.25L830.3,515.29L832.27,516.01L832.44,516.13L833.75,516.83L833.92,517.03L839.84,518.83L840,518.85L843.29,520.03L843.45,520.08L847.73,521.82L847.89,522.02L856.44,525.35L856.6,525.58L859.07,526.46L859.23,526.49L863.01,527.66L863.18,527.99L867.12,529.44L867.29,529.56L872.88,531.89L873.04,532.21L877.48,533.43L877.64,533.5L887.51,537.62L887.67,537.81L889.64,538.83L889.81,538.96L895.56,542.37L895.73,542.41L898.52,543.46L898.68,543.54L899.51,544.49L899.67,544.73L900.66,545.48L900.82,545.63L902.47,546.93L902.63,546.98L904.6,548.23L904.77,548.58L907.56,549.33L907.73,549.34L917.75,556.65L917.92,557.12L926.47,562.6L926.63,562.6L935.51,568.02L935.67,568.6L937.48,569.77L937.64,569.86L938.79,570.64L938.96,571.22L940.27,572.18L940.44,572.39L941.26,572.71L941.42,573.15L943.73,574.65L943.89,574.87L948.66,577.85L948.82,577.85L959.18,578.51L959.34,578.66L960.82,579.8L960.99,580.04L963.95,583.35L964.11,583.42L965.75,585.36L965.92,585.4L967.4,586.63L967.56,586.63L968.71,588.18L968.88,588.18L973.64,588.8L973.81,589.08L975.29,589.19L975.45,589.19L978.74,589.75L978.9,590.09L979.89,591.24L980.05,591.35L980.88,592.11L981.04,592.62L986.79,593.68L986.96,593.82L989.1,594.4L989.26,594.4L1000.44,594.85L1000.6,595.19L1001.59,595.93L1001.75,596.12L1003.07,596.41L1003.23,596.41L1022.47,596.95L1022.63,597.21L1024.6,599.49L1024.77,599.49L1030.03,600.23L1030.19,600.3L1033.81,600.86L1033.97,600.86L1052.05,601.54L1052.22,601.62L1053.86,602L1054.03,602L1065.04,602.74L1065.21,602.98L1069.64,603.61L1069.81,603.93L1072.27,604.08L1072.44,604.08L1076.55,604.78L1076.71,604.94L1113.7,605.6L1113.86,605.74L1126.68,606.48L1126.85,606.78L1128.66,607.77L1128.82,607.77L1133.26,608.11L1133.42,608.64L1135.56,608.81L1135.73,608.81L1138.52,609.48L1138.68,609.91L1139.67,610.27L1139.84,610.27L1148.88,610.96L1149.04,611.23L1168.27,611.84L1168.44,612.04L1182.9,612.75L1183.07,613.04L1184.88,613.12L1185.04,613.12L1189.15,613.16L1189.32,614.55L1191.95,615.46L1192.11,615.46L1217.26,616.17L1217.42,616.48L1219.56,616.97L1219.73,616.97L1239.78,617.38L1239.95,617.87L1240.77,619.27L1240.93,619.79L1244.38,620.01L1244.55,620.88L1245.53,621.19L1245.7,621.19L1258.85,621.53L1259.01,622.09L1272.99,622.23L1273.15,623.21L1274.79,623.3L1274.96,623.3L1280.05,623.87L1280.22,624.49L1282.52,625.34L1282.68,625.34L1288.11,625.87L1288.27,626.16L1290.25,627.94L1290.41,628.01L1291.89,628.12L1292.05,628.12L1294.36,628.71L1294.52,629.26L1295.34,630.83L1295.51,630.83L1303.4,631.47L1303.56,631.61L1317.7,632.33L1317.86,632.53L1319.18,633.28L1319.34,633.28L1330.36,633.93L1330.52,634.23L1332.16,634.49L1332.33,634.49L1337.75,635.18L1337.92,635.54L1341.21,636.27L1341.37,636.9L1359.95,637.34L1360.11,637.73L1380.33,638.39L1380.49,638.66L1391.18,639.29L1391.34,639.7L1398.08,640.38L1398.25,640.72L1399.89,640.81L1400.05,640.81L1408.44,641.21L1408.6,642.88L1409.59,644.95L1409.75,644.95L1412.22,644.95L1412.38,645.88L1413.21,647.57L1413.37,647.57L1415.67,648.06L1415.84,648.35L1416.33,648.86L1416.49,650.4L1419.78,650.43L1419.95,651.69L1421.1,657.24L1421.26,657.24L1424.05,657.24L1424.22,658.12L1425.7,664.16L1425.86,664.16L1431.12,664.32L1431.29,666.73L1437.04,667.28L1437.21,667.52L1439.67,667.52L1439.84,673.65L1439.84,706.76L1439.67,705.01L1434.25,704.94L1434.08,704.78L1426.03,704.05L1425.86,704.05L1424.55,703.36L1424.38,702.57L1422.08,702.07L1421.92,702.07L1420.11,701.03L1419.95,700.48L1418.14,700.11L1417.97,700.11L1415.67,699.44L1415.51,699.3L1409.92,698.56L1409.75,698.56L1408.6,697.97L1408.44,697.49L1391.34,697.06L1391.18,696.94L1341.37,696.26L1341.21,696.08L1329.86,695.41L1329.7,695.41L1327.07,695.36L1326.9,695.22L1299.12,694.52L1298.96,694.52L1293.86,693.79L1293.7,693.75L1285.48,693.03L1285.32,693.03L1273.15,692.35L1272.99,692.07L1241.92,691.43L1241.75,691.43L1240.27,690.97L1240.11,690.86L1196.22,690.14L1196.05,690.14L1189.32,689.87L1189.15,689.48L1147.73,688.78L1147.56,688.78L1143.78,688.65L1143.62,688.65L1133.42,688.18L1133.26,688.03L1113.86,687.36L1113.7,687.31L1066.03,686.57L1065.86,686.57L1064.05,686.34L1063.89,686.29L1026.74,685.57L1026.58,685.57L1023.29,685.31L1023.12,685.23L1001.42,684.55L1001.26,684.4L983.01,683.72L982.85,683.72L979.73,683.14L979.56,683.09L972.82,682.34L972.66,682.34L961.32,680.23L961.15,680.08L952.11,679.38L951.95,679.38L937.32,677.05L937.15,677.01L925.15,674.87L924.99,674.86L919.23,673.62L919.07,673.59L913.97,672.54L913.81,672.5L900.33,670.07L900.16,670.01L861.86,664.9L861.7,664.9L852.66,663.96L852.49,663.92L836.38,662.26L836.22,662.22L817.81,660.35L817.64,660.27L808.27,659.53L808.11,659.52L801.37,659L801.21,658.96L772.93,656.56L772.77,656.54L764.88,655.8L764.71,655.77L728.71,652.93L728.55,652.92L721.81,652.41L721.64,652.37L641.1,646.65L640.93,646.53L596.55,643.13L596.38,643.1L536.38,638.91L536.22,638.9L0,638.15Z" style="fill: rgb(72, 162, 63); fill-opacity: 0.5; stroke-width: 0;"/></g></g><g class="errorbars"/><g class="lines"><path class="js-line" d="M0,638.15L536.22,638.9L536.38,638.91L596.38,643.1L596.55,643.13L640.93,646.53L641.1,646.65L721.64,652.37L721.81,652.41L728.55,652.92L728.71,652.93L764.71,655.77L764.88,655.8L772.77,656.54L772.93,656.56L801.21,658.96L801.37,659L808.11,659.52L808.27,659.53L817.64,660.27L817.81,660.35L836.22,662.22L836.38,662.26L852.49,663.92L852.66,663.96L861.7,664.9L861.86,664.9L900.16,670.01L900.33,670.07L913.81,672.5L913.97,672.54L919.07,673.59L919.23,673.62L924.99,674.86L925.15,674.87L937.15,677.01L937.32,677.05L951.95,679.38L952.11,679.38L961.15,680.08L961.32,680.23L972.66,682.34L972.82,682.34L979.56,683.09L979.73,683.14L982.85,683.72L983.01,683.72L1001.26,684.4L1001.42,684.55L1023.12,685.23L1023.29,685.31L1026.58,685.57L1026.74,685.57L1063.89,686.29L1064.05,686.34L1065.86,686.57L1066.03,686.57L1113.7,687.31L1113.86,687.36L1133.26,688.03L1133.42,688.18L1143.62,688.65L1143.78,688.65L1147.56,688.78L1147.73,688.78L1189.15,689.48L1189.32,689.87L1196.05,690.14L1196.22,690.14L1240.11,690.86L1240.27,690.97L1241.75,691.43L1241.92,691.43L1272.99,692.07L1273.15,692.35L1285.32,693.03L1285.48,693.03L1293.7,693.75L1293.86,693.79L1298.96,694.52L1299.12,694.52L1326.9,695.22L1327.07,695.36L1329.7,695.41L1329.86,695.41L1341.21,696.08L1341.37,696.26L1391.18,696.94L1391.34,697.06L1408.44,697.49L1408.6,697.97L1409.75,698.56L1409.92,698.56L1415.51,699.3L1415.67,699.44L1417.97,700.11L1418.14,700.11L1419.95,700.48L1420.11,701.03L1421.92,702.07L1422.08,702.07L1424.38,702.57L1424.55,703.36L1425.86,704.05L1426.03,704.05L1434.08,704.78L1434.25,704.94L1439.67,705.01L1439.84,706.76" style="vector-effect: none; fill: none; stroke: rgb(29, 60, 52); stroke-opacity: 1; stroke-width: 0px; opacity: 1;"/></g><g class="points"/><g class="text"/></g><g class="trace scatter tracee93654" style="stroke-miterlimit: 2;"><g class="fills"><g><path class="js-fill" d="M0,36L1.15,120.65L1.32,125.63L2.96,161.99L3.12,165.71L4.44,173.42L4.6,173.91L7.07,188.35L7.23,188.43L8.38,191.77L8.55,192.03L8.88,193.28L9.04,194.28L9.21,194.35L9.37,195.47L9.53,195.5L9.7,196.37L12.16,211.73L12.33,211.8L13.48,214.63L13.64,214.71L15.29,217.72L15.45,218.01L17.26,224.96L17.42,225.08L19.56,230.1L19.73,230.19L20.22,230.39L20.38,231.17L21.21,232.48L21.37,232.91L22.19,234.04L22.36,234.54L22.68,234.88L22.85,235.66L30.25,246.22L30.41,246.86L31.4,247.63L31.56,248.03L32.55,249.93L32.71,250.27L34.52,252.43L34.68,252.99L35.84,254.61L36,254.66L36.33,255.38L36.49,255.55L37.97,258.57L38.14,258.64L41.26,262.5L41.42,262.78L42.25,263.24L42.41,263.75L43.23,264.5L43.4,264.54L46.52,266.42L46.68,267.04L48,268.14L48.16,268.17L49.32,269.42L49.48,269.61L54.25,273.65L54.41,274.12L61.15,277.73L61.32,277.73L64.11,279.88L64.27,279.89L65.75,280.87L65.92,280.99L71.01,283.75L71.18,284.19L75.95,286.37L76.11,286.46L79.4,287.76L79.56,287.77L82.03,288.57L82.19,288.68L85.32,290.36L85.48,290.55L87.12,291.48L87.29,291.78L89.92,292.89L90.08,292.94L94.85,295.29L95.01,295.43L98.3,297.33L98.47,297.54L100.6,298.68L100.77,298.91L101.75,299.61L101.92,299.86L105.04,301.32L105.21,301.34L108.33,303.28L108.49,303.3L118.52,308.95L118.68,309.13L123.62,311.33L123.78,311.51L127.07,313.87L127.23,313.88L129.04,314.73L129.21,314.92L130.68,315.33L130.85,315.37L132.66,316.08L132.82,316.17L135.95,317.22L136.11,317.51L139.4,318.93L139.56,319.19L143.18,320.09L143.34,320.2L146.3,321.26L146.47,321.47L148.11,322.14L148.27,322.18L150.41,323.01L150.58,323.18L159.95,326.5L160.11,326.52L168.33,330.51L168.49,330.53L172.77,331.85L172.93,332.1L176.22,333.22L176.38,333.26L178.03,334L178.19,334.03L181.81,335.53L181.97,335.54L183.95,336.4L184.11,336.47L186.9,337.33L187.07,337.44L192,339.12L192.16,339.12L195.45,340.26L195.62,340.31L198.74,341.37L198.9,341.37L202.36,342.57L202.52,342.6L204.66,343.6L204.82,343.63L217.81,348.23L217.97,348.26L221.1,349L221.26,349.21L227.18,350.68L227.34,350.82L231.12,352.49L231.29,352.52L233.59,353.21L233.75,353.23L237.37,354.49L237.53,354.5L260.22,361.72L260.38,361.87L263.34,362.98L263.51,362.99L268.11,363.95L268.27,364.04L280.93,367.75L281.1,367.77L284.22,368.68L284.38,368.8L287.84,369.53L288,369.7L291.45,370.79L291.62,370.85L297.86,372.93L298.03,373L304.93,374.49L305.1,374.65L306.58,374.96L306.74,374.99L312.16,376.68L312.33,376.72L318.9,378.69L319.07,378.73L321.04,379.37L321.21,379.41L328.44,381.37L328.6,381.41L331.89,382.2L332.05,382.39L337.97,384.18L338.14,384.29L341.92,385.23L342.08,385.33L350.47,387.04L350.63,387.05L369.04,392.39L369.21,392.43L376.27,394.03L376.44,394.1L383.84,395.76L384,395.79L403.07,401.29L403.23,401.38L406.03,402.06L406.19,402.33L420.16,405.93L420.33,405.94L422.96,406.84L423.12,406.87L425.1,407.59L425.26,407.67L432.33,409.29L432.49,409.34L448.77,412.78L448.93,412.86L451.89,413.57L452.05,413.62L457.15,414.91L457.32,414.97L461.26,415.91L461.42,416.05L476.22,419.69L476.38,419.72L478.03,420.2L478.19,420.21L480.66,420.93L480.82,420.93L488.71,423.74L488.88,423.87L492,424.56L492.16,424.67L495.45,426.04L495.62,426.07L498.58,426.85L498.74,427.05L539.34,436.64L539.51,436.65L542.79,437.35L542.96,437.46L544.93,438.17L545.1,438.2L552.82,439.37L552.99,439.44L556.27,440.44L556.44,440.46L558.58,440.93L558.74,441L585.86,447.17L586.03,447.2L588.33,447.91L588.49,447.99L590.47,448.67L590.63,448.78L603.45,452.91L603.62,452.97L609.53,454.07L609.7,454.14L636.99,461.89L637.15,461.9L640.93,462.87L641.1,463.29L646.85,464.4L647.01,464.47L652.77,466.51L652.93,466.66L660.49,468.27L660.66,468.43L667.73,469.86L667.89,469.86L671.01,470.45L671.18,470.45L674.3,471.03L674.47,471.26L678.9,472.12L679.07,472.29L690.58,475.21L690.74,475.21L717.37,481.95L717.53,482.09L721.64,483.3L721.81,483.42L723.78,484.18L723.95,484.2L730.68,485.75L730.85,485.85L733.97,486.94L734.14,487.02L736.77,487.87L736.93,487.96L744.49,489.92L744.66,489.94L747.12,490.67L747.29,490.79L761.42,494.43L761.59,494.44L770.96,497.45L771.12,497.62L772.6,497.89L772.77,497.9L778.19,500.12L778.36,500.42L813.86,509.92L814.03,510.08L819.29,511.59L819.45,511.59L821.42,512.26L821.59,512.27L826.68,513.93L826.85,514.11L830.14,515.25L830.3,515.29L832.27,516.01L832.44,516.13L833.75,516.83L833.92,517.03L839.84,518.83L840,518.85L843.29,520.03L843.45,520.08L847.73,521.82L847.89,522.02L856.44,525.35L856.6,525.58L859.07,526.46L859.23,526.49L863.01,527.66L863.18,527.99L867.12,529.44L867.29,529.56L872.88,531.89L873.04,532.21L877.48,533.43L877.64,533.5L887.51,537.62L887.67,537.81L889.64,538.83L889.81,538.96L895.56,542.37L895.73,542.41L898.52,543.46L898.68,543.54L899.51,544.49L899.67,544.73L900.66,545.48L900.82,545.63L902.47,546.93L902.63,546.98L904.6,548.23L904.77,548.58L907.56,549.33L907.73,549.34L917.75,556.65L917.92,557.12L926.47,562.6L926.63,562.6L935.51,568.02L935.67,568.6L937.48,569.77L937.64,569.86L938.79,570.64L938.96,571.22L940.27,572.18L940.44,572.39L941.26,572.71L941.42,573.15L943.73,574.65L943.89,574.87L948.66,577.85L948.82,577.85L959.18,578.51L959.34,578.66L960.82,579.8L960.99,580.04L963.95,583.35L964.11,583.42L965.75,585.36L965.92,585.4L967.4,586.63L967.56,586.63L968.71,588.18L968.88,588.18L973.64,588.8L973.81,589.08L975.29,589.19L975.45,589.19L978.74,589.75L978.9,590.09L979.89,591.24L980.05,591.35L980.88,592.11L981.04,592.62L986.79,593.68L986.96,593.82L989.1,594.4L989.26,594.4L1000.44,594.85L1000.6,595.19L1001.59,595.93L1001.75,596.12L1003.07,596.41L1003.23,596.41L1022.47,596.95L1022.63,597.21L1024.6,599.49L1024.77,599.49L1030.03,600.23L1030.19,600.3L1033.81,600.86L1033.97,600.86L1052.05,601.54L1052.22,601.62L1053.86,602L1054.03,602L1065.04,602.74L1065.21,602.98L1069.64,603.61L1069.81,603.93L1072.27,604.08L1072.44,604.08L1076.55,604.78L1076.71,604.94L1113.7,605.6L1113.86,605.74L1126.68,606.48L1126.85,606.78L1128.66,607.77L1128.82,607.77L1133.26,608.11L1133.42,608.64L1135.56,608.81L1135.73,608.81L1138.52,609.48L1138.68,609.91L1139.67,610.27L1139.84,610.27L1148.88,610.96L1149.04,611.23L1168.27,611.84L1168.44,612.04L1182.9,612.75L1183.07,613.04L1184.88,613.12L1185.04,613.12L1189.15,613.16L1189.32,614.55L1191.95,615.46L1192.11,615.46L1217.26,616.17L1217.42,616.48L1219.56,616.97L1219.73,616.97L1239.78,617.38L1239.95,617.87L1240.77,619.27L1240.93,619.79L1244.38,620.01L1244.55,620.88L1245.53,621.19L1245.7,621.19L1258.85,621.53L1259.01,622.09L1272.99,622.23L1273.15,623.21L1274.79,623.3L1274.96,623.3L1280.05,623.87L1280.22,624.49L1282.52,625.34L1282.68,625.34L1288.11,625.87L1288.27,626.16L1290.25,627.94L1290.41,628.01L1291.89,628.12L1292.05,628.12L1294.36,628.71L1294.52,629.26L1295.34,630.83L1295.51,630.83L1303.4,631.47L1303.56,631.61L1317.7,632.33L1317.86,632.53L1319.18,633.28L1319.34,633.28L1330.36,633.93L1330.52,634.23L1332.16,634.49L1332.33,634.49L1337.75,635.18L1337.92,635.54L1341.21,636.27L1341.37,636.9L1359.95,637.34L1360.11,637.73L1380.33,638.39L1380.49,638.66L1391.18,639.29L1391.34,639.7L1398.08,640.38L1398.25,640.72L1399.89,640.81L1400.05,640.81L1408.44,641.21L1408.6,642.88L1409.59,644.95L1409.75,644.95L1412.22,644.95L1412.38,645.88L1413.21,647.57L1413.37,647.57L1415.67,648.06L1415.84,648.35L1416.33,648.86L1416.49,650.4L1419.78,650.43L1419.95,651.69L1421.1,657.24L1421.26,657.24L1424.05,657.24L1424.22,658.12L1425.7,664.16L1425.86,664.16L1431.12,664.32L1431.29,666.73L1437.04,667.28L1437.21,667.52L1439.67,667.52L1439.84,673.65L1439.84,673.65L1439.67,667.52L1437.21,667.52L1437.04,667.28L1431.29,666.73L1431.12,664.32L1425.86,664.16L1425.7,664.16L1424.22,658.12L1424.05,657.24L1421.26,657.24L1421.1,657.24L1419.95,651.69L1419.78,650.43L1416.49,650.4L1416.33,648.86L1415.84,648.35L1415.67,648.06L1413.37,647.57L1413.21,647.57L1412.38,645.88L1412.22,644.95L1409.75,644.95L1409.59,644.95L1408.6,642.88L1408.44,641.21L1400.05,640.81L1399.89,640.81L1398.25,640.72L1398.08,640.38L1391.34,639.7L1391.18,639.29L1380.49,638.66L1380.33,638.39L1360.11,637.73L1359.95,637.34L1341.37,636.9L1341.21,636.27L1337.92,635.54L1337.75,635.18L1332.33,634.49L1332.16,634.49L1330.52,634.23L1330.36,633.93L1319.34,633.28L1319.18,633.28L1317.86,632.53L1317.7,632.33L1303.56,631.61L1303.4,631.47L1295.51,630.83L1295.34,630.83L1294.52,629.26L1294.36,628.71L1292.05,628.12L1291.89,628.12L1290.41,628.01L1290.25,627.94L1288.27,626.16L1288.11,625.87L1282.68,625.34L1282.52,625.34L1280.22,624.49L1280.05,623.87L1274.96,623.3L1274.79,623.3L1273.15,623.21L1272.99,622.23L1259.01,622.09L1258.85,621.53L1245.7,621.19L1245.53,621.19L1244.55,620.88L1244.38,620.01L1240.93,619.79L1240.77,619.27L1239.95,617.87L1239.78,617.38L1219.73,616.97L1219.56,616.97L1217.42,616.48L1217.26,616.17L1192.11,615.46L1191.95,615.46L1189.32,614.55L1189.15,613.16L1185.04,613.12L1184.88,613.12L1183.07,613.04L1182.9,612.75L1168.44,612.04L1168.27,611.84L1149.04,611.23L1148.88,610.96L1139.84,610.27L1139.67,610.27L1138.68,609.91L1138.52,609.48L1135.73,608.81L1135.56,608.81L1133.42,608.64L1133.26,608.11L1128.82,607.77L1128.66,607.77L1126.85,606.78L1126.68,606.48L1113.86,605.74L1113.7,605.6L1076.71,604.94L1076.55,604.78L1072.44,604.08L1072.27,604.08L1069.81,603.93L1069.64,603.61L1065.21,602.98L1065.04,602.74L1054.03,602L1053.86,602L1052.22,601.62L1052.05,601.54L1033.97,600.86L1033.81,600.86L1030.19,600.3L1030.03,600.23L1024.77,599.49L1024.6,599.49L1022.63,597.21L1022.47,596.95L1003.23,596.41L1003.07,596.41L1001.75,596.12L1001.59,595.93L1000.6,595.19L1000.44,594.85L989.26,594.4L989.1,594.4L986.96,593.82L986.79,593.68L981.04,592.62L980.88,592.11L980.05,591.35L979.89,591.24L978.9,590.09L978.74,589.75L975.45,589.19L975.29,589.19L973.81,589.08L973.64,588.8L968.88,588.18L968.71,588.18L967.56,586.63L967.4,586.63L965.92,585.4L965.75,585.36L964.11,583.42L963.95,583.35L960.99,580.04L960.82,579.8L959.34,578.66L959.18,578.51L948.82,577.85L948.66,577.85L943.89,574.87L943.73,574.65L941.42,573.15L941.26,572.71L940.44,572.39L940.27,572.18L938.96,571.22L938.79,570.64L937.64,569.86L937.48,569.77L935.67,568.6L935.51,568.02L926.63,562.6L926.47,562.6L917.92,557.12L917.75,556.65L907.73,549.34L907.56,549.33L904.77,548.58L904.6,548.23L902.63,546.98L902.47,546.93L900.82,545.63L900.66,545.48L899.67,544.73L899.51,544.49L898.68,543.54L898.52,543.46L895.73,542.41L895.56,542.37L889.81,538.96L889.64,538.83L887.67,537.81L887.51,537.62L877.64,533.5L877.48,533.43L873.04,532.21L872.88,531.89L867.29,529.56L867.12,529.44L863.18,527.99L863.01,527.66L859.23,526.49L859.07,526.46L856.6,525.58L856.44,525.35L847.89,522.02L847.73,521.82L843.45,520.08L843.29,520.03L840,518.85L839.84,518.83L833.92,517.03L833.75,516.83L832.44,516.13L832.27,516.01L830.3,515.29L830.14,515.25L826.85,514.11L826.68,513.93L821.59,512.27L821.42,512.26L819.45,511.59L819.29,511.59L814.03,510.08L813.86,509.92L778.36,500.42L778.19,500.12L772.77,497.9L772.6,497.89L771.12,497.62L770.96,497.45L761.59,494.44L761.42,494.43L747.29,490.79L747.12,490.67L744.66,489.94L744.49,489.92L736.93,487.96L736.77,487.87L734.14,487.02L733.97,486.94L730.85,485.85L730.68,485.75L723.95,484.2L723.78,484.18L721.81,483.42L721.64,483.3L717.53,482.09L717.37,481.95L690.74,475.21L690.58,475.21L679.07,472.29L678.9,472.12L674.47,471.26L674.3,471.03L671.18,470.45L671.01,470.45L667.89,469.86L667.73,469.86L660.66,468.43L660.49,468.27L652.93,466.66L652.77,466.51L647.01,464.47L646.85,464.4L641.1,463.29L640.93,462.87L631.89,460.6L631.73,460.52L628.27,459.8L628.11,459.62L623.84,458.4L623.67,458.27L608.55,453.91L608.38,453.88L605.92,453.59L605.75,453.53L601.15,452.54L600.99,452.34L598.52,451.33L598.36,451.24L595.07,450.36L594.9,450.35L591.95,449.33L591.78,449.15L543.12,437.59L542.96,437.46L533.1,435.52L532.93,435.47L527.34,434.29L527.18,434.26L0,433.53Z" style="fill: rgb(255, 195, 88); fill-opacity: 0.5; stroke-width: 0;"/></g></g><g class="errorbars"/><g class="lines"><path class="js-line" d="M0,433.53L527.18,434.26L527.34,434.29L532.93,435.47L533.1,435.52L542.96,437.46L543.12,437.59L591.78,449.15L591.95,449.33L594.9,450.35L595.07,450.36L598.36,451.24L598.52,451.33L600.99,452.34L601.15,452.54L605.75,453.53L605.92,453.59L608.38,453.88L608.55,453.91L623.67,458.27L623.84,458.4L628.11,459.62L628.27,459.8L631.73,460.52L631.89,460.6L640.93,462.87L641.1,463.29L646.85,464.4L647.01,464.47L652.77,466.51L652.93,466.66L660.49,468.27L660.66,468.43L667.73,469.86L667.89,469.86L671.01,470.45L671.18,470.45L674.3,471.03L674.47,471.26L678.9,472.12L679.07,472.29L690.58,475.21L690.74,475.21L717.37,481.95L717.53,482.09L721.64,483.3L721.81,483.42L723.78,484.18L723.95,484.2L730.68,485.75L730.85,485.85L733.97,486.94L734.14,487.02L736.77,487.87L736.93,487.96L744.49,489.92L744.66,489.94L747.12,490.67L747.29,490.79L761.42,494.43L761.59,494.44L770.96,497.45L771.12,497.62L772.6,497.89L772.77,497.9L778.19,500.12L778.36,500.42L813.86,509.92L814.03,510.08L819.29,511.59L819.45,511.59L821.42,512.26L821.59,512.27L826.68,513.93L826.85,514.11L830.14,515.25L830.3,515.29L832.27,516.01L832.44,516.13L833.75,516.83L833.92,517.03L839.84,518.83L840,518.85L843.29,520.03L843.45,520.08L847.73,521.82L847.89,522.02L856.44,525.35L856.6,525.58L859.07,526.46L859.23,526.49L863.01,527.66L863.18,527.99L867.12,529.44L867.29,529.56L872.88,531.89L873.04,532.21L877.48,533.43L877.64,533.5L887.51,537.62L887.67,537.81L889.64,538.83L889.81,538.96L895.56,542.37L895.73,542.41L898.52,543.46L898.68,543.54L899.51,544.49L899.67,544.73L900.66,545.48L900.82,545.63L902.47,546.93L902.63,546.98L904.6,548.23L904.77,548.58L907.56,549.33L907.73,549.34L917.75,556.65L917.92,557.12L926.47,562.6L926.63,562.6L935.51,568.02L935.67,568.6L937.48,569.77L937.64,569.86L938.79,570.64L938.96,571.22L940.27,572.18L940.44,572.39L941.26,572.71L941.42,573.15L943.73,574.65L943.89,574.87L948.66,577.85L948.82,577.85L959.18,578.51L959.34,578.66L960.82,579.8L960.99,580.04L963.95,583.35L964.11,583.42L965.75,585.36L965.92,585.4L967.4,586.63L967.56,586.63L968.71,588.18L968.88,588.18L973.64,588.8L973.81,589.08L975.29,589.19L975.45,589.19L978.74,589.75L978.9,590.09L979.89,591.24L980.05,591.35L980.88,592.11L981.04,592.62L986.79,593.68L986.96,593.82L989.1,594.4L989.26,594.4L1000.44,594.85L1000.6,595.19L1001.59,595.93L1001.75,596.12L1003.07,596.41L1003.23,596.41L1022.47,596.95L1022.63,597.21L1024.6,599.49L1024.77,599.49L1030.03,600.23L1030.19,600.3L1033.81,600.86L1033.97,600.86L1052.05,601.54L1052.22,601.62L1053.86,602L1054.03,602L1065.04,602.74L1065.21,602.98L1069.64,603.61L1069.81,603.93L1072.27,604.08L1072.44,604.08L1076.55,604.78L1076.71,604.94L1113.7,605.6L1113.86,605.74L1126.68,606.48L1126.85,606.78L1128.66,607.77L1128.82,607.77L1133.26,608.11L1133.42,608.64L1135.56,608.81L1135.73,608.81L1138.52,609.48L1138.68,609.91L1139.67,610.27L1139.84,610.27L1148.88,610.96L1149.04,611.23L1168.27,611.84L1168.44,612.04L1182.9,612.75L1183.07,613.04L1184.88,613.12L1185.04,613.12L1189.15,613.16L1189.32,614.55L1191.95,615.46L1192.11,615.46L1217.26,616.17L1217.42,616.48L1219.56,616.97L1219.73,616.97L1239.78,617.38L1239.95,617.87L1240.77,619.27L1240.93,619.79L1244.38,620.01L1244.55,620.88L1245.53,621.19L1245.7,621.19L1258.85,621.53L1259.01,622.09L1272.99,622.23L1273.15,623.21L1274.79,623.3L1274.96,623.3L1280.05,623.87L1280.22,624.49L1282.52,625.34L1282.68,625.34L1288.11,625.87L1288.27,626.16L1290.25,627.94L1290.41,628.01L1291.89,628.12L1292.05,628.12L1294.36,628.71L1294.52,629.26L1295.34,630.83L1295.51,630.83L1303.4,631.47L1303.56,631.61L1317.7,632.33L1317.86,632.53L1319.18,633.28L1319.34,633.28L1330.36,633.93L1330.52,634.23L1332.16,634.49L1332.33,634.49L1337.75,635.18L1337.92,635.54L1341.21,636.27L1341.37,636.9L1359.95,637.34L1360.11,637.73L1380.33,638.39L1380.49,638.66L1391.18,639.29L1391.34,639.7L1398.08,640.38L1398.25,640.72L1399.89,640.81L1400.05,640.81L1408.44,641.21L1408.6,642.88L1409.59,644.95L1409.75,644.95L1412.22,644.95L1412.38,645.88L1413.21,647.57L1413.37,647.57L1415.67,648.06L1415.84,648.35L1416.33,648.86L1416.49,650.4L1419.78,650.43L1419.95,651.69L1421.1,657.24L1421.26,657.24L1424.05,657.24L1424.22,658.12L1425.7,664.16L1425.86,664.16L1431.12,664.32L1431.29,666.73L1437.04,667.28L1437.21,667.52L1439.67,667.52L1439.84,673.65" style="vector-effect: none; fill: none; stroke: rgb(72, 162, 63); stroke-opacity: 1; stroke-width: 0px; opacity: 1;"/></g><g class="points"/><g class="text"/></g><g class="trace scatter traceb733de" style="stroke-miterlimit: 2;"><g class="fills"/><g class="errorbars"/><g class="lines"><path class="js-line" d="M0,36L1.15,120.65L1.32,125.63L2.96,161.99L3.12,165.71L4.44,173.42L4.6,173.91L7.07,188.35L7.23,188.43L8.38,191.77L8.55,192.03L8.88,193.28L9.04,194.28L9.21,194.35L9.37,195.47L9.53,195.5L9.7,196.37L12.16,211.73L12.33,211.8L13.48,214.63L13.64,214.71L15.29,217.72L15.45,218.01L17.26,224.96L17.42,225.08L19.56,230.1L19.73,230.19L20.22,230.39L20.38,231.17L21.21,232.48L21.37,232.91L22.19,234.04L22.36,234.54L22.68,234.88L22.85,235.66L30.25,246.22L30.41,246.86L31.4,247.63L31.56,248.03L32.55,249.93L32.71,250.27L34.52,252.43L34.68,252.99L35.84,254.61L36,254.66L36.33,255.38L36.49,255.55L37.97,258.57L38.14,258.64L41.26,262.5L41.42,262.78L42.25,263.24L42.41,263.75L43.23,264.5L43.4,264.54L46.52,266.42L46.68,267.04L48,268.14L48.16,268.17L49.32,269.42L49.48,269.61L54.25,273.65L54.41,274.12L61.15,277.73L61.32,277.73L64.11,279.88L64.27,279.89L65.75,280.87L65.92,280.99L71.01,283.75L71.18,284.19L75.95,286.37L76.11,286.46L79.4,287.76L79.56,287.77L82.03,288.57L82.19,288.68L85.32,290.36L85.48,290.55L87.12,291.48L87.29,291.78L89.92,292.89L90.08,292.94L94.85,295.29L95.01,295.43L98.3,297.33L98.47,297.54L100.6,298.68L100.77,298.91L101.75,299.61L101.92,299.86L105.04,301.32L105.21,301.34L108.33,303.28L108.49,303.3L118.52,308.95L118.68,309.13L123.62,311.33L123.78,311.51L127.07,313.87L127.23,313.88L129.04,314.73L129.21,314.92L130.68,315.33L130.85,315.37L132.66,316.08L132.82,316.17L135.95,317.22L136.11,317.51L139.4,318.93L139.56,319.19L143.18,320.09L143.34,320.2L146.3,321.26L146.47,321.47L148.11,322.14L148.27,322.18L150.41,323.01L150.58,323.18L159.95,326.5L160.11,326.52L168.33,330.51L168.49,330.53L172.77,331.85L172.93,332.1L176.22,333.22L176.38,333.26L178.03,334L178.19,334.03L181.81,335.53L181.97,335.54L183.95,336.4L184.11,336.47L186.9,337.33L187.07,337.44L192,339.12L192.16,339.12L195.45,340.26L195.62,340.31L198.74,341.37L198.9,341.37L202.36,342.57L202.52,342.6L204.66,343.6L204.82,343.63L217.81,348.23L217.97,348.26L221.1,349L221.26,349.21L227.18,350.68L227.34,350.82L231.12,352.49L231.29,352.52L233.59,353.21L233.75,353.23L237.37,354.49L237.53,354.5L260.22,361.72L260.38,361.87L263.34,362.98L263.51,362.99L268.11,363.95L268.27,364.04L280.93,367.75L281.1,367.77L284.22,368.68L284.38,368.8L287.84,369.53L288,369.7L291.45,370.79L291.62,370.85L297.86,372.93L298.03,373L304.93,374.49L305.1,374.65L306.58,374.96L306.74,374.99L312.16,376.68L312.33,376.72L318.9,378.69L319.07,378.73L321.04,379.37L321.21,379.41L328.44,381.37L328.6,381.41L331.89,382.2L332.05,382.39L337.97,384.18L338.14,384.29L341.92,385.23L342.08,385.33L350.47,387.04L350.63,387.05L369.04,392.39L369.21,392.43L376.27,394.03L376.44,394.1L383.84,395.76L384,395.79L403.07,401.29L403.23,401.38L406.03,402.06L406.19,402.33L420.16,405.93L420.33,405.94L422.96,406.84L423.12,406.87L425.1,407.59L425.26,407.67L432.33,409.29L432.49,409.34L448.77,412.78L448.93,412.86L451.89,413.57L452.05,413.62L457.15,414.91L457.32,414.97L461.26,415.91L461.42,416.05L476.22,419.69L476.38,419.72L478.03,420.2L478.19,420.21L480.66,420.93L480.82,420.93L488.71,423.74L488.88,423.87L492,424.56L492.16,424.67L495.45,426.04L495.62,426.07L498.58,426.85L498.74,427.05L539.34,436.64L539.51,436.65L542.79,437.35L542.96,437.46L544.93,438.17L545.1,438.2L552.82,439.37L552.99,439.44L556.27,440.44L556.44,440.46L558.58,440.93L558.74,441L585.86,447.17L586.03,447.2L588.33,447.91L588.49,447.99L590.47,448.67L590.63,448.78L603.45,452.91L603.62,452.97L609.53,454.07L609.7,454.14L636.99,461.89L637.15,461.9L640.93,462.87L641.1,463.29L646.85,464.4L647.01,464.47L652.77,466.51L652.93,466.66L660.49,468.27L660.66,468.43L667.73,469.86L667.89,469.86L671.01,470.45L671.18,470.45L674.3,471.03L674.47,471.26L678.9,472.12L679.07,472.29L690.58,475.21L690.74,475.21L717.37,481.95L717.53,482.09L721.64,483.3L721.81,483.42L723.78,484.18L723.95,484.2L730.68,485.75L730.85,485.85L733.97,486.94L734.14,487.02L736.77,487.87L736.93,487.96L744.49,489.92L744.66,489.94L747.12,490.67L747.29,490.79L761.42,494.43L761.59,494.44L770.96,497.45L771.12,497.62L772.6,497.89L772.77,497.9L778.19,500.12L778.36,500.42L813.86,509.92L814.03,510.08L819.29,511.59L819.45,511.59L821.42,512.26L821.59,512.27L826.68,513.93L826.85,514.11L830.14,515.25L830.3,515.29L832.27,516.01L832.44,516.13L833.75,516.83L833.92,517.03L839.84,518.83L840,518.85L843.29,520.03L843.45,520.08L847.73,521.82L847.89,522.02L856.44,525.35L856.6,525.58L859.07,526.46L859.23,526.49L863.01,527.66L863.18,527.99L867.12,529.44L867.29,529.56L872.88,531.89L873.04,532.21L877.48,533.43L877.64,533.5L887.51,537.62L887.67,537.81L889.64,538.83L889.81,538.96L895.56,542.37L895.73,542.41L898.52,543.46L898.68,543.54L899.51,544.49L899.67,544.73L900.66,545.48L900.82,545.63L902.47,546.93L902.63,546.98L904.6,548.23L904.77,548.58L907.56,549.33L907.73,549.34L917.75,556.65L917.92,557.12L926.47,562.6L926.63,562.6L935.51,568.02L935.67,568.6L937.48,569.77L937.64,569.86L938.79,570.64L938.96,571.22L940.27,572.18L940.44,572.39L941.26,572.71L941.42,573.15L943.73,574.65L943.89,574.87L948.66,577.85L948.82,577.85L959.18,578.51L959.34,578.66L960.82,579.8L960.99,580.04L963.95,583.35L964.11,583.42L965.75,585.36L965.92,585.4L967.4,586.63L967.56,586.63L968.71,588.18L968.88,588.18L973.64,588.8L973.81,589.08L975.29,589.19L975.45,589.19L978.74,589.75L978.9,590.09L979.89,591.24L980.05,591.35L980.88,592.11L981.04,592.62L986.79,593.68L986.96,593.82L989.1,594.4L989.26,594.4L1000.44,594.85L1000.6,595.19L1001.59,595.93L1001.75,596.12L1003.07,596.41L1003.23,596.41L1022.47,596.95L1022.63,597.21L1024.6,599.49L1024.77,599.49L1030.03,600.23L1030.19,600.3L1033.81,600.86L1033.97,600.86L1052.05,601.54L1052.22,601.62L1053.86,602L1054.03,602L1065.04,602.74L1065.21,602.98L1069.64,603.61L1069.81,603.93L1072.27,604.08L1072.44,604.08L1076.55,604.78L1076.71,604.94L1113.7,605.6L1113.86,605.74L1126.68,606.48L1126.85,606.78L1128.66,607.77L1128.82,607.77L1133.26,608.11L1133.42,608.64L1135.56,608.81L1135.73,608.81L1138.52,609.48L1138.68,609.91L1139.67,610.27L1139.84,610.27L1148.88,610.96L1149.04,611.23L1168.27,611.84L1168.44,612.04L1182.9,612.75L1183.07,613.04L1184.88,613.12L1185.04,613.12L1189.15,613.16L1189.32,614.55L1191.95,615.46L1192.11,615.46L1217.26,616.17L1217.42,616.48L1219.56,616.97L1219.73,616.97L1239.78,617.38L1239.95,617.87L1240.77,619.27L1240.93,619.79L1244.38,620.01L1244.55,620.88L1245.53,621.19L1245.7,621.19L1258.85,621.53L1259.01,622.09L1272.99,622.23L1273.15,623.21L1274.79,623.3L1274.96,623.3L1280.05,623.87L1280.22,624.49L1282.52,625.34L1282.68,625.34L1288.11,625.87L1288.27,626.16L1290.25,627.94L1290.41,628.01L1291.89,628.12L1292.05,628.12L1294.36,628.71L1294.52,629.26L1295.34,630.83L1295.51,630.83L1303.4,631.47L1303.56,631.61L1317.7,632.33L1317.86,632.53L1319.18,633.28L1319.34,633.28L1330.36,633.93L1330.52,634.23L1332.16,634.49L1332.33,634.49L1337.75,635.18L1337.92,635.54L1341.21,636.27L1341.37,636.9L1359.95,637.34L1360.11,637.73L1380.33,638.39L1380.49,638.66L1391.18,639.29L1391.34,639.7L1398.08,640.38L1398.25,640.72L1399.89,640.81L1400.05,640.81L1408.44,641.21L1408.6,642.88L1409.59,644.95L1409.75,644.95L1412.22,644.95L1412.38,645.88L1413.21,647.57L1413.37,647.57L1415.67,648.06L1415.84,648.35L1416.33,648.86L1416.49,650.4L1419.78,650.43L1419.95,651.69L1421.1,657.24L1421.26,657.24L1424.05,657.24L1424.22,658.12L1425.7,664.16L1425.86,664.16L1431.12,664.32L1431.29,666.73L1437.04,667.28L1437.21,667.52L1439.67,667.52L1439.84,673.65" style="vector-effect: none; fill: none; stroke: rgb(255, 195, 88); stroke-opacity: 1; stroke-width: 0px; opacity: 1;"/></g><g class="points"/><g class="text"/></g></g></g><g class="overplot"/><path class="xlines-above crisp" d="M79,820.5H1521M79,99.5H1521" style="fill: none; stroke-width: 1px; stroke: rgb(0, 0, 0); stroke-opacity: 1;"/><path class="ylines-above crisp" d="M79.5,100V820M1520.5,100V820" style="fill: none; stroke-width: 1px; stroke: rgb(0, 0, 0); stroke-opacity: 1;"/><g class="overlines-above"/><g class="xaxislayer-above"><path class="xtick ticks crisp" d="M0,821v5" transform="translate(80,0)" style="stroke: rgb(68, 68, 68); stroke-opacity: 1; stroke-width: 1px;"/><path class="xtick ticks crisp" d="M0,821v5" transform="translate(244.38,0)" style="stroke: rgb(68, 68, 68); stroke-opacity: 1; stroke-width: 1px;"/><path class="xtick ticks crisp" d="M0,821v5" transform="translate(408.77,0)" style="stroke: rgb(68, 68, 68); stroke-opacity: 1; stroke-width: 1px;"/><path class="xtick ticks crisp" d="M0,821v5" transform="translate(573.15,0)" style="stroke: rgb(68, 68, 68); stroke-opacity: 1; stroke-width: 1px;"/><path class="xtick ticks crisp" d="M0,821v5" transform="translate(737.53,0)" style="stroke: rgb(68, 68, 68); stroke-opacity: 1; stroke-width: 1px;"/><path class="xtick ticks crisp" d="M0,821v5" transform="translate(901.92,0)" style="stroke: rgb(68, 68, 68); stroke-opacity: 1; stroke-width: 1px;"/><path class="xtick ticks crisp" d="M0,821v5" transform="translate(1066.3,0)" style="stroke: rgb(68, 68, 68); stroke-opacity: 1; stroke-width: 1px;"/><path class="xtick ticks crisp" d="M0,821v5" transform="translate(1230.68,0)" style="stroke: rgb(68, 68, 68); stroke-opacity: 1; stroke-width: 1px;"/><path class="xtick ticks crisp" d="M0,821v5" transform="translate(1395.07,0)" style="stroke: rgb(68, 68, 68); stroke-opacity: 1; stroke-width: 1px;"/><g class="xtick"><text text-anchor="middle" x="0" y="859.6" transform="translate(80,0)" style="font-family: 'Avenir Next LT Pro'; font-size: 28px; fill: rgb(0, 0, 0); fill-opacity: 1; white-space: pre; opacity: 1;">0</text></g><g class="xtick"><text text-anchor="middle" x="0" y="859.6" style="font-family: 'Avenir Next LT Pro'; font-size: 28px; fill: rgb(0, 0, 0); fill-opacity: 1; white-space: pre; opacity: 1;" transform="translate(244.38,0)">1000</text></g><g class="xtick"><text text-anchor="middle" x="0" y="859.6" style="font-family: 'Avenir Next LT Pro'; font-size: 28px; fill: rgb(0, 0, 0); fill-opacity: 1; white-space: pre; opacity: 1;" transform="translate(408.77,0)">2000</text></g><g class="xtick"><text text-anchor="middle" x="0" y="859.6" style="font-family: 'Avenir Next LT Pro'; font-size: 28px; fill: rgb(0, 0, 0); fill-opacity: 1; white-space: pre; opacity: 1;" transform="translate(573.15,0)">3000</text></g><g class="xtick"><text text-anchor="middle" x="0" y="859.6" style="font-family: 'Avenir Next LT Pro'; font-size: 28px; fill: rgb(0, 0, 0); fill-opacity: 1; white-space: pre; opacity: 1;" transform="translate(737.53,0)">4000</text></g><g class="xtick"><text text-anchor="middle" x="0" y="859.6" style="font-family: 'Avenir Next LT Pro'; font-size: 28px; fill: rgb(0, 0, 0); fill-opacity: 1; white-space: pre; opacity: 1;" transform="translate(901.92,0)">5000</text></g><g class="xtick"><text text-anchor="middle" x="0" y="859.6" style="font-family: 'Avenir Next LT Pro'; font-size: 28px; fill: rgb(0, 0, 0); fill-opacity: 1; white-space: pre; opacity: 1;" transform="translate(1066.3,0)">6000</text></g><g class="xtick"><text text-anchor="middle" x="0" y="859.6" style="font-family: 'Avenir Next LT Pro'; font-size: 28px; fill: rgb(0, 0, 0); fill-opacity: 1; white-space: pre; opacity: 1;" transform="translate(1230.68,0)">7000</text></g><g class="xtick"><text text-anchor="middle" x="0" y="859.6" style="font-family: 'Avenir Next LT Pro'; font-size: 28px; fill: rgb(0, 0, 0); fill-opacity: 1; white-space: pre; opacity: 1;" transform="translate(1395.07,0)">8000</text></g></g><g class="yaxislayer-above"><path class="ytick ticks crisp" d="M79,0h-5" transform="translate(0,820)" style="stroke: rgb(68, 68, 68); stroke-opacity: 1; stroke-width: 1px;"/><path class="ytick ticks crisp" d="M79,0h-5" transform="translate(0,724.51)" style="stroke: rgb(68, 68, 68); stroke-opacity: 1; stroke-width: 1px;"/><path class="ytick ticks crisp" d="M79,0h-5" transform="translate(0,629.02)" style="stroke: rgb(68, 68, 68); stroke-opacity: 1; stroke-width: 1px;"/><path class="ytick ticks crisp" d="M79,0h-5" transform="translate(0,533.53)" style="stroke: rgb(68, 68, 68); stroke-opacity: 1; stroke-width: 1px;"/><path class="ytick ticks crisp" d="M79,0h-5" transform="translate(0,438.04)" style="stroke: rgb(68, 68, 68); stroke-opacity: 1; stroke-width: 1px;"/><path class="ytick ticks crisp" d="M79,0h-5" transform="translate(0,342.55)" style="stroke: rgb(68, 68, 68); stroke-opacity: 1; stroke-width: 1px;"/><path class="ytick ticks crisp" d="M79,0h-5" transform="translate(0,247.06)" style="stroke: rgb(68, 68, 68); stroke-opacity: 1; stroke-width: 1px;"/><path class="ytick ticks crisp" d="M79,0h-5" transform="translate(0,151.57)" style="stroke: rgb(68, 68, 68); stroke-opacity: 1; stroke-width: 1px;"/><g class="ytick"><text text-anchor="end" x="68.4" y="9.799999999999999" transform="translate(0,820)" style="font-family: 'Avenir Next LT Pro'; font-size: 28px; fill: rgb(0, 0, 0); fill-opacity: 1; white-space: pre; opacity: 1;">0</text></g><g class="ytick"><text text-anchor="end" x="68.4" y="9.799999999999999" style="font-family: 'Avenir Next LT Pro'; font-size: 28px; fill: rgb(0, 0, 0); fill-opacity: 1; white-space: pre; opacity: 1;" transform="translate(0,724.51)">2</text></g><g class="ytick"><text text-anchor="end" x="68.4" y="9.799999999999999" style="font-family: 'Avenir Next LT Pro'; font-size: 28px; fill: rgb(0, 0, 0); fill-opacity: 1; white-space: pre; opacity: 1;" transform="translate(0,629.02)">4</text></g><g class="ytick"><text text-anchor="end" x="68.4" y="9.799999999999999" style="font-family: 'Avenir Next LT Pro'; font-size: 28px; fill: rgb(0, 0, 0); fill-opacity: 1; white-space: pre; opacity: 1;" transform="translate(0,533.53)">6</text></g><g class="ytick"><text text-anchor="end" x="68.4" y="9.799999999999999" style="font-family: 'Avenir Next LT Pro'; font-size: 28px; fill: rgb(0, 0, 0); fill-opacity: 1; white-space: pre; opacity: 1;" transform="translate(0,438.04)">8</text></g><g class="ytick"><text text-anchor="end" x="68.4" y="9.799999999999999" style="font-family: 'Avenir Next LT Pro'; font-size: 28px; fill: rgb(0, 0, 0); fill-opacity: 1; white-space: pre; opacity: 1;" transform="translate(0,342.55)">10</text></g><g class="ytick"><text text-anchor="end" x="68.4" y="9.799999999999999" style="font-family: 'Avenir Next LT Pro'; font-size: 28px; fill: rgb(0, 0, 0); fill-opacity: 1; white-space: pre; opacity: 1;" transform="translate(0,247.06)">12</text></g><g class="ytick"><text text-anchor="end" x="68.4" y="9.799999999999999" style="font-family: 'Avenir Next LT Pro'; font-size: 28px; fill: rgb(0, 0, 0); fill-opacity: 1; white-space: pre; opacity: 1;" transform="translate(0,151.57)">14</text></g></g><g class="overaxes-above"/></g></g><g class="polarlayer"/><g class="smithlayer"/><g class="ternarylayer"/><g class="geolayer"/><g class="funnelarealayer"/><g class="pielayer"/><g class="iciclelayer"/><g class="treemaplayer"/><g class="sunburstlayer"/><g class="glimages"/><defs id="topdefs-68592c"><g class="clips"/><clipPath id="legend68592c"><rect width="305" height="238" x="0" y="0"/></clipPath></defs><g class="layer-above"><g class="imagelayer"/><g class="shapelayer"/></g><g class="infolayer"><g class="legend" pointer-events="all" transform="translate(94.4,114.4)"><rect class="bg" shape-rendering="crispEdges" width="305" height="238" x="0" y="0" style="stroke: rgb(68, 68, 68); stroke-opacity: 1; fill: rgb(0, 0, 0); fill-opacity: 0; stroke-width: 0px;"/><g class="scrollbox" transform="" clip-path="url(#legend68592c)"><g class="groups"><g class="traces" transform="translate(0,42.9)" style="opacity: 1;"><text class="legendtext" text-anchor="start" x="40" y="-7.28" style="font-family: 'Avenir Next LT Pro'; font-size: 28px; fill: rgb(0, 0, 0); fill-opacity: 1; white-space: pre;"><tspan class="line" dy="0em" x="40" y="-7.28">Spisslast:</tspan><tspan class="line" dy="1.3em" x="40" y="-7.28">5 491 kWh/år | 8 kW</tspan></text><g class="layers"><g class="legendfill"><path class="js-fill" d="M5,-2h30v6h-30z" style="stroke-width: 0; fill: rgb(255, 195, 88); fill-opacity: 0.5;"/></g><g class="legendlines"><path class="js-line" d="M5,-2h30" style="fill: none; stroke: rgb(255, 195, 88); stroke-opacity: 1; stroke-width: 0px;"/></g><g class="legendsymbols"><g class="legendpoints"/></g></g><rect class="legendtoggle" x="0" y="-37.9" width="299.75" height="75.8" style="fill: rgb(0, 0, 0); fill-opacity: 0;"/></g><g class="traces" transform="translate(0,118.69999999999999)" style="opacity: 1;"><text class="legendtext" text-anchor="start" x="40" y="-7.28" style="font-family: 'Avenir Next LT Pro'; font-size: 28px; fill: rgb(0, 0, 0); fill-opacity: 1; white-space: pre;"><tspan class="line" dy="0em" x="40" y="-7.28">Levert fra brønner:</tspan><tspan class="line" dy="1.3em" x="40" y="-7.28">27 084 kWh/år | 4 kW</tspan></text><g class="layers"><g class="legendfill"><path class="js-fill" d="M5,-2h30v6h-30z" style="stroke-width: 0; fill: rgb(72, 162, 63); fill-opacity: 0.5;"/></g><g class="legendlines"><path class="js-line" d="M5,-2h30" style="fill: none; stroke: rgb(72, 162, 63); stroke-opacity: 1; stroke-width: 0px;"/></g><g class="legendsymbols"><g class="legendpoints"/></g></g><rect class="legendtoggle" x="0" y="-37.9" width="299.75" height="75.8" style="fill: rgb(0, 0, 0); fill-opacity: 0;"/></g><g class="traces" transform="translate(0,194.5)" style="opacity: 1;"><text class="legendtext" text-anchor="start" x="40" y="-7.28" style="font-family: 'Avenir Next LT Pro'; font-size: 28px; fill: rgb(0, 0, 0); fill-opacity: 1; white-space: pre;"><tspan class="line" dy="0em" x="40" y="-7.28">Strøm til varmepumpe:</tspan><tspan class="line" dy="1.3em" x="40" y="-7.28">10 834 kWh/år | 2 kW</tspan></text><g class="layers"><g class="legendfill"><path class="js-fill" d="M5,-2h30v6h-30z" style="stroke-width: 0; fill: rgb(29, 60, 52); fill-opacity: 0.5;"/></g><g class="legendlines"><path class="js-line" d="M5,-2h30" style="fill: none; stroke: rgb(29, 60, 52); stroke-opacity: 1; stroke-width: 0px;"/></g><g class="legendsymbols"><g class="legendpoints"/></g></g><rect class="legendtoggle" x="0" y="-37.9" width="299.75" height="75.8" style="fill: rgb(0, 0, 0); fill-opacity: 0;"/></g></g></g><rect class="scrollbar" rx="20" ry="3" width="0" height="0" x="0" y="0" style="fill: rgb(128, 139, 164); fill-opacity: 1;"/></g><g class="g-gtitle"/><g class="g-xtitle" transform="translate(0,-20)"><text class="xtitle" x="800" y="914" text-anchor="middle" style="font-family: 'Avenir Next LT Pro'; font-size: 28px; fill: rgb(0, 0, 0); opacity: 1; font-weight: normal; white-space: pre;">Varighet [timer]</text></g><g class="g-ytitle" transform="translate(11,0)"><text class="ytitle" transform="rotate(-90,14,460)" x="14" y="460" text-anchor="middle" style="font-family: 'Avenir Next LT Pro'; font-size: 28px; fill: rgb(0, 0, 0); opacity: 1; font-weight: normal; white-space: pre;">Effekt [kW]</text></g></g></svg>