<svg class="main-svg" xmlns="http://www.w3.org/2000/svg" xmlns:xlink="http://www.w3.org/1999/xlink" width="1600" height="900" style="" viewBox="0 0 1600 900"><rect x="0" y="0" width="1600" height="900" style="fill: rgb(255, 255, 255); fill-opacity: 1;"/><defs id="defs-e17535"><g class="clips"><clipPath id="clipe17535xyplot" class="plotclip"><rect width="1440" height="720"/></clipPath><clipPath class="axesclip" id="clipe17535x"><rect x="80" y="0" width="1440" height="900"/></clipPath><clipPath class="axesclip" id="clipe17535y"><rect x="0" y="100" width="1600" height="720"/></clipPath><clipPath class="axesclip" id="clipe17535xy"><rect x="80" y="100" width="1440" height="720"/></clipPath></g><g class="gradients"/><g class="patterns"/></defs><g class="bglayer"><rect class="bg" x="80" y="100" width="1440" height="720" style="fill: rgb(255, 255, 255); fill-opacity: 1; stroke-width: 0;"/></g><g class="layer-below"><g class="imagelayer"/><g class="shapelayer"/></g><g class="cartesianlayer"><g class="subplot xy"><g class="layer-subplot"><g class="shapelayer"/><g class="imagelayer"/></g><g class="minor-gridlayer"><g class="x"/><g class="y"/></g><g class="gridlayer"><g class="x"><path class="xgrid crisp" transform="translate(356.92,0)" d="M0,100v720" style="stroke: rgb(211, 211, 211); stroke-opacity: 1; stroke-width: 1px;"/><path class="xgrid crisp" transform="translate(633.85,0)" d="M0,100v720" style="stroke: rgb(211, 211, 211); stroke-opacity: 1; stroke-width: 1px;"/><path class="xgrid crisp" transform="translate(910.77,0)" d="M0,100v720" style="stroke: rgb(211, 211, 211); stroke-opacity: 1; stroke-width: 1px;"/><path class="xgrid crisp" transform="translate(1187.69,0)" d="M0,100v720" style="stroke: rgb(211, 211, 211); stroke-opacity: 1; stroke-width: 1px;"/></g><g class="y"><path class="ygrid crisp" transform="translate(0,741.72)" d="M80,0h1440" style="stroke: rgb(211, 211, 211); stroke-opacity: 1; stroke-width: 1px;"/><path class="ygrid crisp" transform="translate(0,663.43)" d="M80,0h1440" style="stroke: rgb(211, 211, 211); stroke-opacity: 1; stroke-width: 1px;"/><path class="ygrid crisp" transform="translate(0,585.15)" d="M80,0h1440" style="stroke: rgb(211, 211, 211); stroke-opacity: 1; stroke-width: 1px;"/><path class="ygrid crisp" transform="translate(0,506.86)" d="M80,0h1440" style="stroke: rgb(211, 211, 211); stroke-opacity: 1; stroke-width: 1px;"/><path class="ygrid crisp" transform="translate(0,428.58)" d="M80,0h1440" style="stroke: rgb(211, 211, 211); stroke-opacity: 1; stroke-width: 1px;"/><path class="ygrid crisp" transform="translate(0,350.28999999999996)" d="M80,0h1440" style="stroke: rgb(211, 211, 211); stroke-opacity: 1; stroke-width: 1px;"/><path class="ygrid crisp" transform="translate(0,272.01)" d="M80,0h1440" style="stroke: rgb(211, 211, 211); stroke-opacity: 1; stroke-width: 1px;"/><path class="ygrid crisp" transform="translate(0,193.72)" d="M80,0h1440" style="stroke: rgb(211, 211, 211); stroke-opacity: 1; stroke-width: 1px;"/><path class="ygrid crisp" transform="translate(0,115.44)" d="M80,0h1440" style="stroke: rgb(211, 211, 211); stroke-opacity: 1; stroke-width: 1px;"/></g></g><g class="zerolinelayer"><path class="yzl zl crisp" transform="translate(0,820)" d="M80,0h1440" style="stroke: rgb(68, 68, 68); stroke-opacity: 1; stroke-width: 1px;"/></g><path class="xlines-below"/><path class="ylines-below"/><g class="overlines-below"/><g class="xaxislayer-below"/><g class="yaxislayer-below"/><g class="overaxes-below"/><g class="plot" transform="translate(80,100)" clip-path="url(#clipe17535xyplot)"><g class="barlayer mlayer"><g class="trace bars" style="opacity: 1;"><g class="points"><g class="point"><path d="M-22.15,720V438.18H0V720Z" style="vector-effect: none; opacity: 1; stroke-width: 0px; fill: rgb(72, 162, 63); fill-opacity: 1;"/></g><g class="point"><path d="M33.23,720V427.66H55.38V720Z" style="vector-effect: none; opacity: 1; stroke-width: 0px; fill: rgb(72, 162, 63); fill-opacity: 1;"/></g><g class="point"><path d="M88.62,720V417.15H110.77V720Z" style="vector-effect: none; opacity: 1; stroke-width: 0px; fill: rgb(72, 162, 63); fill-opacity: 1;"/></g><g class="point"><path d="M144,720V406.64H166.15V720Z" style="vector-effect: none; opacity: 1; stroke-width: 0px; fill: rgb(72, 162, 63); fill-opacity: 1;"/></g><g class="point"><path d="M199.38,720V396.13H221.54V720Z" style="vector-effect: none; opacity: 1; stroke-width: 0px; fill: rgb(72, 162, 63); fill-opacity: 1;"/></g><g class="point"><path d="M254.77,720V385.61H276.92V720Z" style="vector-effect: none; opacity: 1; stroke-width: 0px; fill: rgb(72, 162, 63); fill-opacity: 1;"/></g><g class="point"><path d="M310.15,720V375.1H332.31V720Z" style="vector-effect: none; opacity: 1; stroke-width: 0px; fill: rgb(72, 162, 63); fill-opacity: 1;"/></g><g class="point"><path d="M365.54,720V364.59H387.69V720Z" style="vector-effect: none; opacity: 1; stroke-width: 0px; fill: rgb(72, 162, 63); fill-opacity: 1;"/></g><g class="point"><path d="M420.92,720V354.08H443.08V720Z" style="vector-effect: none; opacity: 1; stroke-width: 0px; fill: rgb(72, 162, 63); fill-opacity: 1;"/></g><g class="point"><path d="M476.31,720V343.56H498.46V720Z" style="vector-effect: none; opacity: 1; stroke-width: 0px; fill: rgb(72, 162, 63); fill-opacity: 1;"/></g><g class="point"><path d="M531.69,720V333.05H553.85V720Z" style="vector-effect: none; opacity: 1; stroke-width: 0px; fill: rgb(72, 162, 63); fill-opacity: 1;"/></g><g class="point"><path d="M587.08,720V322.54H609.23V720Z" style="vector-effect: none; opacity: 1; stroke-width: 0px; fill: rgb(72, 162, 63); fill-opacity: 1;"/></g><g class="point"><path d="M642.46,720V312.03H664.62V720Z" style="vector-effect: none; opacity: 1; stroke-width: 0px; fill: rgb(72, 162, 63); fill-opacity: 1;"/></g><g class="point"><path d="M697.85,720V301.51H720V720Z" style="vector-effect: none; opacity: 1; stroke-width: 0px; fill: rgb(72, 162, 63); fill-opacity: 1;"/></g><g class="point"><path d="M753.23,720V291H775.38V720Z" style="vector-effect: none; opacity: 1; stroke-width: 0px; fill: rgb(72, 162, 63); fill-opacity: 1;"/></g><g class="point"><path d="M808.62,720V280.49H830.77V720Z" style="vector-effect: none; opacity: 1; stroke-width: 0px; fill: rgb(72, 162, 63); fill-opacity: 1;"/></g><g class="point"><path d="M864,720V269.98H886.15V720Z" style="vector-effect: none; opacity: 1; stroke-width: 0px; fill: rgb(72, 162, 63); fill-opacity: 1;"/></g><g class="point"><path d="M919.38,720V259.46H941.54V720Z" style="vector-effect: none; opacity: 1; stroke-width: 0px; fill: rgb(72, 162, 63); fill-opacity: 1;"/></g><g class="point"><path d="M974.77,720V248.95H996.92V720Z" style="vector-effect: none; opacity: 1; stroke-width: 0px; fill: rgb(72, 162, 63); fill-opacity: 1;"/></g><g class="point"><path d="M1030.15,720V238.44H1052.31V720Z" style="vector-effect: none; opacity: 1; stroke-width: 0px; fill: rgb(72, 162, 63); fill-opacity: 1;"/></g><g class="point"><path d="M1085.54,720V227.93H1107.69V720Z" style="vector-effect: none; opacity: 1; stroke-width: 0px; fill: rgb(72, 162, 63); fill-opacity: 1;"/></g><g class="point"><path d="M1140.92,720V217.41H1163.08V720Z" style="vector-effect: none; opacity: 1; stroke-width: 0px; fill: rgb(72, 162, 63); fill-opacity: 1;"/></g><g class="point"><path d="M1196.31,720V206.9H1218.46V720Z" style="vector-effect: none; opacity: 1; stroke-width: 0px; fill: rgb(72, 162, 63); fill-opacity: 1;"/></g><g class="point"><path d="M1251.69,720V196.39H1273.85V720Z" style="vector-effect: none; opacity: 1; stroke-width: 0px; fill: rgb(72, 162, 63); fill-opacity: 1;"/></g><g class="point"><path d="M1307.08,720V185.88H1329.23V720Z" style="vector-effect: none; opacity: 1; stroke-width: 0px; fill: rgb(72, 162, 63); fill-opacity: 1;"/></g><g class="point"><path d="M1362.46,720V175.36H1384.62V720Z" style="vector-effect: none; opacity: 1; stroke-width: 0px; fill: rgb(72, 162, 63); fill-opacity: 1;"/></g></g></g><g class="trace bars" style="opacity: 1;"><g class="points"><g class="point"><path d="M0,0Z" style="vector-effect: none; opacity: 1; stroke-width: 0px; fill: rgb(29, 60, 52); fill-opacity: 1;"/></g><g class="point"><path d="M55.38,720V692.64H77.54V720Z" style="vector-effect: none; opacity: 1; stroke-width: 0px; fill: rgb(29, 60, 52); fill-opacity: 1;"/></g><g class="point"><path d="M110.77,720V665.28H132.92V720Z" style="vector-effect: none; opacity: 1; stroke-width: 0px; fill: rgb(29, 60, 52); fill-opacity: 1;"/></g><g class="point"><path d="M166.15,720V637.92H188.31V720Z" style="vector-effect: none; opacity: 1; stroke-width: 0px; fill: rgb(29, 60, 52); fill-opacity: 1;"/></g><g class="point"><path d="M221.54,720V610.56H243.69V720Z" style="vector-effect: none; opacity: 1; stroke-width: 0px; fill: rgb(29, 60, 52); fill-opacity: 1;"/></g><g class="point"><path d="M276.92,720V583.2H299.08V720Z" style="vector-effect: none; opacity: 1; stroke-width: 0px; fill: rgb(29, 60, 52); fill-opacity: 1;"/></g><g class="point"><path d="M332.31,720V555.84H354.46V720Z" style="vector-effect: none; opacity: 1; stroke-width: 0px; fill: rgb(29, 60, 52); fill-opacity: 1;"/></g><g class="point"><path d="M387.69,720V528.48H409.85V720Z" style="vector-effect: none; opacity: 1; stroke-width: 0px; fill: rgb(29, 60, 52); fill-opacity: 1;"/></g><g class="point"><path d="M443.08,720V501.12H465.23V720Z" style="vector-effect: none; opacity: 1; stroke-width: 0px; fill: rgb(29, 60, 52); fill-opacity: 1;"/></g><g class="point"><path d="M498.46,720V473.76H520.62V720Z" style="vector-effect: none; opacity: 1; stroke-width: 0px; fill: rgb(29, 60, 52); fill-opacity: 1;"/></g><g class="point"><path d="M553.85,720V446.4H576V720Z" style="vector-effect: none; opacity: 1; stroke-width: 0px; fill: rgb(29, 60, 52); fill-opacity: 1;"/></g><g class="point"><path d="M609.23,720V419.04H631.38V720Z" style="vector-effect: none; opacity: 1; stroke-width: 0px; fill: rgb(29, 60, 52); fill-opacity: 1;"/></g><g class="point"><path d="M664.62,720V391.68H686.77V720Z" style="vector-effect: none; opacity: 1; stroke-width: 0px; fill: rgb(29, 60, 52); fill-opacity: 1;"/></g><g class="point"><path d="M720,720V364.32H742.15V720Z" style="vector-effect: none; opacity: 1; stroke-width: 0px; fill: rgb(29, 60, 52); fill-opacity: 1;"/></g><g class="point"><path d="M775.38,720V336.96H797.54V720Z" style="vector-effect: none; opacity: 1; stroke-width: 0px; fill: rgb(29, 60, 52); fill-opacity: 1;"/></g><g class="point"><path d="M830.77,720V309.6H852.92V720Z" style="vector-effect: none; opacity: 1; stroke-width: 0px; fill: rgb(29, 60, 52); fill-opacity: 1;"/></g><g class="point"><path d="M886.15,720V282.24H908.31V720Z" style="vector-effect: none; opacity: 1; stroke-width: 0px; fill: rgb(29, 60, 52); fill-opacity: 1;"/></g><g class="point"><path d="M941.54,720V254.88H963.69V720Z" style="vector-effect: none; opacity: 1; stroke-width: 0px; fill: rgb(29, 60, 52); fill-opacity: 1;"/></g><g class="point"><path d="M996.92,720V227.52H1019.08V720Z" style="vector-effect: none; opacity: 1; stroke-width: 0px; fill: rgb(29, 60, 52); fill-opacity: 1;"/></g><g class="point"><path d="M1052.31,720V200.16H1074.46V720Z" style="vector-effect: none; opacity: 1; stroke-width: 0px; fill: rgb(29, 60, 52); fill-opacity: 1;"/></g><g class="point"><path d="M1107.69,720V172.8H1129.85V720Z" style="vector-effect: none; opacity: 1; stroke-width: 0px; fill: rgb(29, 60, 52); fill-opacity: 1;"/></g><g class="point"><path d="M1163.08,720V145.44H1185.23V720Z" style="vector-effect: none; opacity: 1; stroke-width: 0px; fill: rgb(29, 60, 52); fill-opacity: 1;"/></g><g class="point"><path d="M1218.46,720V118.08H1240.62V720Z" style="vector-effect: none; opacity: 1; stroke-width: 0px; fill: rgb(29, 60, 52); fill-opacity: 1;"/></g><g class="point"><path d="M1273.85,720V90.72H1296V720Z" style="vector-effect: none; opacity: 1; stroke-width: 0px; fill: rgb(29, 60, 52); fill-opacity: 1;"/></g><g class="point"><path d="M1329.23,720V63.36H1351.38V720Z" style="vector-effect: none; opacity: 1; stroke-width: 0px; fill: rgb(29, 60, 52); fill-opacity: 1;"/></g><g class="point"><path d="M1384.62,720V36H1406.77V720Z" style="vector-effect: none; opacity: 1; stroke-width: 0px; fill: rgb(29, 60, 52); fill-opacity: 1;"/></g></g></g></g></g><g class="overplot"/><path class="xlines-above crisp" d="M79,820.5H1521M79,99.5H1521" style="fill: none; stroke-width: 1px; stroke: rgb(0, 0, 0); stroke-opacity: 1;"/><path class="ylines-above crisp" d="M79.5,100V820M1520.5,100V820" style="fill: none; stroke-width: 1px; stroke: rgb(0, 0, 0); stroke-opacity: 1;"/><g class="overlines-above"/><g class="xaxislayer-above"><path class="xtick ticks crisp" d="M0,821v5" transform="translate(80,0)" style="stroke: rgb(68, 68, 68); stroke-opacity: 1; stroke-width: 1px;"/><path class="xtick ticks crisp" d="M0,821v5" transform="translate(356.92,0)" style="stroke: rgb(68, 68, 68); stroke-opacity: 1; stroke-width: 1px;"/><path class="xtick ticks crisp" d="M0,821v5" transform="translate(633.85,0)" style="stroke: rgb(68, 68, 68); stroke-opacity: 1; stroke-width: 1px;"/><path class="xtick ticks crisp" d="M0,821v5" transform="translate(910.77,0)" style="stroke: rgb(68, 68, 68); stroke-opacity: 1; stroke-width: 1px;"/><path class="xtick ticks crisp" d="M0,821v5" transform="translate(1187.69,0)" style="stroke: rgb(68, 68, 68); stroke-opacity: 1; stroke-width: 1px;"/><g class="xtick"><text text-anchor="middle" x="0" y="859.6" transform="translate(80,0)" style="font-family: 'Avenir Next LT Pro'; font-size: 28px; fill: rgb(0, 0, 0); fill-opacity: 1; white-space: pre; opacity: 1;">0</text></g><g class="xtick"><text text-anchor="middle" x="0" y="859.6" style="font-family: 'Avenir Next LT Pro'; font-size: 28px; fill: rgb(0, 0, 0); fill-opacity: 1; white-space: pre; opacity: 1;" transform="translate(356.92,0)">5</text></g><g class="xtick"><text text-anchor="middle" x="0" y="859.6" style="font-family: 'Avenir Next LT Pro'; font-size: 28px; fill: rgb(0, 0, 0); fill-opacity: 1; white-space: pre; opacity: 1;" transform="translate(633.85,0)">10</text></g><g class="xtick"><text text-anchor="middle" x="0" y="859.6" style="font-family: 'Avenir Next LT Pro'; font-size: 28px; fill: rgb(0, 0, 0); fill-opacity: 1; white-space: pre; opacity: 1;" transform="translate(910.77,0)">15</text></g><g class="xtick"><text text-anchor="middle" x="0" y="859.6" style="font-family: 'Avenir Next LT Pro'; font-size: 28px; fill: rgb(0, 0, 0); fill-opacity: 1; white-space: pre; opacity: 1;" transform="translate(1187.69,0)">20</text></g></g><g class="yaxislayer-above"><path class="ytick ticks crisp" d="M79,0h-5" transform="translate(0,820)" style="stroke: rgb(68, 68, 68); stroke-opacity: 1; stroke-width: 1px;"/><path class="ytick ticks crisp" d="M79,0h-5" transform="translate(0,741.72)" style="stroke: rgb(68, 68, 68); stroke-opacity: 1; stroke-width: 1px;"/><path class="ytick ticks crisp" d="M79,0h-5" transform="translate(0,663.43)" style="stroke: rgb(68, 68, 68); stroke-opacity: 1; stroke-width: 1px;"/><path class="ytick ticks crisp" d="M79,0h-5" transform="translate(0,585.15)" style="stroke: rgb(68, 68, 68); stroke-opacity: 1; stroke-width: 1px;"/><path class="ytick ticks crisp" d="M79,0h-5" transform="translate(0,506.86)" style="stroke: rgb(68, 68, 68); stroke-opacity: 1; stroke-width: 1px;"/><path class="ytick ticks crisp" d="M79,0h-5" transform="translate(0,428.58)" style="stroke: rgb(68, 68, 68); stroke-opacity: 1; stroke-width: 1px;"/><path class="ytick ticks crisp" d="M79,0h-5" transform="translate(0,350.28999999999996)" style="stroke: rgb(68, 68, 68); stroke-opacity: 1; stroke-width: 1px;"/><path class="ytick ticks crisp" d="M79,0h-5" transform="translate(0,272.01)" style="stroke: rgb(68, 68, 68); stroke-opacity: 1; stroke-width: 1px;"/><path class="ytick ticks crisp" d="M79,0h-5" transform="translate(0,193.72)" style="stroke: rgb(68, 68, 68); stroke-opacity: 1; stroke-width: 1px;"/><path class="ytick ticks crisp" d="M79,0h-5" transform="translate(0,115.44)" style="stroke: rgb(68, 68, 68); stroke-opacity: 1; stroke-width: 1px;"/><g class="ytick"><text text-anchor="end" x="68.4" y="9.799999999999999" transform="translate(0,820)" style="font-family: 'Avenir Next LT Pro'; font-size: 28px; fill: rgb(0, 0, 0); fill-opacity: 1; white-space: pre; opacity: 1;">0</text></g><g class="ytick"><text text-anchor="end" x="68.4" y="9.799999999999999" style="font-family: 'Avenir Next LT Pro'; font-size: 28px; fill: rgb(0, 0, 0); fill-opacity: 1; white-space: pre; opacity: 1;" transform="translate(0,741.72)">100 000</text></g><g class="ytick"><text text-anchor="end" x="68.4" y="9.799999999999999" style="font-family: 'Avenir Next LT Pro'; font-size: 28px; fill: rgb(0, 0, 0); fill-opacity: 1; white-space: pre; opacity: 1;" transform="translate(0,663.43)">200 000</text></g><g class="ytick"><text text-anchor="end" x="68.4" y="9.799999999999999" style="font-family: 'Avenir Next LT Pro'; font-size: 28px; fill: rgb(0, 0, 0); fill-opacity: 1; white-space: pre; opacity: 1;" transform="translate(0,585.15)">300 000</text></g><g class="ytick"><text text-anchor="end" x="68.4" y="9.799999999999999" style="font-family: 'Avenir Next LT Pro'; font-size: 28px; fill: rgb(0, 0, 0); fill-opacity: 1; white-space: pre; opacity: 1;" transform="translate(0,506.86)">400 000</text></g><g class="ytick"><text text-anchor="end" x="68.4" y="9.799999999999999" style="font-family: 'Avenir Next LT Pro'; font-size: 28px; fill: rgb(0, 0, 0); fill-opacity: 1; white-space: pre; opacity: 1;" transform="translate(0,428.58)">500 000</text></g><g class="ytick"><text text-anchor="end" x="68.4" y="9.799999999999999" style="font-family: 'Avenir Next LT Pro'; font-size: 28px; fill: rgb(0, 0, 0); fill-opacity: 1; white-space: pre; opacity: 1;" transform="translate(0,350.28999999999996)">600 000</text></g><g class="ytick"><text text-anchor="end" x="68.4" y="9.799999999999999" style="font-family: 'Avenir Next LT Pro'; font-size: 28px; fill: rgb(0, 0, 0); fill-opacity: 1; white-space: pre; opacity: 1;" transform="translate(0,272.01)">700 000</text></g><g class="ytick"><text text-anchor="end" x="68.4" y="9.799999999999999" style="font-family: 'Avenir Next LT Pro'; font-size: 28px; fill: rgb(0, 0, 0); fill-opacity: 1; white-space: pre; opacity: 1;" transform="translate(0,193.72)">800 000</text></g><g class="ytick"><text text-anchor="end" x="68.4" y="9.799999999999999" style="font-family: 'Avenir Next LT Pro'; font-size: 28px; fill: rgb(0, 0, 0); fill-opacity: 1; white-space: pre; opacity: 1;" transform="translate(0,115.44)">900 000</text></g></g><g class="overaxes-above"/></g></g><g class="polarlayer"/><g class="smithlayer"/><g class="ternarylayer"/><g class="geolayer"/><g class="funnelarealayer"/><g class="pielayer"/><g class="iciclelayer"/><g class="treemaplayer"/><g class="sunburstlayer"/><g class="glimages"/><defs id="topdefs-e17535"><g class="clips"/><clipPath id="legende17535"><rect width="241" height="162" x="0" y="0"/></clipPath></defs><g class="layer-above"><g class="imagelayer"/><g class="shapelayer"/></g><g class="infolayer"><g class="legend" pointer-events="all" transform="translate(94.4,114.4)"><rect class="bg" shape-rendering="crispEdges" width="241" height="162" x="0" y="0" style="stroke: rgb(68, 68, 68); stroke-opacity: 1; fill: rgb(0, 0, 0); fill-opacity: 0; stroke-width: 0px;"/><g class="scrollbox" transform="" clip-path="url(#legende17535)"><g class="groups"><g class="traces" transform="translate(0,42.9)" style="opacity: 1;"><text class="legendtext" text-anchor="start" x="40" y="-7.28" style="font-family: 'Avenir Next LT Pro'; font-size: 28px; fill: rgb(0, 0, 0); fill-opacity: 1; white-space: pre;"><tspan class="line" dy="0em" x="40" y="-7.28">Bergvarme:</tspan><tspan class="line" dy="1.3em" x="40" y="-7.28">695 700 kr</tspan></text><g class="layers" style="opacity: 1;"><g class="legendfill"/><g class="legendlines"/><g class="legendsymbols"><g class="legendpoints"><path class="legendundefined" d="M6,6H-6V-6H6Z" transform="translate(20,0)" style="stroke-width: 0px; fill: rgb(72, 162, 63); fill-opacity: 1;"/></g></g></g><rect class="legendtoggle" x="0" y="-37.9" width="235.15625" height="75.8" style="fill: rgb(0, 0, 0); fill-opacity: 0;"/></g><g class="traces" transform="translate(0,118.69999999999999)" style="opacity: 1;"><text class="legendtext" text-anchor="start" x="40" y="-7.28" style="font-family: 'Avenir Next LT Pro'; font-size: 28px; fill: rgb(0, 0, 0); fill-opacity: 1; white-space: pre;"><tspan class="line" dy="0em" x="40" y="-7.28">Direkte elektrisk:</tspan><tspan class="line" dy="1.3em" x="40" y="-7.28">873 700 kr</tspan></text><g class="layers" style="opacity: 1;"><g class="legendfill"/><g class="legendlines"/><g class="legendsymbols"><g class="legendpoints"><path class="legendundefined" d="M6,6H-6V-6H6Z" transform="translate(20,0)" style="stroke-width: 0px; fill: rgb(29, 60, 52); fill-opacity: 1;"/></g></g></g><rect class="legendtoggle" x="0" y="-37.9" width="235.15625" height="75.8" style="fill: rgb(0, 0, 0); fill-opacity: 0;"/></g></g></g><rect class="scrollbar" rx="20" ry="3" width="0" height="0" x="0" y="0" style="fill: rgb(128, 139, 164); fill-opacity: 1;"/></g><g class="g-gtitle"/><g class="g-xtitle" transform="translate(0,-20)"><text class="xtitle" x="800" y="914" text-anchor="middle" style="font-family: 'Avenir Next LT Pro'; font-size: 28px; fill: rgb(0, 0, 0); opacity: 1; font-weight: normal; white-space: pre;">År</text></g><g class="g-ytitle" transform="translate(11,0)"><text class="ytitle" transform="rotate(-90,14,460)" x="14" y="460" text-anchor="middle" style="font-family: 'Avenir Next LT Pro'; font-size: 28px; fill: rgb(0, 0, 0); opacity: 1; font-weight: normal; white-space: pre;">Oppvarmingskostnader [kr]</text></g></g></svg>