<svg class="main-svg" xmlns="http://www.w3.org/2000/svg" xmlns:xlink="http://www.w3.org/1999/xlink" width="700" height="500" style="" viewBox="0 0 700 500"><rect x="0" y="0" width="700" height="500" style="fill: rgb(255, 255, 255); fill-opacity: 1;"/><defs id="defs-af61da"><g class="clips"><clipPath id="clipaf61daxyplot" class="plotclip"><rect width="600" height="480"/></clipPath><clipPath class="axesclip" id="clipaf61dax"><rect x="50" y="0" width="600" height="500"/></clipPath><clipPath class="axesclip" id="clipaf61day"><rect x="0" y="10" width="700" height="480"/></clipPath><clipPath class="axesclip" id="clipaf61daxy"><rect x="50" y="10" width="600" height="480"/></clipPath></g><g class="gradients"/><g class="patterns"/></defs><g class="bglayer"><rect class="bg" x="40" y="0" width="620" height="500" style="fill: rgb(255, 255, 255); fill-opacity: 1; stroke-width: 0;"/></g><g class="layer-below"><g class="imagelayer"/><g class="shapelayer"/></g><g class="cartesianlayer"><g class="subplot xy"><g class="layer-subplot"><g class="shapelayer"/><g class="imagelayer"/></g><g class="minor-gridlayer"><g class="x"/><g class="y"/></g><g class="gridlayer"><g class="x"><path class="xgrid crisp" transform="translate(170,0)" d="M0,10v480" style="stroke: rgb(211, 211, 211); stroke-opacity: 1; stroke-width: 1px;"/><path class="xgrid crisp" transform="translate(290,0)" d="M0,10v480" style="stroke: rgb(211, 211, 211); stroke-opacity: 1; stroke-width: 1px;"/><path class="xgrid crisp" transform="translate(410,0)" d="M0,10v480" style="stroke: rgb(211, 211, 211); stroke-opacity: 1; stroke-width: 1px;"/><path class="xgrid crisp" transform="translate(530,0)" d="M0,10v480" style="stroke: rgb(211, 211, 211); stroke-opacity: 1; stroke-width: 1px;"/></g><g class="y"><path class="ygrid crisp" transform="translate(0,383.33)" d="M50,0h600" style="stroke: rgb(211, 211, 211); stroke-opacity: 1; stroke-width: 1px;"/><path class="ygrid crisp" transform="translate(0,330)" d="M50,0h600" style="stroke: rgb(211, 211, 211); stroke-opacity: 1; stroke-width: 1px;"/><path class="ygrid crisp" transform="translate(0,276.67)" d="M50,0h600" style="stroke: rgb(211, 211, 211); stroke-opacity: 1; stroke-width: 1px;"/><path class="ygrid crisp" transform="translate(0,223.33)" d="M50,0h600" style="stroke: rgb(211, 211, 211); stroke-opacity: 1; stroke-width: 1px;"/><path class="ygrid crisp" transform="translate(0,170)" d="M50,0h600" style="stroke: rgb(211, 211, 211); stroke-opacity: 1; stroke-width: 1px;"/><path class="ygrid crisp" transform="translate(0,116.67)" d="M50,0h600" style="stroke: rgb(211, 211, 211); stroke-opacity: 1; stroke-width: 1px;"/><path class="ygrid crisp" transform="translate(0,63.33)" d="M50,0h600" style="stroke: rgb(211, 211, 211); stroke-opacity: 1; stroke-width: 1px;"/></g></g><g class="zerolinelayer"><path class="xzl zl crisp" transform="translate(50,0)" d="M0,10v480" style="stroke: rgb(68, 68, 68); stroke-opacity: 1; stroke-width: 1px;"/><path class="yzl zl crisp" transform="translate(0,436.67)" d="M50,0h600" style="stroke: rgb(68, 68, 68); stroke-opacity: 1; stroke-width: 1px;"/></g><path class="xlines-below"/><path class="ylines-below"/><g class="overlines-below"/><g class="xaxislayer-below"/><g class="yaxislayer-below"/><g class="overaxes-below"/><g class="plot" transform="translate(50,10)" clip-path="url(#clipaf61daxyplot)"><g class="scatterlayer mlayer"><g class="trace scatter trace7213cd" style="stroke-miterlimit: 2; opacity: 1;"><g class="fills"/><g class="errorbars"/><g class="lines"><path class="js-line" d="M0,213.33L0.75,423.25L0.76,423.38L1,396.15L1.51,437.26L1.52,437.3L1.58,438.16L1.58,428.2L1.59,425.88L2.11,405.56L2.3,444.53L2.34,443.23L2.35,443.43L2.44,405.44L3.1,450.31L3.11,450.34L3.75,454.37L3.75,450.84L3.76,448.62L4.15,422.22L4.51,456.41L4.52,456.44L4.74,449.38L4.8,458.4L4.8,453.03L4.8,445.95L5.19,459.29L5.3,375.76L5.5,454.57L5.5,454.98L5.52,456.08L5.52,435.1L5.53,418.72L5.93,384.86L6.18,454.76L6.28,423.78L6.29,418.26L6.64,456.4L6.88,363.15L7.04,377.78L7.05,378.75L7.34,356.82L7.75,453.08L7.8,442.51L7.81,449.62L7.81,452.3L8.55,329.29L8.56,329.99L8.7,414.85L9.28,317.09L9.31,328.67L9.32,329.68L9.48,311.96L9.69,414.19L10.07,319.14L10.08,332.2L10.58,365.18L10.79,312.82L10.83,326.52L10.84,327.82L10.92,301.73L11.46,369.98L11.59,325.13L11.6,332.6L11.63,337.72L12.05,307.46L12.35,324.46L12.36,323.17L12.45,357.62L13.1,287.99L13.11,305.29L13.12,305.71L13.62,283.96L13.84,319.22L13.87,307.95L13.88,304.34L14.3,365.63L14.61,300.16L14.63,313.17L14.64,312.46L14.74,295.95L15.34,372.39L15.39,314.22L15.4,316.29L15.73,304.99L16,371.97L16.15,319.49L16.16,319.92L16.58,307.08L16.85,411.89L16.91,379.34L16.92,404.48L16.98,418.11L17.5,313.38L17.67,389.64L17.68,391.64L17.92,337.4L18.4,441.29L18.43,428.69L18.44,437.56L18.81,343.09L19.19,446.37L19.2,441.63L19.4,341.22L19.78,450.23L19.95,443.81L19.96,442.14L20.46,383.93L20.64,456.64L20.71,406.84L20.72,397.34L20.72,386.45L21.47,467.12L21.48,467.18L21.56,468.22L21.57,458.16L21.57,450.66L22.16,471.67L22.23,437.11L22.32,457.84L22.33,457.35L22.36,444.14L23.01,474.69L23.08,462.1L23.09,459.61L23.27,475.75L23.55,419.37L23.84,475.52L23.85,475.55L24,476.8L24,471.86L24,463.13L24.34,422.81L24.71,478.05L24.72,478.07L25,446.15L25.47,480.57L25.48,480.58L25.58,480.98L25.58,475.16L26.07,482.16L26.11,444.18L26.33,479.7L26.34,479.97L26.44,442.03L27.15,483.91L27.16,483.92L27.75,485.47L27.75,481.93L27.94,485.83L28.16,452.03L28.55,485.69L28.56,485.71L28.73,486.54L28.74,484.2L28.74,480.43L29.19,486.6L29.3,402.86L29.49,477.89L29.5,478.33L29.52,482.7L29.93,410.74L30.25,439.83L30.26,442.48L30.64,481.18L30.88,387.58L31.01,429.27L31.02,437.18L31.34,380.66L31.75,476.45L31.77,438.27L31.78,467.69L31.81,475.59L32.49,361.71L32.53,367.77L32.54,368L32.7,437.19L33.28,338.91L33.29,350.32L33.3,358.38L33.48,333.62L33.69,435.66L34.05,354.18L34.06,349.8L34.58,385.94L34.79,333.42L34.81,345.71L34.82,343.88L34.92,322.23L35.46,390.08L35.57,358.16L35.58,353.11L35.63,357.71L36.05,327.18L36.33,335.52L36.34,337.1L36.45,377.08L37.03,307.51L37.09,307.62L37.1,307.1L37.62,302.81L37.84,337.95L37.85,331.81L37.86,332.83L38.3,384.13L38.61,318.55L38.61,337.59L38.62,345.61L38.74,314.27L39.34,390.47L39.37,340.99L39.38,374.45L39.73,322.88L40,389.73L40.13,345.35L40.14,345.72L40.58,324.55L40.85,429.22L40.89,417.12L40.9,409.52L40.98,435.39L41.5,330.46L41.65,348.7L41.66,366.37L41.66,346.02L42.4,458.04L42.41,425.15L42.42,423.49L42.6,461.19L42.81,359.69L43.17,434.44L43.18,435.78L43.4,357.61L43.78,466.48L43.93,420.65L43.94,429.33L44.46,399.98L44.64,472.65L44.69,452.6L44.7,454.7L44.72,402.44L45.5,483.37L45.51,479.77L46.09,487.17L46.23,452.58L46.29,484.14L46.29,467.49L46.3,453.46L47.01,489.92L47.08,488.25L47.08,481.2L47.55,434.46L48,491.76L48,486.82L48.34,437.68L48.79,493.07L48.79,482.81L48.8,481.55L49,460.84L49.58,495.54L49.64,485.92L49.65,477.52L50.07,496.61L50.11,458.62L50.43,482.67L50.43,471.55L50.44,456.41L51.43,498.83L51.43,498.83L51.44,498.84L51.75,499.5L51.75,495.96L52.16,465.96L52.73,500.36L52.74,498.03L52.74,494.25L52.8,500.37L53.3,416.58L53.52,495.48L53.52,475.39L53.93,424.34L54.18,493.78L54.27,484.52L54.28,476.49L54.64,494.65L54.88,401L55.03,437.77L55.04,428.31L55.34,394L55.75,489.71L55.79,467.14L55.8,468.87L55.81,488.84L56.55,364.83L56.56,365.53L56.7,450.23L57.28,351.8L57.31,363.35L57.32,364.37L57.48,346.47L57.69,448.44L58.07,353.01L58.08,366.07L58.58,398.58L58.79,346.02L58.83,359.68L58.84,360.98L58.92,334.81L59.46,402.57L59.59,357.62L59.6,365.08L59.63,370.18L60.05,339.57L60.35,356.34L60.36,355.04L60.45,389.41L61.1,319.31L61.11,336.6L61.12,337.02L61.62,314.93L61.84,350.03L61.87,338.73L61.88,335.12L62.3,396.14L62.61,330.5L62.63,343.49L62.64,342.77L62.74,326.2L63.34,402.29L63.39,344.09L63.4,346.15L63.73,334.66L64,401.48L64.14,354.36L64.15,352.64L64.58,336.24L64.85,440.88L64.9,393.66L64.91,396.26L64.98,447.04L65.5,342.07L65.66,357.69L65.67,358.43L66.4,469.56L66.42,434.7L66.43,438.85L66.6,472.69L66.81,371.17L67.18,471.27L67.19,472.3L67.4,369.02L67.78,477.82L67.94,472.1L67.95,473.93L68.46,411.21L68.64,483.85L68.7,461.62L68.71,452.34L68.72,413.62L69.56,494.99L69.57,484.94L70.09,498.18L70.23,463.57L70.36,484.56L70.36,475.98L70.36,470.53L71.27,501.76L71.28,496.47L71.28,488.09L71.55,445.28L72,502.52L72.07,490.78L72.07,480.23L72.34,448.4L72.92,504.32L72.93,488.85L72.93,486.56L73,471.47L73.58,506.08L73.71,484.4L73.72,480.36L74.07,507.09L74.44,466.83L74.5,484.24L74.5,480.7L74.57,478.03L75.41,509.12L75.42,509.12L75.75,509.8L75.75,506.26L76.16,476.22L76.73,510.58L76.8,505.21L76.8,498.11L77.19,510.52L77.3,426.75L77.52,485.54L77.53,469.16L77.93,434.46L78.18,503.87L78.28,472.68L78.29,467.15L78.64,504.7L78.88,411.03L79.04,425.36L79.05,426.33L79.34,403.96L79.75,499.62L79.82,484.69L79.82,475.93L79.85,495.29L80.55,374.66L80.6,419.47L80.61,419.37L80.7,460.05L81.28,361.58L81.36,377L81.37,374.4L81.48,356.23L81.69,458.2L82.12,370.76L82.13,367.33L82.58,408.26L82.86,354.84L82.88,363.24L82.89,362.52L82.92,344.47L83.46,412.19L83.64,359.64L83.65,357.55L83.66,377.29L84.05,349.15L84.4,358.85L84.41,360.6L84.45,398.95L85.16,328.42L85.16,329.28L85.17,334.03L85.62,324.38L85.9,361.16L85.92,355.49L85.93,357.37L86.3,405.52L86.61,339.85L86.68,361.77L86.69,362.81L86.74,335.55L87.34,411.59L87.44,362.63L87.45,361.31L87.73,343.93L88.2,413.44L88.21,412.1L88.58,345.44L88.92,455.01L88.96,417.84L88.97,408.92L88.98,456.21L89.5,351.2L89.72,415.42L89.73,415.28L89.92,374.98L90.47,479.54L90.48,448.2L90.49,448.04L90.81,380.14L91.19,483.2L91.24,461.88L91.25,470.51L91.4,377.93L91.98,489L92,445.97L92.01,479.64L92.46,420.07L92.64,492.69L92.77,481.72L92.77,475.52L92.79,437.4L93.56,503.78L93.57,486.22L93.57,482.42L93.58,480.74L94.09,506.93L94.22,487.17L94.23,475.94L94.23,472.32L95.27,510.45L95.28,505.15L95.28,496.77L95.55,453.95L96,511.16L96.07,488.86L96.07,481.53L96.34,457.01L96.92,512.89L96.99,500.06L96.99,490.37L97,480.04L98.07,515.58L98.07,506.3L98.08,497.78L98.44,475.3L99.41,517.53L99.42,517.54L99.75,518.19L99.75,514.65L100.16,484.58L100.73,518.9L100.93,518.77L100.93,504.97L101.19,518.8L101.3,435.02L101.72,485.75L101.72,481.99L101.93,442.67L102.18,512.06L102.52,486.42L102.52,481.64L102.64,512.85L102.88,419.16L103.27,471.58L103.28,479.5L103.34,412.08L103.75,507.72L104.03,453.57L104.04,459.91L104.04,497.9L104.55,382.72L104.79,443.55L104.8,442.43L104.96,455L105.48,364.25L105.55,390.22L105.56,384.91L105.69,466.2L106.21,365.3L106.31,381.27L106.32,381.59L106.58,416.22L106.92,352.41L107.07,380.78L107.08,380.1L107.13,356.83L107.46,420.1L107.83,370.14L107.84,364.77L108.45,406.8L108.57,341.91L108.59,354.31L108.6,352.71L108.72,393.55L109.29,335.57L109.35,340.05L109.36,340.74L109.62,332.17L110.09,373.88L110.11,360.66L110.12,362.43L110.3,413.28L110.74,343.28L110.87,353.26L110.88,366.41L111.2,349.47L111.34,419.29L111.63,368.87L111.64,370.04L111.73,351.61L112.26,431.8L112.39,379.5L112.4,379.35L112.58,353.06L112.98,463.79L113.15,408.97L113.16,405.57L113.5,358.73L113.84,464.17L113.91,396.78L113.92,391.59L113.92,382.48L114.6,489.15L114.67,446.96L114.68,438.47L115.19,490.64L115.4,385.35L115.43,431.23L115.44,430.84L115.67,416.75L115.98,496.39L116.19,447.05L116.2,448.08L116.46,427.43L116.97,502.16L116.97,491.26L116.98,476.16L116.98,462.45L118.09,514.21L118.1,503.75L118.1,503.37L118.23,479.58L119.27,517.66L119.28,512.36L119.28,503.98L119.55,461.14L120,518.32L120.13,490.94L120.13,482.26L120.34,464.15L120.92,520.01L120.99,497.48L120.99,491.4L121,487.15L122.07,522.64L122.08,504.84L122.08,501.76L122.44,482.34L123.52,524.74L123.52,524.74L123.53,524.75L123.75,525.16L123.75,521.62L124.16,491.53L124.73,525.83L124.93,511.88L124.93,503.91L125.19,525.71L125.3,441.93L125.72,488.9L125.72,481.28L125.93,449.58L126.64,519.74L126.64,493.97L126.65,490.24L126.67,517.72L127.34,418.96L127.4,420.95L127.41,451.81L127.53,423.71L127.75,514.59L128.16,432.48L128.17,438.37L128.24,487.86L128.88,388.13L128.92,399.5L128.93,430.1L128.96,461.85L129.48,371.09L129.68,431.84L129.69,447.35L129.69,473.04L130.4,371.23L130.44,387.13L130.45,387.44L130.58,423.03L130.92,359.21L131.2,386.26L131.21,382.74L131.25,364.4L131.46,426.88L131.96,376.24L131.97,372.85L132.45,413.55L132.64,346.76L132.72,364.97L132.73,363.29L132.75,378.77L133.42,341.89L133.48,342.83L133.49,342.1L133.62,338.87L134.24,388.41L134.25,372.78L134.3,419.95L134.74,349.93L135,358.38L135.01,360.16L135.2,356.09L135.34,425.89L135.76,372.46L135.77,374.29L135.92,358.61L136.26,438.33L136.52,384.14L136.53,378.82L136.58,359.57L136.98,470.29L137.28,382.87L137.29,400.31L137.5,365.2L137.84,470.63L138.04,458.49L138.05,457.93L138.18,392.96L138.53,495.57L138.8,435.1L138.81,419.25L139.19,497.03L139.4,391.74L139.59,488.32L139.59,481.55L139.67,423.12L140.31,506.28L140.38,488.36L140.38,481.42L140.46,433.77L141.56,517.39L141.57,507.33L142.23,485.86L142.55,520.75L142.56,497.92L142.56,492.87L143.27,523.9L143.35,497.63L143.35,491.59L143.55,467.38L144,524.56L144.27,492.79L144.27,490.61L144.34,470.38L145.58,527.9L145.58,517.89L145.59,515.54L146.44,488.53L146.96,529.45L146.96,523.5L146.97,518.11L147.94,531.59L148.15,507.92L148.15,502.27L148.16,497.7L148.73,531.99L149.26,504.89L149.26,496.34L149.3,448.08L149.52,527.84L149.92,486.6L149.92,472.82L149.93,455.72L150.64,525.87L150.71,484.96L150.72,482.02L150.73,519.42L151.34,425.08L151.49,484.99L151.49,477.97L151.75,520.69L152.19,419.94L152.24,473.6L152.25,471.4L152.31,487.03L152.88,394.2L153,443.29L153.01,439.91L153.48,377.14L153.69,479.08L153.76,416.06L153.77,446.57L153.82,467.05L154.4,377.26L154.52,397.09L154.53,391.79L154.58,429.05L154.92,365.21L155.28,383.58L155.29,385.22L155.46,432.86L156.04,370.25L156.05,369.75L156.45,419.49L156.64,352.69L156.8,367.99L156.81,367.92L156.85,369.34L157.56,347.19L157.56,357.95L157.57,358.36L157.62,344.74L158.3,425.77L158.32,379.31L158.33,377.26L158.48,387.68L158.74,355.72L159.08,379.23L159.09,376.72L159.2,361.86L159.34,431.66L159.84,375.32L159.85,369.97L159.92,364.36L160.26,444.06L160.6,382.81L160.61,381.24L160.71,367.32L160.98,475.99L161.36,372.96L161.37,372.32L161.5,370.89L161.84,476.31L162.12,435.04L162.13,443.55L162.18,398.62L162.53,501.23L162.88,414.44L162.89,419.5L163.19,502.67L163.4,397.36L163.64,475.1L163.65,475.22L163.67,428.74L164.31,511.88L164.41,485.25L164.41,479.08L164.46,439.37L165.56,522.96L165.57,512.9L165.57,505.4L166.23,491.42L166.88,527.99L166.88,519.2L166.88,510.62L167.55,472.92L168,530.09L168.01,510.36L168.01,507.49L168.34,475.91L169.58,533.41L169.58,527.58L170.44,494.03L170.96,534.95L170.97,523.61L170.97,520.46L171.94,537.08L172.15,507.75L172.15,504.5L172.16,503.19L172.73,537.46L173.26,510.37L173.26,501.81L173.3,453.55L173.52,533.3L173.92,492.06L173.92,478.28L173.93,461.18L174.64,531.32L174.77,491.01L174.78,481.65L175.22,522.51L175.34,430.51L175.53,462.39L175.54,462.6L175.75,526.11L176.19,425.35L176.29,451.61L176.3,450.12L176.31,492.43L176.88,399.59L177.05,411.37L177.06,411.49L177.48,382.51L177.69,484.45L177.81,453.18L177.82,472.41L178.4,382.6L178.57,431.18L178.58,434.39L178.92,370.53L179.33,397.11L179.34,393.57L179.46,438.17L180.05,375.02L180.09,385.05L180.1,386.18L180.45,424.74L180.83,357.13L180.85,370.72L180.86,369.98L180.92,373.69L181.56,352.38L181.61,354.88L181.62,353.37L181.62,349.93L182.3,430.94L182.37,382.15L182.38,380.99L182.48,392.85L182.74,360.88L183.13,369.28L183.14,371.06L183.2,367L183.34,436.8L183.89,383.22L183.9,383.76L183.92,369.49L184.26,449.18L184.65,393.38L184.66,409.99L184.71,372.43L184.98,481.09L185.41,392.65L185.42,392.45L185.5,375.97L186.17,483.54L186.17,463.36L186.18,419.11L186.18,403.69L186.53,506.29L186.93,462.36L186.94,457.57L187.19,507.71L187.4,402.4L187.69,475.73L187.7,475.68L188.31,516.9L188.45,446.05L188.46,444.39L189.56,527.96L189.64,509.5L189.64,507.21L190.23,496.42L190.88,532.98L190.88,515.62L190.89,512.63L191.55,477.9L192,535.07L192.07,512.77L192.07,505.43L192.34,480.89L193.58,538.38L193.58,532.55L193.58,528.37L194.44,499L195.22,540.72L195.23,540.72L195.75,541.76L195.75,538.23L195.76,536L196.16,508.13L196.73,542.4L197.2,529.82L197.2,522.89L197.25,541.75L197.3,458.47L197.98,491.55L197.99,475.64L198.64,536.22L198.78,486.54L198.78,481.74L199.22,527.4L199.34,435.39L199.53,467.27L199.54,467.47L199.75,530.98L200.19,430.21L200.29,456.46L200.3,454.97L200.31,497.29L200.88,404.44L201.05,416.21L201.06,416.32L201.48,387.34L201.69,489.27L201.81,458L201.82,477.23L202.4,387.39L202.57,435.96L202.58,439.17L202.92,375.3L203.33,401.85L203.34,398.31L203.46,442.91L204.05,379.74L204.09,389.77L204.1,390.9L204.45,429.45L204.83,361.84L204.85,375.42L204.86,374.69L204.92,378.39L205.56,357.07L205.61,359.57L205.62,358.05L205.62,354.62L206.3,435.61L206.37,386.82L206.38,385.66L206.48,397.51L206.74,365.54L207.13,373.93L207.14,375.71L207.2,371.65L207.34,441.45L207.89,387.85L207.9,388.39L207.92,374.12L208.26,453.8L208.65,398L208.66,414.6L208.71,377.04L208.98,485.7L209.41,397.25L209.42,397.06L209.5,380.58L210.17,488.13L210.17,467.95L210.18,423.7L210.18,408.28L210.53,510.87L210.93,466.94L210.94,462.15L211.19,512.29L211.4,406.98L211.69,480.3L211.7,480.25L212.31,521.47L212.45,450.61L212.46,448.96L214.07,535.49L214.08,535.5L214.23,500.97L215.27,538.98L215.34,521.93L215.35,512.7L215.55,482.44L216,539.61L216.33,494.89L216.33,488.21L216.34,485.42L217.58,542.9L217.71,521.2L217.72,517.16L218.44,503.51L219.49,545.8L219.49,545.8L219.5,545.81L219.75,546.26L219.75,546.26L219.75,542.73L220.16,512.62L220.73,546.88L221.2,527.36L221.2,524.39L221.25,546.22L221.3,462.95L221.92,487.66L221.92,482.09L221.93,470.55L222.64,540.66L222.78,490.98L222.78,486.18L223.22,531.83L223.34,439.82L223.53,471.7L223.54,471.9L223.75,535.4L224.19,434.62L224.29,460.87L224.3,459.38L224.31,501.7L224.88,408.82L225.05,420.58L225.06,420.7L225.48,391.69L225.69,493.61L225.82,481.56L225.82,466.69L225.88,480.21L226.4,391.7L226.57,440.27L226.58,443.48L226.92,379.6L227.33,406.14L227.34,402.6L227.46,447.19L228.05,384.01L228.09,394.03L228.1,395.16L228.45,433.7L228.83,366.08L228.85,379.66L228.86,378.93L228.92,382.63L229.56,361.29L229.61,363.79L229.62,362.27L229.62,358.84L230.3,439.82L230.37,391.02L230.38,389.86L230.48,401.72L230.74,369.73L231.13,378.12L231.14,379.89L231.2,375.83L231.34,445.63L231.89,392.02L231.9,392.56L231.92,378.29L232.26,457.96L232.65,402.15L232.66,418.75L232.71,381.19L232.98,489.85L233.41,401.39L233.42,401.19L233.5,384.71L234.17,492.26L234.17,472.08L234.18,427.83L234.18,412.41L234.53,514.99L234.93,471.06L234.94,466.27L235.19,516.41L235.4,411.1L235.73,488.75L235.73,480.24L236.31,525.58L236.46,453.06L236.51,493.47L236.52,480.48L236.72,455.42L238.09,539.69L238.1,533.36L238.1,529.24L238.23,505.06L239.27,543.06L239.35,516.78L239.35,510.74L239.55,486.52L240,543.68L240.33,498.96L240.33,492.28L240.34,489.49L241.58,546.96L241.72,521.2L241.72,519.5L242.44,507.55L243.56,549.94L243.56,549.94L243.57,549.95L243.94,550.53L244.15,526.84L244.15,521.19L244.73,550.86L245.3,507.1L245.3,466.92L245.52,546.66L246.38,505.59L246.38,496.19L246.64,544.6L246.88,450.88L247.3,498.97L247.3,488.95L247.34,443.73L247.75,539.31L248.09,487.06L248.09,477.58L248.11,524.94L248.55,414.2L248.84,436.22L248.85,433.64L248.96,486.41L249.48,395.57L249.6,422.88L249.61,420.51L249.69,497.49L250.33,396.2L250.36,405.42L250.37,407.16L250.58,447.36L250.92,383.48L251.12,391.22L251.13,390.71L251.13,387.87L251.46,451.07L251.88,404.11L251.89,405.42L252.45,437.59L252.64,370.76L252.64,381.44L252.65,381.81L252.72,424.28L253.29,366.19L253.4,380.33L253.41,379.05L253.62,362.72L254.16,404.58L254.16,396.86L254.17,394.36L254.3,443.7L254.74,373.61L254.92,392.8L254.93,387.46L255.2,379.72L255.34,449.51L255.68,398.76L255.69,395.46L255.73,381.75L256.26,461.84L256.44,388.72L256.45,387.87L256.58,383.06L256.98,493.73L257.2,403.84L257.21,405.19L257.5,388.6L257.84,494L257.96,416.4L257.97,420.71L258.18,416.29L258.53,518.88L258.73,483.59L258.74,479.66L259.19,520.29L259.4,414.98L259.49,482.23L259.5,479.09L259.67,446.35L260.31,529.46L260.38,496.62L260.38,488.19L260.46,456.95L262.04,543.31L262.05,543.32L262.23,508.94L263.27,546.94L263.34,529.9L263.35,520.66L263.55,490.4L264,547.57L264.33,496.17L264.33,494.44L264.34,493.37L265.58,550.84L265.58,545.01L266.44,511.43L267.48,553.69L267.49,553.69L267.75,554.16L267.75,550.62L267.76,548.39L268.16,520.51L268.73,554.75L269.26,543.77L269.26,527.62L269.3,470.8L269.52,550.54L270.38,509.44L270.38,500.05L270.64,548.44L270.88,454.72L271.3,492.78L271.3,487.67L271.34,447.56L271.75,543.12L271.76,501.45L271.77,498.63L271.81,542.22L272.49,427.98L272.52,429.65L272.53,430.87L272.7,503.35L273.28,404.73L273.29,407.7L273.48,399.34L273.69,501.25L274.04,418.93L274.05,420.18L274.58,451.09L274.79,398.46L274.8,421.15L274.81,415.82L274.92,387.2L275.46,454.78L275.56,430.58L275.57,426.38L276.05,391.58L276.32,406.94L276.33,404.43L276.45,441.27L277.03,371.39L277.08,376.83L277.09,373.72L277.62,366.38L277.84,401.4L277.84,397.67L277.85,394.5L277.89,382.33L278.3,447.34L278.6,387.31L278.61,386.98L278.74,377.25L279.34,453.14L279.36,399.91L279.37,402.15L279.73,385.38L280,452.11L280.12,396.04L280.13,398.78L280.58,386.67L280.85,491.23L280.89,484.51L280.89,479.11L280.98,497.34L281.5,392.2L281.64,449.32L281.64,472.6L281.66,407.7L282.4,519.41L282.42,483.21L282.42,481.29L282.81,420.89L283.19,523.88L283.26,490.88L283.27,475.95L283.4,418.57L283.98,529.54L284.05,485.16L284.06,476.81L284.46,460.53L285.56,544.06L285.57,534.01L285.57,526.5L286.23,512.5L287.27,550.48L287.28,545.18L287.28,536.8L287.55,493.94L288,551.09L288.33,499.68L288.33,497.95L288.34,496.89L289.58,554.32L289.58,548.49L289.58,544.31L290.44,514.9L291.48,557.12L291.49,557.12L291.75,557.58L291.75,554.04L291.76,551.81L292.16,523.92L292.73,558.14L293.26,531L293.26,522.45L293.3,474.18L293.52,553.92L294.35,513.43L294.35,509.08L294.64,551.82L294.88,458.09L295.04,472.4L295.05,473.36L295.34,450.94L295.75,546.5L295.86,528.14L295.86,475.13L296.01,541.74L296.55,421.37L296.61,448.12L296.62,439.88L296.7,506.73L297.28,408.11L297.37,416.82L297.38,416.05L297.48,402.71L297.69,504.62L298.13,406.46L298.14,405.5L298.58,454.47L298.86,400.97L298.89,411.92L298.9,414.3L298.92,390.58L299.46,458.16L299.65,415.88L299.66,423.21L300.05,394.96L300.41,410.57L300.42,411.11L300.45,444.65L301.16,373.93L301.17,385.09L301.18,388.9L301.62,369.76L301.9,406.46L301.93,396.55L301.94,397.72L302.3,450.72L302.61,384.98L302.69,401.91L302.7,400.12L302.74,380.63L303.34,456.52L303.45,393.16L303.46,392.07L303.73,388.76L304.2,458.15L304.21,410.44L304.22,407.64L304.58,390.05L304.92,499.53L304.97,452.93L304.98,457.44L304.98,500.72L305.5,395.58L305.75,484.89L305.75,477.62L305.92,419.27L306.53,525.85L306.61,490.2L306.61,482.03L307.19,527.26L307.34,422.82L307.36,444.88L307.37,439.59L307.4,421.95L307.98,532.92L308.13,483L308.13,480.5L308.46,463.9L309.56,547.44L309.57,526.08L309.58,524.4L310.23,515.88L311.27,553.86L311.28,548.56L311.28,540.18L311.55,497.32L312.92,556.07L312.93,538.31L312.93,536.85L314.07,558.61L314.11,520.6L314.37,529.08L314.38,526.14L314.44,518.27L315.94,561.17L316.14,547.25L316.15,537.47L316.73,561.47L317.3,517.67L317.3,477.49L317.52,557.22L318.38,502.62L318.39,500.4L318.64,555.1L318.88,461.37L319.32,521.11L319.33,473.5L319.34,454.2L319.75,549.75L320.09,483.74L320.1,480.94L320.11,535.37L320.55,424.61L320.85,438.6L320.86,438.52L320.96,496.79L321.48,405.93L321.61,441.88L321.62,469.52L321.69,507.84L322.33,406.51L322.37,420.37L322.38,421.67L322.58,457.67L322.92,393.77L323.13,416.83L323.14,420.63L323.25,398.91L323.46,461.35L323.89,416.55L323.9,415.25L324.45,447.83L324.64,381L324.65,398.51L324.66,394.67L324.72,434.52L325.29,376.4L325.41,381.85L325.42,378.76L325.62,372.93L326.16,414.77L326.17,400.62L326.18,399.92L326.3,453.89L326.74,383.79L326.93,393.12L326.94,392.18L327.2,389.89L327.34,459.67L327.69,405.45L327.7,405.92L327.73,391.91L328.26,471.99L328.45,431.51L328.46,452.98L328.58,393.2L328.98,503.87L329.21,418.53L329.22,418.81L329.5,398.72L329.84,504.12L329.97,454.77L329.98,474.61L330.18,426.41L330.53,528.99L330.74,489.77L330.74,477.07L331.19,530.39L331.4,425.07L331.53,487.17L331.53,479.22L331.67,456.43L332.31,539.53L332.39,489.25L332.39,484.35L332.46,467.01L334.09,553.59L334.1,542.76L334.1,541.31L334.23,518.95L335.27,556.91L335.35,526.11L335.35,523.92L335.55,500.36L336.92,559.09L336.99,546.25L336.99,536.56L338.07,561.6L338.11,523.59L338.44,527.86L338.44,523.82L338.44,521.26L339.94,564.16L340.14,550.23L340.15,540.46L340.73,564.45L341.3,520.66L341.3,480.48L341.52,560.21L342.71,528.13L342.71,519.82L342.73,551.62L343.34,457.18L343.5,485.7L343.5,482.03L343.53,461.9L343.75,552.74L344.12,498.6L344.12,464.7L344.24,525.93L344.55,427.59L344.87,436.76L344.88,431.12L344.96,499.78L345.48,408.92L345.63,467L345.64,466.35L345.69,510.83L346.33,409.5L346.39,410.21L346.4,409.85L346.58,460.66L346.92,396.76L347.15,417.72L347.16,418.36L347.25,401.9L347.46,464.34L347.91,402.99L347.92,404.76L348.45,450.81L348.64,383.99L348.67,399.46L348.68,399.56L348.72,437.5L349.42,378.97L349.43,389.72L349.44,390.13L349.62,375.91L350.16,417.76L350.19,411.48L350.2,410.19L350.3,456.88L350.74,386.78L350.95,410.28L350.96,407.78L351.2,392.87L351.34,462.66L351.71,406.51L351.72,403.07L351.73,394.9L352.26,474.98L352.47,409.07L352.48,408.05L352.58,396.19L352.98,506.85L353.23,405.67L353.24,405.16L353.5,401.71L353.84,507.1L353.99,468.19L354,473.31L354.18,429.39L354.53,531.97L354.76,497.39L354.77,454.76L355.19,533.37L355.4,428.06L355.53,482.21L355.53,478.59L355.67,459.42L355.98,539.02L356.05,494.64L356.06,486.29L356.46,470L357.56,553.52L357.64,535.05L357.64,532.76L358.23,521.94L359.27,559.9L359.34,542.85L359.35,533.61L359.55,503.34L360.92,562.04L360.99,539.51L360.99,533.43L362.07,564.53L362.11,526.52L362.44,526.75L362.44,524.18L363.94,567.05L364.15,543.35L364.15,537.7L364.73,567.34L365.3,523.53L365.3,483.35L365.52,563.08L366.71,522.68L366.71,520.02L366.73,554.48L367.34,460.03L367.44,480.89L367.44,478.43L367.75,555.58L368.19,454.76L368.2,490.16L368.2,462.3L368.24,528.76L368.88,428.91L368.95,443L368.96,452.19L369.48,411.75L369.69,513.65L369.73,485.15L369.73,479.99L369.76,501.64L370.4,411.71L370.48,424.45L370.49,422.54L370.58,463.48L370.92,399.58L371.24,414.72L371.25,411.06L371.46,467.15L371.98,404.48L372,420.7L372.01,417.4L372.45,453.62L372.64,386.79L372.76,403.17L372.77,400.26L372.79,405.63L373.49,381.45L373.52,395.49L373.53,396.53L373.62,378.72L374.24,428.14L374.28,400.37L374.29,402.64L374.3,459.67L374.74,389.58L375.04,413.53L375.05,414.08L375.2,395.67L375.34,465.45L375.8,415.8L375.81,416.85L375.92,398.1L376.26,477.76L376.56,415.19L376.57,410.84L376.58,398.97L376.98,509.63L377.32,421.62L377.33,419.01L377.5,404.48L377.84,509.87L378.08,454.91L378.09,451L378.18,432.15L378.53,534.73L378.84,434.89L378.85,435.44L379.19,536.12L379.4,430.8L379.6,481.31L379.61,478.7L379.67,462.15L380.31,545.24L380.45,486.52L380.45,478.3L380.46,472.72L382.09,559.27L382.22,547.69L382.22,539.48L383.27,562.57L383.42,508.94L383.54,522.35L383.54,513.31L383.55,506.02L384.92,564.72L384.99,536.1L384.99,533.25L386.07,567.2L386.11,529.2L386.38,534.73L386.38,533.11L386.44,526.86L387.94,569.73L388.15,546.02L388.15,540.37L388.73,570.01L389.3,526.21L389.3,486.02L389.52,565.75L390.71,522.69L390.72,519.75L390.73,557.15L391.34,462.7L391.53,501.78L391.53,467.42L391.75,558.25L392.19,457.43L392.32,521.1L392.32,473.57L392.7,518.45L392.88,431.58L393.07,448.13L393.08,440.81L393.48,414.42L393.69,516.33L393.83,470.04L393.84,470.74L393.88,502.92L394.4,414.38L394.59,419.66L394.6,417.78L394.92,402.25L395.26,461.82L395.35,421.33L395.36,423.7L395.46,469.82L396.05,406.62L396.11,409.07L396.12,422.2L396.45,456.29L396.83,388.66L396.87,403.36L396.88,402.32L396.92,405.21L397.62,381.39L397.63,394.68L397.64,398.52L397.75,383.11L398.3,462.35L398.39,410.4L398.4,411.52L398.48,424.24L398.74,392.25L399.15,413.2L399.16,411.41L399.2,398.34L399.34,468.13L399.91,406.28L399.92,403.16L399.92,400.77L400.26,480.44L400.67,416.44L400.68,414.96L400.71,403.66L400.98,512.3L401.43,409.25L401.44,414.48L401.5,407.15L402.17,514.68L402.21,484.66L402.21,470.9L402.53,537.4L402.81,435.81L402.94,488.67L402.94,480.26L403.4,433.47L403.78,542.17L403.86,495.62L403.86,488.99L404.46,475.39L404.64,547.97L404.71,498.12L404.72,488.62L404.72,477.73L406.09,561.91L406.23,530.89L406.23,527.27L407.27,565.19L407.42,511.56L407.54,515.93L407.55,512.22L407.55,508.64L409.58,568.91L409.58,563.08L409.58,558.9L410.44,529.43L411.71,571.98L411.71,571.98L411.72,571.99L412.73,572.56L413.27,532.98L413.27,531.41L413.3,488.57L413.52,568.3L414.71,525.23L414.72,522.29L414.73,559.69L415.34,465.24L415.53,504.32L415.53,469.95L415.75,560.79L416.19,459.96L416.32,523.63L416.32,476.1L416.7,520.98L416.88,434.11L417.07,450.66L417.08,443.34L417.48,416.95L417.69,518.85L417.83,472.56L417.84,473.27L417.88,505.44L418.4,416.91L418.59,422.18L418.6,420.3L418.92,404.77L419.26,464.34L419.35,423.84L419.36,426.22L419.46,472.34L420.05,409.13L420.11,411.58L420.12,424.71L420.45,458.8L420.83,391.17L420.87,405.87L420.88,404.83L420.92,407.71L421.62,383.89L421.63,397.18L421.64,401.02L421.75,385.62L422.3,464.84L422.39,412.89L422.4,414.01L422.48,426.73L422.74,394.74L423.15,415.69L423.16,413.89L423.2,400.82L423.34,470.61L423.91,408.76L423.92,405.64L423.92,403.25L424.26,482.91L424.67,418.91L424.68,417.43L424.71,406.12L424.98,514.76L425.43,411.7L425.44,416.94L425.5,409.6L426.17,517.12L426.21,487.1L426.21,473.34L426.53,539.84L426.81,438.24L426.94,482.69L426.94,477.91L427.19,541.22L427.4,435.89L427.6,486.41L427.61,483.8L427.67,467.25L428.31,550.33L428.45,491.6L428.45,483.38L428.46,477.8L430.09,564.33L430.22,552.75L430.22,544.54L431.27,567.61L431.42,513.98L431.54,518.35L431.55,514.64L431.55,511.05L433.58,571.33L433.58,565.5L433.58,561.31L434.44,531.85L435.74,574.45L435.74,574.45L435.75,574.46L436.16,540.78L436.73,574.98L437.15,573.96L437.16,574.09L437.19,574.79L437.26,539.26L437.27,535.4L437.3,490.99L437.52,570.72L438.71,527.65L438.72,524.7L438.73,562.11L439.34,467.66L439.53,506.73L439.53,472.37L439.75,563.2L440.19,462.38L440.32,526.05L440.32,478.51L440.7,523.4L440.88,436.53L441.07,453.08L441.08,445.76L441.48,419.36L441.69,521.27L441.83,474.98L441.84,475.68L441.88,507.86L442.4,419.32L442.59,424.59L442.6,422.71L442.92,407.19L443.26,466.76L443.35,426.26L443.36,428.63L443.46,474.76L444.05,411.55L444.11,414L444.12,427.13L444.45,461.22L444.83,393.59L444.87,408.29L444.88,407.24L444.92,410.13L445.62,386.31L445.63,399.6L445.64,403.44L445.75,388.03L446.3,467.26L446.39,415.31L446.4,416.43L446.48,429.15L446.74,397.15L447.15,418.1L447.16,416.31L447.2,403.24L447.34,473.02L447.91,411.17L447.92,408.06L447.92,405.66L448.26,485.32L448.67,421.32L448.68,419.84L448.71,408.54L448.98,517.18L449.43,414.11L449.44,419.34L449.5,412.01L450.17,519.51L450.21,489.49L450.21,475.74L450.53,542.23L450.81,440.62L450.94,485.07L450.94,480.29L451.19,543.59L451.4,438.27L451.66,497.07L451.66,483.39L451.67,469.62L452.31,552.68L452.45,485.73L452.45,481.81L452.46,480.16L454.03,566.34L454.04,566.35L454.23,532.01L454.88,568.5L454.9,565.3L454.9,566.09L455.55,513.35L456,570.47L456.33,525.72L456.33,519.04L456.34,516.25L458.07,574.47L458.1,550.59L458.11,540.56L458.44,534.12L459.94,576.96L460.08,560.11L460.09,558.58L460.73,577.23L461.3,533.42L461.3,493.24L461.52,572.96L462.77,530.48L462.78,521.12L463.34,469.89L463.75,565.44L463.86,547.07L463.86,494.07L464.01,560.67L464.55,440.27L464.61,467.02L464.62,458.78L464.7,525.63L465.28,426.99L465.37,435.69L465.38,434.92L465.48,421.58L465.69,523.49L466.13,425.31L466.14,424.35L466.58,473.3L466.86,419.79L466.89,430.74L466.9,433.12L466.92,409.39L467.46,476.95L467.65,434.67L467.66,441.99L468.05,413.74L468.41,429.33L468.42,429.87L468.45,463.4L469.16,392.66L469.17,403.83L469.18,407.63L469.62,388.47L469.9,425.17L469.93,415.25L469.94,416.42L470.3,469.41L470.61,403.65L470.69,420.58L470.7,418.79L470.74,399.3L471.34,475.16L471.45,411.79L471.46,410.7L471.73,407.38L472.2,476.75L472.21,429.04L472.22,426.24L472.58,408.64L472.92,518.1L472.97,471.5L472.98,476L472.98,519.28L473.5,414.12L473.75,481.52L473.76,472.34L473.92,437.78L474.53,544.33L474.68,493.63L474.68,488.47L475.19,545.7L475.4,440.37L475.46,485.43L475.47,476.65L475.67,471.72L476.31,554.79L476.45,496.06L476.45,487.84L476.46,482.26L478.09,568.76L478.22,548.97L478.23,537.74L479.27,572.02L479.42,518.39L479.55,519.05L479.55,515.94L479.55,515.46L481.58,575.71L481.64,566.06L481.65,557.66L482.44,536.23L483.94,579.07L483.95,573.76L484.73,579.34L485.3,535.53L485.3,495.34L485.52,575.07L486.77,532.59L486.78,523.23L487.34,472L487.75,567.54L487.86,549.18L487.86,496.17L488.01,562.78L488.55,442.38L488.61,469.13L488.62,460.89L488.7,527.73L489.28,429.09L489.37,437.8L489.38,437.03L489.48,423.69L489.69,525.59L490.13,427.41L490.14,426.46L490.58,475.41L490.86,421.9L490.89,432.85L490.9,435.23L490.92,411.5L491.46,479.06L491.65,436.77L491.66,444.1L492.05,415.84L492.41,431.44L492.42,431.98L492.45,465.51L493.16,394.77L493.17,405.93L493.18,409.74L493.62,390.58L493.9,427.28L493.93,417.36L493.94,418.53L494.3,471.52L494.61,405.76L494.69,422.69L494.7,420.9L494.74,401.41L495.34,477.27L495.45,413.9L495.46,412.81L495.73,409.49L496.2,478.86L496.21,431.15L496.22,428.35L496.58,410.75L496.92,520.21L496.97,473.61L496.98,478.11L496.98,521.39L497.5,416.23L497.75,483.63L497.76,474.45L497.92,439.89L498.53,546.44L498.68,495.74L498.68,490.58L499.19,547.81L499.4,442.48L499.46,487.54L499.47,478.76L499.67,473.83L500.31,556.9L500.45,498.17L500.45,489.95L500.46,484.37L502.09,570.87L502.22,551.07L502.23,539.85L503.55,517.57L504,574.69L504.07,552.37L504.07,545.04L504.34,520.47L506.07,578.69L506.08,560.88L506.08,557.81L506.44,538.33L507.94,581.18L508.14,567.25L508.15,557.47L508.73,581.45L509.3,537.64L509.3,497.45L509.52,577.18L510.77,534.7L510.78,525.33L511.34,474.11L511.75,569.65L511.86,551.29L511.86,498.28L512.01,564.89L512.55,444.49L512.61,471.24L512.62,463L512.7,529.84L513.28,431.2L513.37,439.91L513.38,439.14L513.48,425.8L513.69,527.7L514.13,429.52L514.14,428.56L514.58,477.51L514.86,424.01L514.89,434.96L514.9,437.34L514.92,413.61L515.46,481.17L515.65,438.88L515.66,446.21L516.05,417.95L516.41,433.54L516.42,434.09L516.45,467.62L517.16,396.88L517.17,408.04L517.18,411.85L517.62,392.69L517.9,429.39L517.93,419.47L517.94,420.64L518.3,473.63L518.61,407.87L518.69,424.8L518.7,423L518.74,403.52L519.34,479.38L519.45,416.01L519.46,414.92L519.73,411.6L520.2,480.97L520.21,433.26L520.22,430.46L520.58,412.85L520.92,522.32L520.97,475.71L520.98,480.22L520.98,523.5L521.5,418.34L521.75,485.74L521.76,476.56L521.92,442L522.53,548.55L522.68,492.68L522.68,490.22L523.19,549.92L523.4,444.59L523.46,489.65L523.47,480.86L523.67,475.94L524.31,559L524.45,500.28L524.45,492.06L524.46,486.48L526.09,572.98L526.22,553.18L526.23,541.95L527.55,519.68L528,576.79L528.07,554.48L528.07,547.15L528.34,522.57L530.07,580.8L530.08,562.99L530.08,559.92L530.44,540.44L531.94,583.28L532.14,569.35L532.15,559.58L532.73,583.56L533.3,539.74L533.3,499.56L533.52,579.29L534.78,527.44L534.78,522.64L535.34,476.22L535.75,571.76L535.86,553.4L535.86,500.39L536.01,567L536.55,446.6L536.61,473.34L536.62,465.1L536.7,531.95L537.28,433.31L537.37,442.01L537.38,441.25L537.48,427.91L537.69,529.81L538.13,431.63L538.14,430.67L538.58,479.62L538.86,426.11L538.89,437.06L538.9,439.44L538.92,415.71L539.46,483.26L539.65,440.97L539.66,448.3L540.05,420.04L540.41,435.62L540.42,436.17L540.45,469.7L541.16,398.94L541.17,410.11L541.18,413.91L541.62,394.75L541.9,431.43L541.93,421.52L541.94,422.69L542.3,475.67L542.61,409.9L542.69,426.83L542.7,425.04L542.74,405.55L543.34,481.4L543.45,418.03L543.46,416.94L543.73,413.62L544.2,482.97L544.21,435.26L544.22,432.47L544.58,414.85L544.98,525.5L545,487.95L545,452.59L545.5,420.32L545.74,521.13L545.75,487.72L545.76,478.54L545.92,443.98L546.53,550.52L546.74,498.59L546.74,489.67L547.19,551.88L547.4,446.55L547.42,506.97L547.43,465.77L548.31,560.96L548.45,502.23L548.45,494.01L548.46,488.43L550.09,574.92L550.22,555.12L550.23,543.89L551.55,521.61L552,578.72L552.07,556.41L552.07,549.08L552.34,524.5L554.07,582.71L554.1,572.82L554.1,558.83L554.44,542.36L555.94,585.19L556.14,571.25L556.15,561.48L556.73,585.45L557.3,541.63L557.3,501.45L557.52,581.17L558.78,529.31L558.78,524.5L559.34,478.07L559.75,573.61L559.86,502.24L559.86,493.1L560.01,568.84L560.55,448.43L560.61,485.29L560.61,475.18L560.7,533.78L561.28,435.13L561.38,448.65L561.39,449.14L561.48,429.73L561.69,531.62L562.14,434.83L562.15,437.06L562.58,481.42L562.86,427.91L562.9,443.58L562.91,443.9L562.92,417.51L563.46,485.06L563.66,445.25L563.67,441.57L563.72,447.83L564.05,421.83L564.42,432.67L564.43,417.87L564.45,471.49L565.16,400.74L565.18,414.64L565.19,413.94L565.62,396.54L565.9,433.23L565.94,416.26L565.95,415.3L566.3,477.47L566.61,411.7L566.7,425.56L566.71,427.32L566.74,407.35L567.34,483.19L567.46,423.13L567.47,429.64L567.73,415.41L568.2,484.77L568.22,434.37L568.23,465.1L568.58,416.65L568.98,527.29L569,489.74L569,454.38L569.5,422.12L569.74,522.93L569.75,489.52L569.76,480.34L569.92,445.78L570.53,552.32L570.74,500.39L570.74,491.46L571.19,553.68L571.4,448.35L571.42,508.76L571.43,467.57L572.31,562.75L572.45,504.02L572.45,495.81L572.46,490.23L574.09,576.72L574.22,556.92L574.23,545.69L575.55,523.41L576,580.52L576.07,550.87L576.07,548.67L576.34,526.3L578.07,584.51L578.07,581.01L578.07,575.22L578.44,544.15L579.94,586.98L580.14,573.05L580.15,563.27L580.73,587.24L581.3,543.42L581.3,503.24L581.52,582.96L582.78,531.1L582.78,526.3L583.34,479.87L583.75,575.4L583.86,504.03L583.86,494.89L584.01,570.63L584.55,450.23L584.61,487.09L584.61,476.97L584.7,535.58L585.28,436.93L585.38,450.45L585.39,450.93L585.48,431.52L585.69,533.42L586.14,436.63L586.15,438.85L586.58,483.21L586.86,429.7L586.9,445.38L586.91,445.7L586.92,419.3L587.46,486.85L587.66,447.05L587.67,443.37L587.72,449.62L588.05,423.63L588.42,434.47L588.43,419.67L588.45,473.29L589.16,402.53L589.18,416.43L589.19,415.73L589.62,398.34L589.9,435.02L589.94,418.05L589.95,417.1L590.3,479.26L590.61,413.49L590.7,427.35L590.71,429.11L590.74,409.14L591.34,484.99L591.46,424.92L591.47,431.44L591.73,417.21L592.2,486.56L592.22,436.17L592.23,466.9L592.58,418.45L592.98,529.09L593,491.54L593,456.18L593.5,423.91L593.74,524.72L593.76,482.13L593.76,477.47L593.92,447.57L594.53,554.11L594.74,502.18L594.74,493.26L595.19,555.47L595.4,450.14L595.42,510.56L595.43,469.36L596.31,564.55L596.45,497.6L596.45,493.68L596.46,492.02L598.09,578.51L598.1,572.18L598.1,568.05L599.55,525.2L600,582.31" style="vector-effect: none; fill: none; stroke: rgb(29, 60, 52); stroke-opacity: 1; stroke-width: 1px; opacity: 1;"/></g><g class="points"/><g class="text"/></g></g></g><g class="overplot"/><path class="xlines-above crisp" d="M39,500.5H650" style="fill: none; stroke-width: 1px; stroke: rgb(0, 0, 0); stroke-opacity: 1;"/><path class="ylines-above crisp" d="M39.5,10V500" style="fill: none; stroke-width: 1px; stroke: rgb(0, 0, 0); stroke-opacity: 1;"/><g class="overlines-above"/><g class="xaxislayer-above"><path class="xtick ticks crisp" d="M0,501v5" transform="translate(170,0)" style="stroke: rgb(68, 68, 68); stroke-opacity: 1; stroke-width: 1px;"/><path class="xtick ticks crisp" d="M0,501v5" transform="translate(290,0)" style="stroke: rgb(68, 68, 68); stroke-opacity: 1; stroke-width: 1px;"/><path class="xtick ticks crisp" d="M0,501v5" transform="translate(410,0)" style="stroke: rgb(68, 68, 68); stroke-opacity: 1; stroke-width: 1px;"/><path class="xtick ticks crisp" d="M0,501v5" transform="translate(530,0)" style="stroke: rgb(68, 68, 68); stroke-opacity: 1; stroke-width: 1px;"/><path class="xtick ticks crisp" d="M0,501v5" transform="translate(650,0)" style="stroke: rgb(68, 68, 68); stroke-opacity: 1; stroke-width: 1px;"/><g class="xtick"><text text-anchor="middle" x="0" y="530" transform="translate(170,0)" style="font-family: 'Open Sans', verdana, arial, sans-serif; font-size: 20px; fill: rgb(68, 68, 68); fill-opacity: 1; white-space: pre; opacity: 1;">År 5</text></g><g class="xtick"><text text-anchor="middle" x="0" y="530" style="font-family: 'Open Sans', verdana, arial, sans-serif; font-size: 20px; fill: rgb(68, 68, 68); fill-opacity: 1; white-space: pre; opacity: 1;" transform="translate(290,0)">År 10</text></g><g class="xtick"><text text-anchor="middle" x="0" y="530" style="font-family: 'Open Sans', verdana, arial, sans-serif; font-size: 20px; fill: rgb(68, 68, 68); fill-opacity: 1; white-space: pre; opacity: 1;" transform="translate(410,0)">År 15</text></g><g class="xtick"><text text-anchor="middle" x="0" y="530" style="font-family: 'Open Sans', verdana, arial, sans-serif; font-size: 20px; fill: rgb(68, 68, 68); fill-opacity: 1; white-space: pre; opacity: 1;" transform="translate(530,0)">År 20</text></g><g class="xtick"><text text-anchor="middle" x="0" y="530" style="font-family: 'Open Sans', verdana, arial, sans-serif; font-size: 20px; fill: rgb(68, 68, 68); fill-opacity: 1; white-space: pre; opacity: 1;" transform="translate(650,0)">År 25</text></g></g><g class="yaxislayer-above"><path class="ytick ticks crisp" d="M39,0h-5" transform="translate(0,490)" style="stroke: rgb(68, 68, 68); stroke-opacity: 1; stroke-width: 1px;"/><path class="ytick ticks crisp" d="M39,0h-5" transform="translate(0,436.67)" style="stroke: rgb(68, 68, 68); stroke-opacity: 1; stroke-width: 1px;"/><path class="ytick ticks crisp" d="M39,0h-5" transform="translate(0,383.33)" style="stroke: rgb(68, 68, 68); stroke-opacity: 1; stroke-width: 1px;"/><path class="ytick ticks crisp" d="M39,0h-5" transform="translate(0,330)" style="stroke: rgb(68, 68, 68); stroke-opacity: 1; stroke-width: 1px;"/><path class="ytick ticks crisp" d="M39,0h-5" transform="translate(0,276.67)" style="stroke: rgb(68, 68, 68); stroke-opacity: 1; stroke-width: 1px;"/><path class="ytick ticks crisp" d="M39,0h-5" transform="translate(0,223.33)" style="stroke: rgb(68, 68, 68); stroke-opacity: 1; stroke-width: 1px;"/><path class="ytick ticks crisp" d="M39,0h-5" transform="translate(0,170)" style="stroke: rgb(68, 68, 68); stroke-opacity: 1; stroke-width: 1px;"/><path class="ytick ticks crisp" d="M39,0h-5" transform="translate(0,116.67)" style="stroke: rgb(68, 68, 68); stroke-opacity: 1; stroke-width: 1px;"/><path class="ytick ticks crisp" d="M39,0h-5" transform="translate(0,63.33)" style="stroke: rgb(68, 68, 68); stroke-opacity: 1; stroke-width: 1px;"/><path class="ytick ticks crisp" d="M39,0h-5" transform="translate(0,10)" style="stroke: rgb(68, 68, 68); stroke-opacity: 1; stroke-width: 1px;"/><g class="ytick"><text text-anchor="end" x="30" y="7" transform="translate(0,490)" style="font-family: 'Open Sans', verdana, arial, sans-serif; font-size: 20px; fill: rgb(68, 68, 68); fill-opacity: 1; white-space: pre; opacity: 0;">−2</text></g><g class="ytick"><text text-anchor="end" x="30" y="7" style="font-family: 'Open Sans', verdana, arial, sans-serif; font-size: 20px; fill: rgb(68, 68, 68); fill-opacity: 1; white-space: pre; opacity: 1;" transform="translate(0,436.67)">0</text></g><g class="ytick"><text text-anchor="end" x="30" y="7" style="font-family: 'Open Sans', verdana, arial, sans-serif; font-size: 20px; fill: rgb(68, 68, 68); fill-opacity: 1; white-space: pre; opacity: 1;" transform="translate(0,383.33)">2</text></g><g class="ytick"><text text-anchor="end" x="30" y="7" style="font-family: 'Open Sans', verdana, arial, sans-serif; font-size: 20px; fill: rgb(68, 68, 68); fill-opacity: 1; white-space: pre; opacity: 1;" transform="translate(0,330)">4</text></g><g class="ytick"><text text-anchor="end" x="30" y="7" style="font-family: 'Open Sans', verdana, arial, sans-serif; font-size: 20px; fill: rgb(68, 68, 68); fill-opacity: 1; white-space: pre; opacity: 1;" transform="translate(0,276.67)">6</text></g><g class="ytick"><text text-anchor="end" x="30" y="7" style="font-family: 'Open Sans', verdana, arial, sans-serif; font-size: 20px; fill: rgb(68, 68, 68); fill-opacity: 1; white-space: pre; opacity: 1;" transform="translate(0,223.33)">8</text></g><g class="ytick"><text text-anchor="end" x="30" y="7" style="font-family: 'Open Sans', verdana, arial, sans-serif; font-size: 20px; fill: rgb(68, 68, 68); fill-opacity: 1; white-space: pre; opacity: 1;" transform="translate(0,170)">10</text></g><g class="ytick"><text text-anchor="end" x="30" y="7" style="font-family: 'Open Sans', verdana, arial, sans-serif; font-size: 20px; fill: rgb(68, 68, 68); fill-opacity: 1; white-space: pre; opacity: 1;" transform="translate(0,116.67)">12</text></g><g class="ytick"><text text-anchor="end" x="30" y="7" style="font-family: 'Open Sans', verdana, arial, sans-serif; font-size: 20px; fill: rgb(68, 68, 68); fill-opacity: 1; white-space: pre; opacity: 1;" transform="translate(0,63.33)">14</text></g><g class="ytick"><text text-anchor="end" x="30" y="7" style="font-family: 'Open Sans', verdana, arial, sans-serif; font-size: 20px; fill: rgb(68, 68, 68); fill-opacity: 1; white-space: pre; opacity: 0;" transform="translate(0,10)">16</text></g></g><g class="overaxes-above"/></g></g><g class="polarlayer"/><g class="smithlayer"/><g class="ternarylayer"/><g class="geolayer"/><g class="funnelarealayer"/><g class="pielayer"/><g class="iciclelayer"/><g class="treemaplayer"/><g class="sunburstlayer"/><g class="glimages"/><defs id="topdefs-af61da"><g class="clips"/></defs><g class="layer-above"><g class="imagelayer"/><g class="shapelayer"/></g><g class="infolayer"><g class="g-gtitle"/><g class="g-xtitle"/><g class="g-ytitle" transform="translate(20,0)"><text class="ytitle" transform="rotate(-90,0,250)" x="0" y="250" text-anchor="middle" style="font-family: 'Open Sans', verdana, arial, sans-serif; font-size: 20px; fill: rgb(68, 68, 68); opacity: 1; font-weight: normal; white-space: pre;">Gjennomsnittlig kollektorvæsketemperatur [°C]</text></g></g></svg>