<svg class="main-svg" xmlns="http://www.w3.org/2000/svg" xmlns:xlink="http://www.w3.org/1999/xlink" width="700" height="500" style="" viewBox="0 0 700 500"><rect x="0" y="0" width="700" height="500" style="fill: rgb(255, 255, 255); fill-opacity: 1;"/><defs id="defs-71762d"><g class="clips"><clipPath id="clip71762dxyplot" class="plotclip"><rect width="700" height="480"/></clipPath><clipPath class="axesclip" id="clip71762dx"><rect x="0" y="0" width="700" height="500"/></clipPath><clipPath class="axesclip" id="clip71762dy"><rect x="0" y="10" width="700" height="480"/></clipPath><clipPath class="axesclip" id="clip71762dxy"><rect x="0" y="10" width="700" height="480"/></clipPath></g><g class="gradients"/><g class="patterns"/></defs><g class="bglayer"><rect class="bg" x="0" y="10" width="700" height="480" style="fill: rgb(255, 255, 255); fill-opacity: 1; stroke-width: 0;"/></g><g class="layer-below"><g class="imagelayer"/><g class="shapelayer"/></g><g class="cartesianlayer"><g class="subplot xy"><g class="layer-subplot"><g class="shapelayer"/><g class="imagelayer"/></g><g class="minor-gridlayer"><g class="x"/><g class="y"/></g><g class="gridlayer"><g class="x"><path class="xgrid crisp" transform="translate(28,0)" d="M0,10v480" style="stroke: rgb(211, 211, 211); stroke-opacity: 1; stroke-width: 1px;"/><path class="xgrid crisp" transform="translate(112,0)" d="M0,10v480" style="stroke: rgb(211, 211, 211); stroke-opacity: 1; stroke-width: 1px;"/><path class="xgrid crisp" transform="translate(196,0)" d="M0,10v480" style="stroke: rgb(211, 211, 211); stroke-opacity: 1; stroke-width: 1px;"/><path class="xgrid crisp" transform="translate(280,0)" d="M0,10v480" style="stroke: rgb(211, 211, 211); stroke-opacity: 1; stroke-width: 1px;"/><path class="xgrid crisp" transform="translate(364,0)" d="M0,10v480" style="stroke: rgb(211, 211, 211); stroke-opacity: 1; stroke-width: 1px;"/><path class="xgrid crisp" transform="translate(448,0)" d="M0,10v480" style="stroke: rgb(211, 211, 211); stroke-opacity: 1; stroke-width: 1px;"/><path class="xgrid crisp" transform="translate(532,0)" d="M0,10v480" style="stroke: rgb(211, 211, 211); stroke-opacity: 1; stroke-width: 1px;"/><path class="xgrid crisp" transform="translate(616,0)" d="M0,10v480" style="stroke: rgb(211, 211, 211); stroke-opacity: 1; stroke-width: 1px;"/></g><g class="y"><path class="ygrid crisp" transform="translate(0,437.81)" d="M0,0h700" style="stroke: rgb(211, 211, 211); stroke-opacity: 1; stroke-width: 1px;"/><path class="ygrid crisp" transform="translate(0,385.62)" d="M0,0h700" style="stroke: rgb(211, 211, 211); stroke-opacity: 1; stroke-width: 1px;"/><path class="ygrid crisp" transform="translate(0,333.43)" d="M0,0h700" style="stroke: rgb(211, 211, 211); stroke-opacity: 1; stroke-width: 1px;"/><path class="ygrid crisp" transform="translate(0,281.24)" d="M0,0h700" style="stroke: rgb(211, 211, 211); stroke-opacity: 1; stroke-width: 1px;"/><path class="ygrid crisp" transform="translate(0,229.05)" d="M0,0h700" style="stroke: rgb(211, 211, 211); stroke-opacity: 1; stroke-width: 1px;"/><path class="ygrid crisp" transform="translate(0,176.86)" d="M0,0h700" style="stroke: rgb(211, 211, 211); stroke-opacity: 1; stroke-width: 1px;"/><path class="ygrid crisp" transform="translate(0,124.67)" d="M0,0h700" style="stroke: rgb(211, 211, 211); stroke-opacity: 1; stroke-width: 1px;"/><path class="ygrid crisp" transform="translate(0,72.47999999999999)" d="M0,0h700" style="stroke: rgb(211, 211, 211); stroke-opacity: 1; stroke-width: 1px;"/><path class="ygrid crisp" transform="translate(0,20.29)" d="M0,0h700" style="stroke: rgb(211, 211, 211); stroke-opacity: 1; stroke-width: 1px;"/></g></g><g class="zerolinelayer"><path class="yzl zl crisp" transform="translate(0,490)" d="M0,0h700" style="stroke: rgb(68, 68, 68); stroke-opacity: 1; stroke-width: 1px;"/></g><path class="xlines-below"/><path class="ylines-below"/><g class="overlines-below"/><g class="xaxislayer-below"/><g class="yaxislayer-below"/><g class="overaxes-below"/><g class="plot" transform="translate(0,10)" clip-path="url(#clip71762dxyplot)"><g class="barlayer mlayer"><g class="trace bars" style="opacity: 1;"><g class="points"><g class="point"><path d="M0,0Z" style="vector-effect: none; opacity: 1; stroke-width: 0px; fill: rgb(72, 162, 63); fill-opacity: 1;"/></g><g class="point"><path d="M16.8,480V470.29H28V480Z" style="vector-effect: none; opacity: 1; stroke-width: 0px; fill: rgb(72, 162, 63); fill-opacity: 1;"/></g><g class="point"><path d="M44.8,480V460.58H56V480Z" style="vector-effect: none; opacity: 1; stroke-width: 0px; fill: rgb(72, 162, 63); fill-opacity: 1;"/></g><g class="point"><path d="M72.8,480V450.86H84V480Z" style="vector-effect: none; opacity: 1; stroke-width: 0px; fill: rgb(72, 162, 63); fill-opacity: 1;"/></g><g class="point"><path d="M100.8,480V441.15H112V480Z" style="vector-effect: none; opacity: 1; stroke-width: 0px; fill: rgb(72, 162, 63); fill-opacity: 1;"/></g><g class="point"><path d="M128.8,480V431.44H140V480Z" style="vector-effect: none; opacity: 1; stroke-width: 0px; fill: rgb(72, 162, 63); fill-opacity: 1;"/></g><g class="point"><path d="M156.8,480V421.73H168V480Z" style="vector-effect: none; opacity: 1; stroke-width: 0px; fill: rgb(72, 162, 63); fill-opacity: 1;"/></g><g class="point"><path d="M184.8,480V412.02H196V480Z" style="vector-effect: none; opacity: 1; stroke-width: 0px; fill: rgb(72, 162, 63); fill-opacity: 1;"/></g><g class="point"><path d="M212.8,480V402.3H224V480Z" style="vector-effect: none; opacity: 1; stroke-width: 0px; fill: rgb(72, 162, 63); fill-opacity: 1;"/></g><g class="point"><path d="M240.8,480V392.59H252V480Z" style="vector-effect: none; opacity: 1; stroke-width: 0px; fill: rgb(72, 162, 63); fill-opacity: 1;"/></g><g class="point"><path d="M268.8,480V382.88H280V480Z" style="vector-effect: none; opacity: 1; stroke-width: 0px; fill: rgb(72, 162, 63); fill-opacity: 1;"/></g><g class="point"><path d="M296.8,480V373.17H308V480Z" style="vector-effect: none; opacity: 1; stroke-width: 0px; fill: rgb(72, 162, 63); fill-opacity: 1;"/></g><g class="point"><path d="M324.8,480V363.46H336V480Z" style="vector-effect: none; opacity: 1; stroke-width: 0px; fill: rgb(72, 162, 63); fill-opacity: 1;"/></g><g class="point"><path d="M352.8,480V353.75H364V480Z" style="vector-effect: none; opacity: 1; stroke-width: 0px; fill: rgb(72, 162, 63); fill-opacity: 1;"/></g><g class="point"><path d="M380.8,480V344.03H392V480Z" style="vector-effect: none; opacity: 1; stroke-width: 0px; fill: rgb(72, 162, 63); fill-opacity: 1;"/></g><g class="point"><path d="M408.8,480V334.32H420V480Z" style="vector-effect: none; opacity: 1; stroke-width: 0px; fill: rgb(72, 162, 63); fill-opacity: 1;"/></g><g class="point"><path d="M436.8,480V324.61H448V480Z" style="vector-effect: none; opacity: 1; stroke-width: 0px; fill: rgb(72, 162, 63); fill-opacity: 1;"/></g><g class="point"><path d="M464.8,480V314.9H476V480Z" style="vector-effect: none; opacity: 1; stroke-width: 0px; fill: rgb(72, 162, 63); fill-opacity: 1;"/></g><g class="point"><path d="M492.8,480V305.19H504V480Z" style="vector-effect: none; opacity: 1; stroke-width: 0px; fill: rgb(72, 162, 63); fill-opacity: 1;"/></g><g class="point"><path d="M520.8,480V295.47H532V480Z" style="vector-effect: none; opacity: 1; stroke-width: 0px; fill: rgb(72, 162, 63); fill-opacity: 1;"/></g><g class="point"><path d="M548.8,480V285.76H560V480Z" style="vector-effect: none; opacity: 1; stroke-width: 0px; fill: rgb(72, 162, 63); fill-opacity: 1;"/></g><g class="point"><path d="M576.8,480V276.05H588V480Z" style="vector-effect: none; opacity: 1; stroke-width: 0px; fill: rgb(72, 162, 63); fill-opacity: 1;"/></g><g class="point"><path d="M604.8,480V266.34H616V480Z" style="vector-effect: none; opacity: 1; stroke-width: 0px; fill: rgb(72, 162, 63); fill-opacity: 1;"/></g><g class="point"><path d="M632.8,480V256.63H644V480Z" style="vector-effect: none; opacity: 1; stroke-width: 0px; fill: rgb(72, 162, 63); fill-opacity: 1;"/></g><g class="point"><path d="M660.8,480V246.91H672V480Z" style="vector-effect: none; opacity: 1; stroke-width: 0px; fill: rgb(72, 162, 63); fill-opacity: 1;"/></g><g class="point"><path d="M688.8,480V237.2H700V480Z" style="vector-effect: none; opacity: 1; stroke-width: 0px; fill: rgb(72, 162, 63); fill-opacity: 1;"/></g></g></g><g class="trace bars" style="opacity: 1;"><g class="points"><g class="point"><path d="M0,0Z" style="vector-effect: none; opacity: 1; stroke-width: 0px; fill: rgb(29, 60, 52); fill-opacity: 1;"/></g><g class="point"><path d="M28,480V461.76H39.2V480Z" style="vector-effect: none; opacity: 1; stroke-width: 0px; fill: rgb(29, 60, 52); fill-opacity: 1;"/></g><g class="point"><path d="M56,480V443.52H67.2V480Z" style="vector-effect: none; opacity: 1; stroke-width: 0px; fill: rgb(29, 60, 52); fill-opacity: 1;"/></g><g class="point"><path d="M84,480V425.28H95.2V480Z" style="vector-effect: none; opacity: 1; stroke-width: 0px; fill: rgb(29, 60, 52); fill-opacity: 1;"/></g><g class="point"><path d="M112,480V407.04H123.2V480Z" style="vector-effect: none; opacity: 1; stroke-width: 0px; fill: rgb(29, 60, 52); fill-opacity: 1;"/></g><g class="point"><path d="M140,480V388.8H151.2V480Z" style="vector-effect: none; opacity: 1; stroke-width: 0px; fill: rgb(29, 60, 52); fill-opacity: 1;"/></g><g class="point"><path d="M168,480V370.56H179.2V480Z" style="vector-effect: none; opacity: 1; stroke-width: 0px; fill: rgb(29, 60, 52); fill-opacity: 1;"/></g><g class="point"><path d="M196,480V352.32H207.2V480Z" style="vector-effect: none; opacity: 1; stroke-width: 0px; fill: rgb(29, 60, 52); fill-opacity: 1;"/></g><g class="point"><path d="M224,480V334.08H235.2V480Z" style="vector-effect: none; opacity: 1; stroke-width: 0px; fill: rgb(29, 60, 52); fill-opacity: 1;"/></g><g class="point"><path d="M252,480V315.84H263.2V480Z" style="vector-effect: none; opacity: 1; stroke-width: 0px; fill: rgb(29, 60, 52); fill-opacity: 1;"/></g><g class="point"><path d="M280,480V297.6H291.2V480Z" style="vector-effect: none; opacity: 1; stroke-width: 0px; fill: rgb(29, 60, 52); fill-opacity: 1;"/></g><g class="point"><path d="M308,480V279.36H319.2V480Z" style="vector-effect: none; opacity: 1; stroke-width: 0px; fill: rgb(29, 60, 52); fill-opacity: 1;"/></g><g class="point"><path d="M336,480V261.12H347.2V480Z" style="vector-effect: none; opacity: 1; stroke-width: 0px; fill: rgb(29, 60, 52); fill-opacity: 1;"/></g><g class="point"><path d="M364,480V242.88H375.2V480Z" style="vector-effect: none; opacity: 1; stroke-width: 0px; fill: rgb(29, 60, 52); fill-opacity: 1;"/></g><g class="point"><path d="M392,480V224.64H403.2V480Z" style="vector-effect: none; opacity: 1; stroke-width: 0px; fill: rgb(29, 60, 52); fill-opacity: 1;"/></g><g class="point"><path d="M420,480V206.4H431.2V480Z" style="vector-effect: none; opacity: 1; stroke-width: 0px; fill: rgb(29, 60, 52); fill-opacity: 1;"/></g><g class="point"><path d="M448,480V188.16H459.2V480Z" style="vector-effect: none; opacity: 1; stroke-width: 0px; fill: rgb(29, 60, 52); fill-opacity: 1;"/></g><g class="point"><path d="M476,480V169.92H487.2V480Z" style="vector-effect: none; opacity: 1; stroke-width: 0px; fill: rgb(29, 60, 52); fill-opacity: 1;"/></g><g class="point"><path d="M504,480V151.68H515.2V480Z" style="vector-effect: none; opacity: 1; stroke-width: 0px; fill: rgb(29, 60, 52); fill-opacity: 1;"/></g><g class="point"><path d="M532,480V133.44H543.2V480Z" style="vector-effect: none; opacity: 1; stroke-width: 0px; fill: rgb(29, 60, 52); fill-opacity: 1;"/></g><g class="point"><path d="M560,480V115.2H571.2V480Z" style="vector-effect: none; opacity: 1; stroke-width: 0px; fill: rgb(29, 60, 52); fill-opacity: 1;"/></g><g class="point"><path d="M588,480V96.96H599.2V480Z" style="vector-effect: none; opacity: 1; stroke-width: 0px; fill: rgb(29, 60, 52); fill-opacity: 1;"/></g><g class="point"><path d="M616,480V78.72H627.2V480Z" style="vector-effect: none; opacity: 1; stroke-width: 0px; fill: rgb(29, 60, 52); fill-opacity: 1;"/></g><g class="point"><path d="M644,480V60.48H655.2V480Z" style="vector-effect: none; opacity: 1; stroke-width: 0px; fill: rgb(29, 60, 52); fill-opacity: 1;"/></g><g class="point"><path d="M672,480V42.24H683.2V480Z" style="vector-effect: none; opacity: 1; stroke-width: 0px; fill: rgb(29, 60, 52); fill-opacity: 1;"/></g><g class="point"><path d="M700,480V24H711.2V480Z" style="vector-effect: none; opacity: 1; stroke-width: 0px; fill: rgb(29, 60, 52); fill-opacity: 1;"/></g></g></g></g></g><g class="overplot"/><path class="xlines-above crisp" d="M-1,490.5H700" style="fill: none; stroke-width: 1px; stroke: rgb(0, 0, 0); stroke-opacity: 1;"/><path class="ylines-above crisp" d="M-0.5,10V490" style="fill: none; stroke-width: 1px; stroke: rgb(0, 0, 0); stroke-opacity: 1;"/><g class="overlines-above"/><g class="xaxislayer-above"><path class="xtick ticks crisp" d="M0,491v5" transform="translate(28,0)" style="stroke: rgb(68, 68, 68); stroke-opacity: 1; stroke-width: 1px;"/><path class="xtick ticks crisp" d="M0,491v5" transform="translate(112,0)" style="stroke: rgb(68, 68, 68); stroke-opacity: 1; stroke-width: 1px;"/><path class="xtick ticks crisp" d="M0,491v5" transform="translate(196,0)" style="stroke: rgb(68, 68, 68); stroke-opacity: 1; stroke-width: 1px;"/><path class="xtick ticks crisp" d="M0,491v5" transform="translate(280,0)" style="stroke: rgb(68, 68, 68); stroke-opacity: 1; stroke-width: 1px;"/><path class="xtick ticks crisp" d="M0,491v5" transform="translate(364,0)" style="stroke: rgb(68, 68, 68); stroke-opacity: 1; stroke-width: 1px;"/><path class="xtick ticks crisp" d="M0,491v5" transform="translate(448,0)" style="stroke: rgb(68, 68, 68); stroke-opacity: 1; stroke-width: 1px;"/><path class="xtick ticks crisp" d="M0,491v5" transform="translate(532,0)" style="stroke: rgb(68, 68, 68); stroke-opacity: 1; stroke-width: 1px;"/><path class="xtick ticks crisp" d="M0,491v5" transform="translate(616,0)" style="stroke: rgb(68, 68, 68); stroke-opacity: 1; stroke-width: 1px;"/><path class="xtick ticks crisp" d="M0,491v5" transform="translate(700,0)" style="stroke: rgb(68, 68, 68); stroke-opacity: 1; stroke-width: 1px;"/><g class="xtick"><text text-anchor="middle" x="0" y="520" transform="translate(28,0)" style="font-family: 'Open Sans', verdana, arial, sans-serif; font-size: 20px; fill: rgb(68, 68, 68); fill-opacity: 1; white-space: pre; opacity: 1;">1</text></g><g class="xtick"><text text-anchor="middle" x="0" y="520" style="font-family: 'Open Sans', verdana, arial, sans-serif; font-size: 20px; fill: rgb(68, 68, 68); fill-opacity: 1; white-space: pre; opacity: 1;" transform="translate(112,0)">4</text></g><g class="xtick"><text text-anchor="middle" x="0" y="520" style="font-family: 'Open Sans', verdana, arial, sans-serif; font-size: 20px; fill: rgb(68, 68, 68); fill-opacity: 1; white-space: pre; opacity: 1;" transform="translate(196,0)">7</text></g><g class="xtick"><text text-anchor="middle" x="0" y="520" style="font-family: 'Open Sans', verdana, arial, sans-serif; font-size: 20px; fill: rgb(68, 68, 68); fill-opacity: 1; white-space: pre; opacity: 1;" transform="translate(280,0)">10</text></g><g class="xtick"><text text-anchor="middle" x="0" y="520" style="font-family: 'Open Sans', verdana, arial, sans-serif; font-size: 20px; fill: rgb(68, 68, 68); fill-opacity: 1; white-space: pre; opacity: 1;" transform="translate(364,0)">13</text></g><g class="xtick"><text text-anchor="middle" x="0" y="520" style="font-family: 'Open Sans', verdana, arial, sans-serif; font-size: 20px; fill: rgb(68, 68, 68); fill-opacity: 1; white-space: pre; opacity: 1;" transform="translate(448,0)">16</text></g><g class="xtick"><text text-anchor="middle" x="0" y="520" style="font-family: 'Open Sans', verdana, arial, sans-serif; font-size: 20px; fill: rgb(68, 68, 68); fill-opacity: 1; white-space: pre; opacity: 1;" transform="translate(532,0)">19</text></g><g class="xtick"><text text-anchor="middle" x="0" y="520" style="font-family: 'Open Sans', verdana, arial, sans-serif; font-size: 20px; fill: rgb(68, 68, 68); fill-opacity: 1; white-space: pre; opacity: 1;" transform="translate(616,0)">22</text></g><g class="xtick"><text text-anchor="middle" x="0" y="520" style="font-family: 'Open Sans', verdana, arial, sans-serif; font-size: 20px; fill: rgb(68, 68, 68); fill-opacity: 1; white-space: pre; opacity: 0;" transform="translate(700,0)">25</text></g></g><g class="yaxislayer-above"><path class="ytick ticks crisp" d="M-1,0h-5" transform="translate(0,490)" style="stroke: rgb(68, 68, 68); stroke-opacity: 1; stroke-width: 1px;"/><path class="ytick ticks crisp" d="M-1,0h-5" transform="translate(0,437.81)" style="stroke: rgb(68, 68, 68); stroke-opacity: 1; stroke-width: 1px;"/><path class="ytick ticks crisp" d="M-1,0h-5" transform="translate(0,385.62)" style="stroke: rgb(68, 68, 68); stroke-opacity: 1; stroke-width: 1px;"/><path class="ytick ticks crisp" d="M-1,0h-5" transform="translate(0,333.43)" style="stroke: rgb(68, 68, 68); stroke-opacity: 1; stroke-width: 1px;"/><path class="ytick ticks crisp" d="M-1,0h-5" transform="translate(0,281.24)" style="stroke: rgb(68, 68, 68); stroke-opacity: 1; stroke-width: 1px;"/><path class="ytick ticks crisp" d="M-1,0h-5" transform="translate(0,229.05)" style="stroke: rgb(68, 68, 68); stroke-opacity: 1; stroke-width: 1px;"/><path class="ytick ticks crisp" d="M-1,0h-5" transform="translate(0,176.86)" style="stroke: rgb(68, 68, 68); stroke-opacity: 1; stroke-width: 1px;"/><path class="ytick ticks crisp" d="M-1,0h-5" transform="translate(0,124.67)" style="stroke: rgb(68, 68, 68); stroke-opacity: 1; stroke-width: 1px;"/><path class="ytick ticks crisp" d="M-1,0h-5" transform="translate(0,72.47999999999999)" style="stroke: rgb(68, 68, 68); stroke-opacity: 1; stroke-width: 1px;"/><path class="ytick ticks crisp" d="M-1,0h-5" transform="translate(0,20.29)" style="stroke: rgb(68, 68, 68); stroke-opacity: 1; stroke-width: 1px;"/><g class="ytick"><text text-anchor="end" x="-10" y="7" transform="translate(0,490)" style="font-family: 'Open Sans', verdana, arial, sans-serif; font-size: 20px; fill: rgb(68, 68, 68); fill-opacity: 1; white-space: pre; opacity: 0;">0</text></g><g class="ytick"><text text-anchor="end" x="-10" y="7" style="font-family: 'Open Sans', verdana, arial, sans-serif; font-size: 20px; fill: rgb(68, 68, 68); fill-opacity: 1; white-space: pre; opacity: 1;" transform="translate(0,437.81)">1 000 000</text></g><g class="ytick"><text text-anchor="end" x="-10" y="7" style="font-family: 'Open Sans', verdana, arial, sans-serif; font-size: 20px; fill: rgb(68, 68, 68); fill-opacity: 1; white-space: pre; opacity: 1;" transform="translate(0,385.62)">2 000 000</text></g><g class="ytick"><text text-anchor="end" x="-10" y="7" style="font-family: 'Open Sans', verdana, arial, sans-serif; font-size: 20px; fill: rgb(68, 68, 68); fill-opacity: 1; white-space: pre; opacity: 1;" transform="translate(0,333.43)">3 000 000</text></g><g class="ytick"><text text-anchor="end" x="-10" y="7" style="font-family: 'Open Sans', verdana, arial, sans-serif; font-size: 20px; fill: rgb(68, 68, 68); fill-opacity: 1; white-space: pre; opacity: 1;" transform="translate(0,281.24)">4 000 000</text></g><g class="ytick"><text text-anchor="end" x="-10" y="7" style="font-family: 'Open Sans', verdana, arial, sans-serif; font-size: 20px; fill: rgb(68, 68, 68); fill-opacity: 1; white-space: pre; opacity: 1;" transform="translate(0,229.05)">5 000 000</text></g><g class="ytick"><text text-anchor="end" x="-10" y="7" style="font-family: 'Open Sans', verdana, arial, sans-serif; font-size: 20px; fill: rgb(68, 68, 68); fill-opacity: 1; white-space: pre; opacity: 1;" transform="translate(0,176.86)">6 000 000</text></g><g class="ytick"><text text-anchor="end" x="-10" y="7" style="font-family: 'Open Sans', verdana, arial, sans-serif; font-size: 20px; fill: rgb(68, 68, 68); fill-opacity: 1; white-space: pre; opacity: 1;" transform="translate(0,124.67)">7 000 000</text></g><g class="ytick"><text text-anchor="end" x="-10" y="7" style="font-family: 'Open Sans', verdana, arial, sans-serif; font-size: 20px; fill: rgb(68, 68, 68); fill-opacity: 1; white-space: pre; opacity: 1;" transform="translate(0,72.47999999999999)">8 000 000</text></g><g class="ytick"><text text-anchor="end" x="-10" y="7" style="font-family: 'Open Sans', verdana, arial, sans-serif; font-size: 20px; fill: rgb(68, 68, 68); fill-opacity: 1; white-space: pre; opacity: 1;" transform="translate(0,20.29)">9 000 000</text></g></g><g class="overaxes-above"/></g></g><g class="polarlayer"/><g class="smithlayer"/><g class="ternarylayer"/><g class="geolayer"/><g class="funnelarealayer"/><g class="pielayer"/><g class="iciclelayer"/><g class="treemaplayer"/><g class="sunburstlayer"/><g class="glimages"/><defs id="topdefs-71762d"><g class="clips"/><clipPath id="legend71762d"><rect width="220" height="120" x="0" y="0"/></clipPath></defs><g class="layer-above"><g class="imagelayer"/><g class="shapelayer"/></g><g class="infolayer"><g class="legend" pointer-events="all" transform="translate(7,19.60000000000001)"><rect class="bg" shape-rendering="crispEdges" width="220" height="120" x="0" y="0" style="stroke: rgb(68, 68, 68); stroke-opacity: 1; fill: rgb(0, 0, 0); fill-opacity: 0; stroke-width: 0px;"/><g class="scrollbox" transform="" clip-path="url(#legend71762d)"><g class="groups"><g class="traces" transform="translate(0,32.5)" style="opacity: 1;"><text class="legendtext" text-anchor="start" x="40" y="-5.2" style="font-family: 'Open Sans', verdana, arial, sans-serif; font-size: 20px; fill: rgb(68, 68, 68); fill-opacity: 1; white-space: pre;"><tspan class="line" dy="0em" x="40" y="-5.2">Bergvarme (lån):</tspan><tspan class="line" dy="1.3em" x="40" y="-5.2">4 652 200 kr</tspan></text><g class="layers" style="opacity: 1;"><g class="legendfill"/><g class="legendlines"/><g class="legendsymbols"><g class="legendpoints"><path class="legendundefined" d="M6,6H-6V-6H6Z" transform="translate(20,0)" style="stroke-width: 0px; fill: rgb(72, 162, 63); fill-opacity: 1;"/></g></g></g><rect class="legendtoggle" x="0" y="-27.5" width="214.421875" height="55" style="fill: rgb(0, 0, 0); fill-opacity: 0;"/></g><g class="traces" transform="translate(0,87.5)" style="opacity: 1;"><text class="legendtext" text-anchor="start" x="40" y="-5.2" style="font-family: 'Open Sans', verdana, arial, sans-serif; font-size: 20px; fill: rgb(68, 68, 68); fill-opacity: 1; white-space: pre;"><tspan class="line" dy="0em" x="40" y="-5.2">Direkte elektrisk:</tspan><tspan class="line" dy="1.3em" x="40" y="-5.2">8 737 400 kr</tspan></text><g class="layers" style="opacity: 1;"><g class="legendfill"/><g class="legendlines"/><g class="legendsymbols"><g class="legendpoints"><path class="legendundefined" d="M6,6H-6V-6H6Z" transform="translate(20,0)" style="stroke-width: 0px; fill: rgb(29, 60, 52); fill-opacity: 1;"/></g></g></g><rect class="legendtoggle" x="0" y="-27.5" width="214.421875" height="55" style="fill: rgb(0, 0, 0); fill-opacity: 0;"/></g></g></g><rect class="scrollbar" rx="20" ry="3" width="0" height="0" x="0" y="0" style="fill: rgb(128, 139, 164); fill-opacity: 1;"/></g><g class="g-gtitle"/><g class="g-xtitle" transform="translate(0,-64)"><text class="xtitle" x="350" y="560" text-anchor="middle" style="font-family: 'Open Sans', verdana, arial, sans-serif; font-size: 20px; fill: rgb(68, 68, 68); opacity: 1; font-weight: normal; white-space: pre;">År</text></g><g class="g-ytitle" transform="translate(70,0)"><text class="ytitle" transform="rotate(-90,-50,250)" x="-50" y="250" text-anchor="middle" style="font-family: 'Open Sans', verdana, arial, sans-serif; font-size: 20px; fill: rgb(68, 68, 68); opacity: 1; font-weight: normal; white-space: pre;">Oppvarmingskostnader [kr]</text></g></g></svg>