<svg width="26" height="26" xmlns="http://www.w3.org/2000/svg" xmlns:xlink="http://www.w3.org/1999/xlink" overflow="hidden"><defs><clipPath id="clip0"><rect x="458" y="120" width="26" height="26"/></clipPath></defs><g clip-path="url(#clip0)" transform="translate(-458 -120)"><path d="M480.21 137.875 480.21 135.438 472.356 129.885 472.356 124.604C472.356 123.548 471.814 122.167 471.001 122.167 470.216 122.167 469.647 123.548 469.647 124.604L469.647 129.885 461.793 135.438 461.793 137.875 469.647 133.948 469.647 139.852 466.939 142.208 466.939 143.833 471.001 142.208 475.064 143.833 475.064 142.208 472.356 139.852 472.356 133.948ZM472 140.261 474.522 142.455 474.522 143.033 471.203 141.706 471.001 141.624 470.8 141.706 467.481 143.033 467.481 142.455 470.003 140.261 470.189 140.099 470.189 133.072 469.403 133.463 462.335 136.999 462.335 135.718 469.96 130.328 470.189 130.166 470.189 124.604C470.189 123.645 470.703 122.708 471.001 122.708 471.341 122.708 471.814 123.664 471.814 124.604L471.814 130.166 472.043 130.328 479.668 135.718 479.668 136.999 472.598 133.463 471.814 133.072 471.814 140.099Z" stroke="#1D3C34" stroke-width="0.270833"/></g></svg>