<svg width="31" height="26" xmlns="http://www.w3.org/2000/svg" xmlns:xlink="http://www.w3.org/1999/xlink" overflow="hidden"><defs><clipPath id="clip0"><rect x="395" y="267" width="31" height="26"/></clipPath></defs><g clip-path="url(#clip0)" transform="translate(-395 -267)"><path d="M24.3005 0.230906 28.8817 0.230906 28.8817 25.7691 24.3005 25.7691Z" stroke="#1E3D35" stroke-width="0.461812" stroke-linecap="round" stroke-miterlimit="10" fill="#F0F3E3" transform="matrix(1.04327 0 0 1 395.314 267)"/><path d="M1.40391 2.48455 1.40391 25.5936 6.41918 25.5936 6.41918 2.48455C4.70124 1.49627 3.02948 1.44085 1.40391 2.48455Z" stroke="#1E3D35" stroke-width="0.461812" stroke-linecap="round" stroke-miterlimit="10" fill="#F3F8E8" transform="matrix(1.04327 0 0 1 395.314 267)"/><path d="M24.3005 25.7691 1.23766 25.7691" stroke="#1F3E36" stroke-width="0.461812" stroke-linecap="round" stroke-miterlimit="10" fill="none" transform="matrix(1.04327 0 0 1 395.314 267)"/><path d="M24.3005 0.230906 6.59467 0.230906 6.59467 25.7691" stroke="#1F3E36" stroke-width="0.461812" stroke-linecap="round" stroke-miterlimit="10" fill="#FBFDF6" transform="matrix(1.04327 0 0 1 395.314 267)"/><path d="M24.3005 17.6874 6.59467 17.6874" stroke="#1F3E36" stroke-width="0.461812" stroke-linecap="round" stroke-miterlimit="10" fill="none" transform="matrix(1.04327 0 0 1 395.314 267)"/><path d="M24.3005 8.33108 6.59467 8.33108" stroke="#1F3E36" stroke-width="0.461812" stroke-linecap="round" stroke-miterlimit="10" fill="none" transform="matrix(1.04327 0 0 1 395.314 267)"/><path d="M9.71652 12.4874 10.1691 12.4874 10.1691 14.0114 11.222 14.7133 11.222 16.108 10.2153 16.8007 9.71652 16.8007" stroke="#1E3D35" stroke-width="0.230906" stroke-linecap="round" stroke-linejoin="round" fill="#F3F8E8" transform="matrix(1.04327 0 0 1 395.314 267)"/><path d="M9.72575 12.4874 9.26394 12.4874 9.26394 14.0114 8.22025 14.7133 8.22025 16.108 9.21776 16.8007 9.72575 16.8007" stroke="#1E3D35" stroke-width="0.230906" stroke-linecap="round" stroke-linejoin="round" fill="#F3F8E8" transform="matrix(1.04327 0 0 1 395.314 267)"/><path d="M14.27 12.4874 14.7226 12.4874 14.7226 14.0114 15.7663 14.7133 15.7663 16.108 14.7687 16.8007 14.27 16.8007" stroke="#1E3D35" stroke-width="0.230906" stroke-linecap="round" stroke-linejoin="round" fill="#F3F8E8" transform="matrix(1.04327 0 0 1 395.314 267)"/><path d="M14.27 12.4874 13.8174 12.4874 13.8174 14.0114 12.7645 14.7133 12.7645 16.108 13.7712 16.8007 14.27 16.8007" stroke="#1E3D35" stroke-width="0.230906" stroke-linecap="round" stroke-linejoin="round" fill="#F3F8E8" transform="matrix(1.04327 0 0 1 395.314 267)"/><path d="M1.40391 5.90195 0.230906 5.90195 0.230906 10.9542 1.40391 10.9542" stroke="#1E3D35" stroke-width="0.461812" stroke-linecap="round" stroke-linejoin="round" fill="none" transform="matrix(1.04327 0 0 1 395.314 267)"/><path d="M1.40391 13.0046 0.230906 13.0046 0.230906 25.0025 1.40391 25.0025" stroke="#1E3D35" stroke-width="0.461812" stroke-linecap="round" stroke-linejoin="round" fill="none" transform="matrix(1.04327 0 0 1 395.314 267)"/><path d="M28.0412 4.58117 25.2611 4.58117 25.2611 2.73393 25.2611 2.10586 28.0412 2.10586 28.0412 4.58117Z" stroke="#1E3D35" stroke-width="0.230906" stroke-linecap="round" stroke-linejoin="round" fill="none" transform="matrix(1.04327 0 0 1 395.314 267)"/><path d="M25.4366 2.73393 28.0412 2.73393" stroke="#1E3D35" stroke-width="0.230906" stroke-linecap="round" stroke-linejoin="round" fill="none" transform="matrix(1.04327 0 0 1 395.314 267)"/><path d="M25.4366 3.34352 28.0412 3.34352" stroke="#1E3D35" stroke-width="0.230906" stroke-linecap="round" stroke-linejoin="round" fill="none" transform="matrix(1.04327 0 0 1 395.314 267)"/><path d="M25.4366 3.95311 28.0412 3.95311" stroke="#1E3D35" stroke-width="0.230906" stroke-linecap="round" stroke-linejoin="round" fill="none" transform="matrix(1.04327 0 0 1 395.314 267)"/><path d="M9.71652 20.6799 10.1691 20.6799 10.1691 22.2131 11.222 22.9059 11.222 24.3005 10.2153 25.0025 9.71652 25.0025" stroke="#1E3D35" stroke-width="0.230906" stroke-linecap="round" stroke-linejoin="round" fill="#F3F8E8" transform="matrix(1.04327 0 0 1 395.314 267)"/><path d="M9.72575 20.6799 9.26394 20.6799 9.26394 22.2131 8.22025 22.9059 8.22025 24.3005 9.21776 25.0025 9.72575 25.0025" stroke="#1E3D35" stroke-width="0.230906" stroke-linecap="round" stroke-linejoin="round" fill="#F3F8E8" transform="matrix(1.04327 0 0 1 395.314 267)"/><path d="M14.27 20.6799 14.7226 20.6799 14.7226 22.2131 15.7663 22.9059 15.7663 24.3005 14.7687 25.0025 14.27 25.0025" stroke="#1E3D35" stroke-width="0.230906" stroke-linecap="round" stroke-linejoin="round" fill="#F3F8E8" transform="matrix(1.04327 0 0 1 395.314 267)"/><path d="M14.27 20.6799 13.8174 20.6799 13.8174 22.2131 12.7645 22.9059 12.7645 24.3005 13.7712 25.0025 14.27 25.0025" stroke="#1E3D35" stroke-width="0.230906" stroke-linecap="round" stroke-linejoin="round" fill="#F3F8E8" transform="matrix(1.04327 0 0 1 395.314 267)"/><path d="M20.0149 1.05293 23.4139 1.05293 23.4139 7.56448 20.0149 7.56448Z" stroke="#1E3D35" stroke-width="0.230906" stroke-linecap="round" stroke-linejoin="round" fill="#F3F8E8" transform="matrix(1.04327 0 0 1 395.314 267)"/><path d="M17.9552 13.0046 23.4046 13.0046 23.4046 15.5538 17.9552 15.5538Z" stroke="#1E3D35" stroke-width="0.230906" stroke-linecap="round" stroke-linejoin="round" fill="#F3F8E8" transform="matrix(1.04327 0 0 1 395.314 267)"/><path d="M19.0913 11.6931C19.0913 11.9073 18.9176 12.081 18.7034 12.081 18.4891 12.081 18.3155 11.9073 18.3155 11.6931 18.3155 11.4788 18.4891 11.3052 18.7034 11.3052 18.9176 11.3052 19.0913 11.4788 19.0913 11.6931Z" stroke="#1E3D35" stroke-width="0.230906" stroke-linecap="round" stroke-linejoin="round" fill="#F3F8E8" transform="matrix(1.04327 0 0 1 395.314 267)"/><path d="M18.7034 13.0046 18.7034 12.081" stroke="#1E3D35" stroke-width="0.230906" stroke-linecap="round" stroke-linejoin="round" fill="none" transform="matrix(1.04327 0 0 1 395.314 267)"/><path d="M20.4028 11.6931C20.4028 11.9073 20.2292 12.081 20.0149 12.081 19.8007 12.081 19.627 11.9073 19.627 11.6931 19.627 11.4788 19.8007 11.3052 20.0149 11.3052 20.2292 11.3052 20.4028 11.4788 20.4028 11.6931Z" stroke="#1E3D35" stroke-width="0.230906" stroke-linecap="round" stroke-linejoin="round" fill="#F3F8E8" transform="matrix(1.04327 0 0 1 395.314 267)"/><path d="M20.0149 13.0046 20.0149 12.081" stroke="#1E3D35" stroke-width="0.230906" stroke-linecap="round" stroke-linejoin="round" fill="none" transform="matrix(1.04327 0 0 1 395.314 267)"/><path d="M21.7421 11.6931C21.7421 11.9073 21.5684 12.081 21.3542 12.081 21.1399 12.081 20.9663 11.9073 20.9663 11.6931 20.9663 11.4788 21.1399 11.3052 21.3542 11.3052 21.5684 11.3052 21.7421 11.4788 21.7421 11.6931Z" stroke="#1E3D35" stroke-width="0.230906" stroke-linecap="round" stroke-linejoin="round" fill="#F3F8E8" transform="matrix(1.04327 0 0 1 395.314 267)"/><path d="M21.3542 13.0046 21.3542 12.081" stroke="#1E3D35" stroke-width="0.230906" stroke-linecap="round" stroke-linejoin="round" fill="none" transform="matrix(1.04327 0 0 1 395.314 267)"/><path d="M23.0536 11.6931C23.0536 11.9073 22.88 12.081 22.6657 12.081 22.4515 12.081 22.2778 11.9073 22.2778 11.6931 22.2778 11.4788 22.4515 11.3052 22.6657 11.3052 22.88 11.3052 23.0536 11.4788 23.0536 11.6931Z" stroke="#1E3D35" stroke-width="0.230906" stroke-linecap="round" stroke-linejoin="round" fill="#F3F8E8" transform="matrix(1.04327 0 0 1 395.314 267)"/><path d="M22.6657 13.0046 22.6657 12.081" stroke="#1E3D35" stroke-width="0.230906" stroke-linecap="round" stroke-linejoin="round" fill="none" transform="matrix(1.04327 0 0 1 395.314 267)"/></g></svg>