<svg width="27" height="26" xmlns="http://www.w3.org/2000/svg" xmlns:xlink="http://www.w3.org/1999/xlink" overflow="hidden"><defs><clipPath id="clip0"><rect x="505" y="120" width="27" height="26"/></clipPath></defs><g clip-path="url(#clip0)" transform="translate(-505 -120)"><path d="M18.6875 10.8333C20.9312 10.8333 22.75 12.6522 22.75 14.8958 22.75 17.1395 20.9312 18.9583 18.6875 18.9583L2.97917 18.9583C2.82959 18.9583 2.70833 19.0796 2.70833 19.2292 2.70833 19.3787 2.82959 19.5 2.97917 19.5L18.6875 19.5C21.2303 19.5 23.2917 17.4386 23.2917 14.8958 23.2917 12.353 21.2303 10.2917 18.6875 10.2917L3.63946 10.2917C3.63797 10.2916 3.63678 10.2904 3.63678 10.2889 3.6368 10.2882 3.63708 10.2875 3.63756 10.2871L7.23315 6.69148C7.33706 6.58388 7.33409 6.41244 7.22648 6.30852 7.12154 6.20715 6.95514 6.20715 6.85019 6.30852L2.78769 10.371C2.68196 10.4768 2.68196 10.6482 2.78769 10.754L6.85019 14.8165C6.95779 14.9204 7.12923 14.9174 7.23315 14.8098 7.33452 14.7049 7.33452 14.5385 7.23315 14.4335L3.63756 10.8379C3.63651 10.8369 3.63653 10.8351 3.63759 10.8341 3.6381 10.8336 3.63875 10.8333 3.63946 10.8333Z" stroke="#1D3C34" stroke-width="0.270833" fill="#1D3C34" transform="matrix(6.12323e-17 1 -1.03846 6.35874e-17 532 120)"/></g></svg>