<svg width="29" height="27" xmlns="http://www.w3.org/2000/svg" xmlns:xlink="http://www.w3.org/1999/xlink" overflow="hidden"><defs><clipPath id="clip0"><rect x="323" y="79" width="29" height="27"/></clipPath></defs><g clip-path="url(#clip0)" transform="translate(-323 -79)"><path d="M102.292 91.6051C102.292 91.6051 102.831 89.8359 111.221 89.8359 120.549 89.8359 120.01 91.6051 120.01 91.6051L120.01 107.574C120.01 107.574 120.523 109.349 111.221 109.349 102.831 109.349 102.292 107.574 102.292 107.574Z" stroke="#1E3D35" stroke-width="0.512821" stroke-miterlimit="10" fill="#F0F3E3" transform="matrix(1 0 0 1.02056 231.728 -12.3976)"/><path d="M102.292 94.7128C102.292 94.7128 102.831 96.4872 111.221 96.4872 120.549 96.4872 120.01 94.7128 120.01 94.7128" stroke="#1E3D35" stroke-width="0.512821" stroke-miterlimit="10" fill="#F0F3E3" transform="matrix(1 0 0 1.02056 231.728 -12.3976)"/><path d="M102.292 97.9487C102.292 97.9487 102.831 99.718 111.221 99.718 120.549 99.718 120 97.9487 120 97.9487" stroke="#1E3D35" stroke-width="0.512821" stroke-miterlimit="10" fill="#F0F3E3" transform="matrix(1 0 0 1.02056 231.728 -12.3976)"/><path d="M102.292 101.19C102.292 101.19 102.831 102.964 111.221 102.964 120.549 102.964 120.01 101.19 120.01 101.19" stroke="#1E3D35" stroke-width="0.512821" stroke-miterlimit="10" fill="#F0F3E3" transform="matrix(1 0 0 1.02056 231.728 -12.3976)"/><path d="M102.292 104.385C102.292 104.385 102.831 106.154 111.221 106.154 120.549 106.154 120.01 104.385 120.01 104.385" stroke="#1E3D35" stroke-width="0.512821" stroke-miterlimit="10" fill="#F0F3E3" transform="matrix(1 0 0 1.02056 231.728 -12.3976)"/><path d="M120 91.6051C120 91.6051 120.513 93.3795 111.21 93.3795 102.821 93.3795 102.282 91.6051 102.282 91.6051" stroke="#1E3D35" stroke-width="0.512821" stroke-miterlimit="10" fill="#F0F3E3" transform="matrix(1 0 0 1.02056 231.728 -12.3976)"/><path d="M19.0769 16.7436C19.0769 21.9407 14.8638 26.1538 9.66667 26.1538 4.46953 26.1538 0.25641 21.9407 0.25641 16.7436 0.25641 11.5465 4.46953 7.33333 9.66667 7.33333 14.8638 7.33333 19.0769 11.5464 19.0769 16.7436Z" stroke="#1E3D35" stroke-width="0.512821" stroke-miterlimit="10" fill="#F0F3E3" transform="matrix(1 0 0 1.02056 323 79.0234)"/><path d="M9.66667 11.6 11.4564 15.9231 15.1487 14.5744 14.4513 19.3231 4.88205 19.3231 4.18462 14.5744 7.87692 15.9231 9.66667 11.6Z" stroke="#1E3D35" stroke-width="0.512821" stroke-linecap="round" stroke-linejoin="round" fill="#F0F3E3" transform="matrix(1 0 0 1.02056 323 79.0234)"/><path d="M4.86667 20.3846 14.5231 20.3846" stroke="#1E3D35" stroke-width="0.512821" stroke-linecap="round" stroke-linejoin="round" fill="none" transform="matrix(1 0 0 1.02056 323 79.0234)"/></g></svg>