<svg width="38" height="37" xmlns="http://www.w3.org/2000/svg" xmlns:xlink="http://www.w3.org/1999/xlink" overflow="hidden"><defs><clipPath id="clip0"><rect x="384" y="175" width="38" height="37"/></clipPath></defs><g clip-path="url(#clip0)" transform="translate(-384 -175)"><path d="M31.0345 11.1682 31.6427 14.2604 32.4282 14.2604 31.6427 10.2617 11.5625 14.2535C11.5413 14.2577 11.5417 14.2608 11.5625 14.2608L15.4787 14.2608Z" fill="#1D3C34" transform="matrix(1.02703 0 0 1 384 175)"/><path d="M26.4608 6.97874 27.622 9.88208 28.3929 9.72792 26.8897 5.9701 6.63225 14.2535C6.62223 14.2577 6.623 14.2608 6.63225 14.2608L8.64952 14.2608Z" fill="#1D3C34" transform="matrix(1.02703 0 0 1 384 175)"/><path d="M35.463 15.4167 1.54167 15.4167 1.54167 30.8333 35.463 30.8333ZM34.6921 30.0625 2.3125 30.0625 2.3125 16.1875 34.6921 16.1875Z" fill="#1D3C34" transform="matrix(1.02703 0 0 1 384 175)"/><path d="M18.5023 26.5938C20.0351 26.5938 21.2773 25.0409 21.2773 23.125 21.2773 21.2091 20.0347 19.6562 18.5023 19.6562 16.9699 19.6562 15.7273 21.2091 15.7273 23.125 15.7273 25.0409 16.9695 26.5938 18.5023 26.5938ZM18.5023 20.4271C19.6077 20.4271 20.5065 21.6373 20.5065 23.125 20.5065 24.6127 19.6073 25.8229 18.5023 25.8229 17.3973 25.8229 16.4981 24.6127 16.4981 23.125 16.4981 21.6373 17.3973 20.4271 18.5023 20.4271Z" fill="#1D3C34" transform="matrix(1.02703 0 0 1 384 175)"/><path d="M8.44756 24.6123C9.27108 24.8408 10.1239 24.3584 10.3524 23.5349 10.4275 23.2641 10.4275 22.978 10.3523 22.7072 10.2106 22.1875 9.80469 21.7815 9.28507 21.6396 8.46171 21.4106 7.60855 21.8923 7.3795 22.7157 7.30395 22.9871 7.30399 23.274 7.37957 23.5455 7.52152 24.0651 7.92775 24.471 8.44756 24.6123ZM8.86458 22.3542C9.29031 22.3542 9.63542 22.6993 9.63542 23.125 9.63542 23.5507 9.29031 23.8958 8.86458 23.8958 8.43885 23.8958 8.09375 23.5507 8.09375 23.125 8.09375 22.6993 8.43885 22.3542 8.86458 22.3542Z" fill="#1D3C34" transform="matrix(1.02703 0 0 1 384 175)"/><path d="M28.4538 24.6362C29.1849 24.4658 29.6969 23.8066 29.6809 23.056L29.6809 23.056C29.691 22.547 29.4258 22.072 28.9872 21.8134 28.2562 21.356 27.2929 21.5777 26.8354 22.3086 26.6823 22.5532 26.6 22.8354 26.5976 23.1238 26.5977 23.9768 27.2892 24.6681 28.1422 24.668 28.2468 24.668 28.3512 24.6573 28.4538 24.6362ZM28.1393 22.3542C28.565 22.3542 28.9101 22.6993 28.9101 23.125 28.9101 23.5507 28.565 23.8958 28.1393 23.8958 27.7135 23.8958 27.3684 23.5507 27.3684 23.125 27.3684 22.6993 27.7135 22.3542 28.1393 22.3542Z" fill="#1D3C34" transform="matrix(1.02703 0 0 1 384 175)"/><path d="M31.9938 28.5208 33.1501 27.3646 33.1501 18.8854 31.9938 17.7292 5.39583 17.7292 3.85417 19.2708 3.85417 26.9792 5.39583 28.5208ZM4.625 19.5907 5.71573 18.5 31.6747 18.5 32.3792 19.2045 32.3792 27.0462 31.6747 27.75 5.71573 27.75 4.625 26.6608Z" fill="#1D3C34" transform="matrix(1.02703 0 0 1 384 175)"/></g></svg>